M48
; DRILL file {KiCad (5.1.6)-1} date 10/03/20 13:12:03
; FORMAT={-:-/ absolute / inch / decimal}
; #@! TF.CreationDate,2020-10-03T13:12:03+07:00
; #@! TF.GenerationSoftware,Kicad,Pcbnew,(5.1.6)-1
; #@! TF.FileFunction,Plated,1,2,PTH
FMAT,2
INCH
T1C0.0118
T2C0.0157
T3C0.0272
T4C0.0276
T5C0.0295
T6C0.0315
T7C0.0354
T8C0.0394
T9C0.0433
T10C0.0591
T11C0.0866
%
G90
G05
T1
X1.475Y-4.64
X1.525Y-5.0
X1.77Y-4.7
X1.925Y-4.67
X2.025Y-4.7
X2.675Y-5.0
X2.975Y-4.67
X3.075Y-4.7
X3.215Y-2.715
X3.215Y-3.16
X3.24Y-2.735
X3.24Y-3.18
X3.265Y-2.755
X3.265Y-3.2
X3.29Y-2.775
X3.29Y-3.22
X3.625Y-5.0
X3.9Y-3.435
X3.9Y-3.76
X4.02Y-3.05
X4.025Y-4.67
X4.125Y-4.7
X4.32Y-3.05
X4.42Y-3.05
X4.7225Y-3.0525
X5.075Y-4.67
X5.175Y-4.7
X5.3Y-4.64
X5.725Y-2.375
X5.84Y-4.0
X5.85Y-4.7
X5.87Y-4.58
X5.88Y-3.9
X5.91Y-4.61
X5.92Y-3.8
X5.95Y-4.64
X6.15Y-4.55
X6.365Y-3.85
X6.595Y-3.265
X6.6Y-3.79
X6.61Y-2.95
X6.6825Y-4.8925
X6.75Y-2.735
X6.8Y-3.195
X6.8Y-3.335
X6.8825Y-3.79
X6.9Y-3.195
X6.99Y-2.95
X7.045Y-3.3
X7.06Y-3.875
X7.15Y-2.59
X7.15Y-4.67
X7.185Y-3.27
X7.235Y-3.31
X7.25Y-4.7
X7.275Y-2.59
X7.275Y-3.595
X7.36Y-5.125
X7.69Y-3.805
X7.73Y-4.895
X7.74Y-2.735
X7.855Y-3.245
X7.875Y-2.375
X7.875Y-2.72
X7.925Y-3.835
X7.975Y-2.65
X7.975Y-4.67
X8.115Y-3.85
X8.175Y-4.55
X8.2Y-4.67
X8.275Y-3.245
X8.3Y-4.7
X8.41Y-5.125
X8.425Y-2.615
X8.425Y-3.165
X8.69Y-3.88
X8.69Y-4.225
X8.715Y-3.845
X8.715Y-4.175
X8.74Y-3.81
X8.74Y-4.275
X8.76Y-2.93
X8.77Y-3.375
X8.78Y-4.895
X8.78Y-4.895
X8.785Y-2.91
X8.795Y-3.35
X8.81Y-2.89
X8.82Y-3.325
X9.215Y-4.185
X9.215Y-4.7
X9.25Y-4.185
X9.25Y-4.67
X9.35Y-4.7
X9.465Y-5.125
X9.9Y-4.64
X10.0Y-4.61
X10.09Y-3.4
X10.1Y-4.58
X10.12Y-3.425
X10.135Y-3.63
X10.15Y-3.4
X10.155Y-3.6
X10.3Y-4.67
X10.4Y-4.7
T2
X1.315Y-2.38
X1.315Y-2.975
X1.315Y-4.35
X1.315Y-4.735
X1.425Y-2.38
X1.425Y-2.975
X1.425Y-4.735
X1.925Y-2.38
X1.925Y-2.975
X2.275Y-2.38
X2.475Y-2.38
X2.475Y-2.975
X2.475Y-4.735
X2.975Y-2.975
X3.23Y-4.35
X3.525Y-4.735
X4.575Y-4.735
X5.505Y-2.31
X5.505Y-3.2
X5.505Y-4.3
X5.6Y-4.735
X6.03Y-2.31
X6.03Y-2.99
X6.03Y-3.555
X6.03Y-4.15
X6.03Y-4.15
X6.45Y-4.15
X6.5Y-2.31
X6.5Y-2.99
X6.5Y-3.555
X6.65Y-4.735
X6.775Y-2.31
X7.1Y-4.15
X7.7Y-4.735
X7.725Y-2.99
X7.775Y-4.15
X7.825Y-2.31
X7.825Y-3.555
X7.925Y-2.31
X8.425Y-4.15
X8.75Y-4.735
X8.865Y-2.325
X8.895Y-3.16
X8.91Y-1.385
X8.94Y-3.09
X9.8Y-4.735
T3
X6.161Y-1.825
X6.261Y-1.725
X6.261Y-1.925
T4
X6.45Y-4.25
X6.45Y-4.35
X8.85Y-3.7
X8.85Y-4.0
X7.725Y-1.7
X7.725Y-1.8
X6.55Y-1.675
X6.55Y-1.775
X7.725Y-1.9
X7.725Y-2.0
X4.9Y-1.525
X4.9Y-1.825
X5.9Y-5.75
X5.9Y-5.85
X8.425Y-4.25
X8.425Y-4.35
X3.4Y-1.5
X3.7Y-1.5
X5.2Y-1.825
X5.2Y-2.125
X10.025Y-3.475
X10.025Y-3.575
X7.1Y-4.25
X7.1Y-4.35
X3.4Y-2.1
X3.7Y-2.1
X1.85Y-1.425
X1.85Y-1.725
X10.225Y-3.475
X10.225Y-3.575
X7.775Y-4.25
X7.775Y-4.35
X3.675Y-4.05
X3.675Y-4.35
X3.675Y-2.825
X3.675Y-3.125
T5
X3.375Y-1.75
X3.375Y-1.8
X3.375Y-1.85
X5.2Y-1.55
X5.2Y-1.6
X5.2Y-1.65
T6
X5.425Y-3.425
X5.6219Y-3.425
X4.35Y-4.875
X4.35Y-5.0719
X6.4Y-5.352
X6.4Y-5.648
X6.5Y-5.352
X6.5Y-5.648
X6.6Y-5.352
X6.6Y-5.648
X6.7Y-5.352
X6.7Y-5.648
X6.8Y-5.352
X6.8Y-5.648
X6.9Y-5.352
X6.9Y-5.648
X7.0Y-5.352
X7.0Y-5.648
X7.1Y-5.352
X7.1Y-5.648
X7.2Y-5.352
X7.2Y-5.648
X7.3Y-5.352
X7.3Y-5.648
X5.6Y-4.825
X5.6Y-5.125
X5.7Y-4.825
X5.7Y-5.125
X5.8Y-4.825
X5.8Y-5.125
X5.9Y-4.825
X5.9Y-5.125
X6.0Y-4.825
X6.0Y-5.125
X6.1Y-4.825
X6.1Y-5.125
X6.2Y-4.825
X6.2Y-5.125
X6.775Y-1.535
X6.9719Y-1.535
X2.5Y-5.352
X2.5Y-5.648
X2.6Y-5.352
X2.6Y-5.648
X2.7Y-5.352
X2.7Y-5.648
X2.8Y-5.352
X2.8Y-5.648
X2.9Y-5.352
X2.9Y-5.648
X3.0Y-5.352
X3.0Y-5.648
X3.1Y-5.352
X3.1Y-5.648
X3.2Y-5.352
X3.2Y-5.648
X3.3Y-5.352
X3.3Y-5.648
X3.4Y-5.352
X3.4Y-5.648
X1.825Y-4.05
X1.825Y-4.35
X1.925Y-4.05
X1.925Y-4.35
X2.025Y-4.05
X2.025Y-4.35
X2.125Y-4.05
X2.125Y-4.35
X2.225Y-4.05
X2.225Y-4.35
X2.325Y-4.05
X2.325Y-4.35
X2.425Y-4.05
X2.425Y-4.35
X2.525Y-4.05
X2.525Y-4.35
X7.725Y-3.1
X7.725Y-3.4
X7.825Y-3.1
X7.825Y-3.4
X7.925Y-3.1
X7.925Y-3.4
X8.025Y-3.1
X8.025Y-3.4
X8.125Y-3.1
X8.125Y-3.4
X8.225Y-3.1
X8.225Y-3.4
X8.325Y-3.1
X8.325Y-3.4
X8.425Y-3.1
X8.425Y-3.4
X2.475Y-3.1
X2.475Y-3.4
X2.575Y-3.1
X2.575Y-3.4
X2.675Y-3.1
X2.675Y-3.4
X2.775Y-3.1
X2.775Y-3.4
X2.875Y-3.1
X2.875Y-3.4
X2.975Y-3.1
X2.975Y-3.4
X3.075Y-3.1
X3.075Y-3.4
X9.6781Y-3.525
X9.875Y-3.525
X6.5Y-2.5
X6.5Y-2.8
X6.6Y-2.5
X6.6Y-2.8
X6.7Y-2.5
X6.7Y-2.8
X6.8Y-2.5
X6.8Y-2.8
X6.9Y-2.5
X6.9Y-2.8
X7.0Y-2.5
X7.0Y-2.8
X7.1Y-2.5
X7.1Y-2.8
X7.2Y-2.5
X7.2Y-2.8
X7.825Y-2.5
X7.825Y-2.8
X7.925Y-2.5
X7.925Y-2.8
X8.025Y-2.5
X8.025Y-2.8
X8.125Y-2.5
X8.125Y-2.8
X8.225Y-2.5
X8.225Y-2.8
X8.325Y-2.5
X8.325Y-2.8
X8.425Y-2.5
X8.425Y-2.8
X7.5Y-3.15
X7.5Y-3.3469
X1.2Y-4.875
X1.2Y-5.0719
X3.075Y-1.76
X3.075Y-1.8387
X1.825Y-3.85
X1.925Y-3.85
X2.025Y-3.85
X2.125Y-3.85
X2.225Y-3.85
X2.325Y-3.85
X2.425Y-3.85
X2.525Y-3.85
X2.625Y-3.85
X8.75Y-4.825
X8.75Y-5.125
X8.85Y-4.825
X8.85Y-5.125
X8.95Y-4.825
X8.95Y-5.125
X9.05Y-4.825
X9.05Y-5.125
X9.15Y-4.825
X9.15Y-5.125
X9.25Y-4.825
X9.25Y-5.125
X9.35Y-4.825
X9.35Y-5.125
X2.05Y-5.85
X2.15Y-5.85
X2.25Y-5.85
X2.35Y-5.85
X2.45Y-5.85
X2.55Y-5.85
X2.65Y-5.85
X2.75Y-5.85
X2.85Y-5.85
X10.225Y-4.225
X10.4219Y-4.225
X3.5Y-5.352
X3.5Y-5.648
X3.6Y-5.352
X3.6Y-5.648
X3.7Y-5.352
X3.7Y-5.648
X3.8Y-5.352
X3.8Y-5.648
X3.9Y-5.352
X3.9Y-5.648
X4.0Y-5.352
X4.0Y-5.648
X4.1Y-5.352
X4.1Y-5.648
X4.2Y-5.352
X4.2Y-5.648
X4.3Y-5.352
X4.3Y-5.648
X4.4Y-5.352
X4.4Y-5.648
X3.0Y-5.85
X3.1Y-5.85
X3.2Y-5.85
X3.3Y-5.85
X3.4Y-5.85
X3.5Y-5.85
X3.6Y-5.85
X3.7Y-5.85
X3.8Y-5.85
X3.9Y-4.05
X3.9Y-4.35
X4.0Y-4.05
X4.0Y-4.35
X4.1Y-4.05
X4.1Y-4.35
X4.2Y-4.05
X4.2Y-4.35
X4.3Y-4.05
X4.3Y-4.35
X4.4Y-4.05
X4.4Y-4.35
X4.5Y-4.05
X4.5Y-4.35
X4.6Y-4.05
X4.6Y-4.35
X4.7Y-4.05
X4.7Y-4.35
X4.8Y-4.05
X4.8Y-4.35
X8.485Y-1.8016
X8.485Y-1.9
X9.075Y-3.7
X9.075Y-4.0
X9.175Y-3.7
X9.175Y-4.0
X9.275Y-3.7
X9.275Y-4.0
X9.375Y-3.7
X9.375Y-4.0
X9.475Y-3.7
X9.475Y-4.0
X9.575Y-3.7
X9.575Y-4.0
X9.675Y-3.7
X9.675Y-4.0
X9.775Y-3.7
X9.775Y-4.0
X9.875Y-3.7
X9.875Y-4.0
X9.975Y-3.7
X9.975Y-4.0
X10.075Y-3.7
X10.075Y-4.0
X10.175Y-3.7
X10.175Y-4.0
X10.275Y-3.7
X10.275Y-4.0
X10.375Y-3.7
X10.375Y-4.0
X1.85Y-1.85
X1.85Y-2.15
X9.575Y-4.875
X9.575Y-5.0719
X6.5Y-3.1
X6.5Y-3.4
X6.6Y-3.1
X6.6Y-3.4
X6.7Y-3.1
X6.7Y-3.4
X6.8Y-3.1
X6.8Y-3.4
X6.9Y-3.1
X6.9Y-3.4
X7.0Y-3.1
X7.0Y-3.4
X7.1Y-3.1
X7.1Y-3.4
X2.25Y-3.15
X2.25Y-3.3469
X7.925Y-2.2
X8.1219Y-2.2
X2.25Y-4.875
X2.25Y-5.0719
X7.4Y-5.352
X7.4Y-5.648
X7.5Y-5.352
X7.5Y-5.648
X7.6Y-5.352
X7.6Y-5.648
X7.7Y-5.352
X7.7Y-5.648
X7.8Y-5.352
X7.8Y-5.648
X7.9Y-5.352
X7.9Y-5.648
X8.0Y-5.352
X8.0Y-5.648
X8.1Y-5.352
X8.1Y-5.648
X8.2Y-5.352
X8.2Y-5.648
X8.3Y-5.352
X8.3Y-5.648
X8.0Y-5.85
X8.1Y-5.85
X8.2Y-5.85
X8.3Y-5.85
X8.4Y-5.85
X8.5Y-5.85
X8.6Y-5.85
X8.7Y-5.85
X8.8Y-5.85
X7.925Y-1.535
X8.1219Y-1.535
X3.95Y-5.85
X4.05Y-5.85
X4.15Y-5.85
X4.25Y-5.85
X4.35Y-5.85
X4.45Y-5.85
X4.55Y-5.85
X4.65Y-5.85
X4.75Y-5.85
X6.725Y-1.7
X6.725Y-1.8
X6.725Y-1.9
X6.725Y-2.0
X7.025Y-1.7
X7.025Y-1.8
X7.025Y-1.9
X7.025Y-2.0
X5.4Y-4.9
X5.4Y-5.0969
X1.425Y-3.1
X1.425Y-3.4
X1.525Y-3.1
X1.525Y-3.4
X1.625Y-3.1
X1.625Y-3.4
X1.725Y-3.1
X1.725Y-3.4
X1.825Y-3.1
X1.825Y-3.4
X1.925Y-3.1
X1.925Y-3.4
X2.025Y-3.1
X2.025Y-3.4
X2.7Y-1.745
X2.7Y-1.8434
X9.1281Y-4.225
X9.325Y-4.225
X5.425Y-4.575
X5.6219Y-4.575
X6.425Y-4.875
X6.425Y-5.0719
X3.3Y-4.875
X3.3Y-5.0719
X4.425Y-3.5213
X4.425Y-3.6
X4.425Y-3.6787
X8.4Y-5.352
X8.4Y-5.648
X8.5Y-5.352
X8.5Y-5.648
X8.6Y-5.352
X8.6Y-5.648
X8.7Y-5.352
X8.7Y-5.648
X8.8Y-5.352
X8.8Y-5.648
X8.9Y-5.352
X8.9Y-5.648
X9.0Y-5.352
X9.0Y-5.648
X9.1Y-5.352
X9.1Y-5.648
X9.2Y-5.352
X9.2Y-5.648
X9.3Y-5.352
X9.3Y-5.648
X7.05Y-5.85
X7.15Y-5.85
X7.25Y-5.85
X7.35Y-5.85
X7.45Y-5.85
X7.55Y-5.85
X7.65Y-5.85
X7.75Y-5.85
X7.85Y-5.85
X4.5Y-5.352
X4.5Y-5.648
X4.6Y-5.352
X4.6Y-5.648
X4.7Y-5.352
X4.7Y-5.648
X4.8Y-5.352
X4.8Y-5.648
X4.9Y-5.352
X4.9Y-5.648
X5.0Y-5.352
X5.0Y-5.648
X5.1Y-5.352
X5.1Y-5.648
X5.2Y-5.352
X5.2Y-5.648
X5.3Y-5.352
X5.3Y-5.648
X5.4Y-5.352
X5.4Y-5.648
X2.25Y-2.55
X2.25Y-2.7469
X3.645Y-1.76
X3.645Y-1.8387
X7.33Y-1.8016
X7.33Y-1.9
X5.375Y-3.65
X5.375Y-3.75
X5.375Y-3.85
X5.375Y-3.95
X5.375Y-4.05
X5.375Y-4.15
X5.375Y-4.25
X5.375Y-4.35
X5.675Y-3.65
X5.675Y-3.75
X5.675Y-3.85
X5.675Y-3.95
X5.675Y-4.05
X5.675Y-4.15
X5.675Y-4.25
X5.675Y-4.35
X3.475Y-2.875
X3.475Y-3.0719
X6.275Y-2.55
X6.275Y-2.7469
X3.475Y-4.1
X3.475Y-4.2969
X4.575Y-4.825
X4.575Y-5.125
X4.675Y-4.825
X4.675Y-5.125
X4.775Y-4.825
X4.775Y-5.125
X4.875Y-4.825
X4.875Y-5.125
X4.975Y-4.825
X4.975Y-5.125
X5.075Y-4.825
X5.075Y-5.125
X5.175Y-4.825
X5.175Y-5.125
X6.1Y-5.85
X6.2Y-5.85
X6.3Y-5.85
X6.4Y-5.85
X6.5Y-5.85
X6.6Y-5.85
X6.7Y-5.85
X6.8Y-5.85
X6.9Y-5.85
X1.2Y-3.15
X1.2Y-3.3469
X9.8Y-4.825
X9.8Y-5.125
X9.9Y-4.825
X9.9Y-5.125
X10.0Y-4.825
X10.0Y-5.125
X10.1Y-4.825
X10.1Y-5.125
X10.2Y-4.825
X10.2Y-5.125
X10.3Y-4.825
X10.3Y-5.125
X10.4Y-4.825
X10.4Y-5.125
X8.95Y-5.85
X9.05Y-5.85
X9.15Y-5.85
X9.25Y-5.85
X9.35Y-5.85
X9.45Y-5.85
X9.55Y-5.85
X9.65Y-5.85
X9.75Y-5.85
X3.9Y-2.825
X3.9Y-3.125
X4.0Y-2.825
X4.0Y-3.125
X4.1Y-2.825
X4.1Y-3.125
X4.2Y-2.825
X4.2Y-3.125
X4.3Y-2.825
X4.3Y-3.125
X4.4Y-2.825
X4.4Y-3.125
X4.5Y-2.825
X4.5Y-3.125
X4.6Y-2.825
X4.6Y-3.125
X4.7Y-2.825
X4.7Y-3.125
X4.8Y-2.825
X4.8Y-3.125
X1.425Y-4.825
X1.425Y-5.125
X1.525Y-4.825
X1.525Y-5.125
X1.625Y-4.825
X1.625Y-5.125
X1.725Y-4.825
X1.725Y-5.125
X1.825Y-4.825
X1.825Y-5.125
X1.925Y-4.825
X1.925Y-5.125
X2.025Y-4.825
X2.025Y-5.125
X6.5Y-3.7
X6.5Y-4.0
X6.6Y-3.7
X6.6Y-4.0
X6.7Y-3.7
X6.7Y-4.0
X6.8Y-3.7
X6.8Y-4.0
X6.9Y-3.7
X6.9Y-4.0
X7.0Y-3.7
X7.0Y-4.0
X7.1Y-3.7
X7.1Y-4.0
X7.2Y-3.7
X7.2Y-4.0
X4.9Y-2.01
X4.9Y-2.0887
X2.475Y-2.5
X2.475Y-2.8
X2.575Y-2.5
X2.575Y-2.8
X2.675Y-2.5
X2.675Y-2.8
X2.775Y-2.5
X2.775Y-2.8
X2.875Y-2.5
X2.875Y-2.8
X2.975Y-2.5
X2.975Y-2.8
X3.075Y-2.5
X3.075Y-2.8
X5.375Y-2.5
X5.375Y-2.6
X5.375Y-2.7
X5.375Y-2.8
X5.375Y-2.9
X5.375Y-3.0
X5.375Y-3.1
X5.375Y-3.2
X5.675Y-2.5
X5.675Y-2.6
X5.675Y-2.7
X5.675Y-2.8
X5.675Y-2.9
X5.675Y-3.0
X5.675Y-3.1
X5.675Y-3.2
X6.775Y-2.2
X6.9719Y-2.2
X6.275Y-3.15
X6.275Y-3.3469
X7.6Y-2.55
X7.6Y-2.7469
X2.475Y-4.825
X2.475Y-5.125
X2.575Y-4.825
X2.575Y-5.125
X2.675Y-4.825
X2.675Y-5.125
X2.775Y-4.825
X2.775Y-5.125
X2.875Y-4.825
X2.875Y-5.125
X2.975Y-4.825
X2.975Y-5.125
X3.075Y-4.825
X3.075Y-5.125
X9.825Y-4.225
X10.0171Y-4.225
X6.65Y-4.825
X6.65Y-5.125
X6.75Y-4.825
X6.75Y-5.125
X6.85Y-4.825
X6.85Y-5.125
X6.95Y-4.825
X6.95Y-5.125
X7.05Y-4.825
X7.05Y-5.125
X7.15Y-4.825
X7.15Y-5.125
X7.25Y-4.825
X7.25Y-5.125
X9.425Y-4.225
X9.6219Y-4.225
X7.475Y-4.875
X7.475Y-5.0719
X7.825Y-3.7
X7.825Y-4.0
X7.925Y-3.7
X7.925Y-4.0
X8.025Y-3.7
X8.025Y-4.0
X8.125Y-3.7
X8.125Y-4.0
X8.225Y-3.7
X8.225Y-4.0
X8.325Y-3.7
X8.325Y-4.0
X8.425Y-3.7
X8.425Y-4.0
X6.275Y-3.75
X6.275Y-3.9469
X7.6Y-3.75
X7.6Y-3.9469
X4.9Y-5.85
X5.0Y-5.85
X5.1Y-5.85
X5.2Y-5.85
X5.3Y-5.85
X5.4Y-5.85
X5.5Y-5.85
X5.6Y-5.85
X5.7Y-5.85
X7.7Y-4.825
X7.7Y-5.125
X7.8Y-4.825
X7.8Y-5.125
X7.9Y-4.825
X7.9Y-5.125
X8.0Y-4.825
X8.0Y-5.125
X8.1Y-4.825
X8.1Y-5.125
X8.2Y-4.825
X8.2Y-5.125
X8.3Y-4.825
X8.3Y-5.125
X3.525Y-4.825
X3.525Y-5.125
X3.625Y-4.825
X3.625Y-5.125
X3.725Y-4.825
X3.725Y-5.125
X3.825Y-4.825
X3.825Y-5.125
X3.925Y-4.825
X3.925Y-5.125
X4.025Y-4.825
X4.025Y-5.125
X4.125Y-4.825
X4.125Y-5.125
X1.2Y-2.55
X1.2Y-2.7469
X1.425Y-2.5
X1.425Y-2.8
X1.525Y-2.5
X1.525Y-2.8
X1.625Y-2.5
X1.625Y-2.8
X1.725Y-2.5
X1.725Y-2.8
X1.825Y-2.5
X1.825Y-2.8
X1.925Y-2.5
X1.925Y-2.8
X2.025Y-2.5
X2.025Y-2.8
X8.525Y-4.875
X8.525Y-5.0719
X7.875Y-1.7
X7.875Y-1.8
X7.875Y-1.9
X7.875Y-2.0
X8.175Y-1.7
X8.175Y-1.8
X8.175Y-1.9
X8.175Y-2.0
T7
X6.07Y-5.45
X6.07Y-5.55
X3.15Y-1.5
X3.25Y-1.5
X5.56Y-5.45
X5.56Y-5.55
X6.925Y-4.25
X6.925Y-4.35
X6.24Y-5.45
X6.24Y-5.55
X5.9Y-5.45
X5.9Y-5.55
X7.6Y-4.25
X7.6Y-4.35
X6.275Y-4.25
X6.275Y-4.35
X3.15Y-2.1
X3.25Y-2.1
X8.25Y-4.25
X8.25Y-4.35
X5.73Y-5.4491
X5.73Y-5.5491
T8
X8.875Y-3.525
X8.975Y-3.525
X9.375Y-3.175
X9.475Y-3.175
X9.575Y-3.175
X9.675Y-3.175
X9.775Y-3.175
X9.875Y-3.175
X9.975Y-3.175
X10.075Y-3.175
X8.875Y-4.175
X8.875Y-4.275
X8.875Y-4.375
X8.975Y-4.175
X8.975Y-4.275
X8.975Y-4.375
T9
X2.075Y-2.15
X2.175Y-2.15
X2.275Y-2.15
X5.4691Y-1.7378
X5.4691Y-1.915
X5.725Y-1.7378
X5.725Y-1.915
T10
X4.425Y-3.4386
X4.425Y-3.7614
T11
X10.525Y-1.4
X1.125Y-6.1
X10.525Y-6.1
X1.125Y-1.4
T8
G00X1.3638Y-1.7606
M15
G01X1.3638Y-1.8394
M16
G05
G00X1.4425Y-1.985
M15
G01X1.5213Y-1.985
M16
G05
G00X1.6Y-1.7606
M15
G01X1.6Y-1.8394
M16
G05
T0
M30
