M48
; DRILL file {KiCad (5.1.4)-1} date 16/5/2563 15:18:11
; FORMAT={-:-/ absolute / inch / decimal}
; #@! TF.CreationDate,2020-05-16T15:18:11+07:00
; #@! TF.GenerationSoftware,Kicad,Pcbnew,(5.1.4)-1
; #@! TF.FileFunction,Plated,1,2,PTH
FMAT,2
INCH
T1C0.0120
T2C0.0157
T3C0.0236
T4C0.0272
T5C0.0276
T6C0.0315
T7C0.0354
T8C0.0394
T9C0.0433
T10C0.0591
T11C0.0866
%
G90
G05
T1
X1.825Y-3.275
X2.25Y-2.65
X2.525Y-2.65
X2.775Y-4.05
X2.825Y-4.05
X2.875Y-4.05
X2.925Y-4.05
X3.075Y-4.65
X3.15Y-4.3
X4.9Y-3.3
X5.3Y-4.0
X5.3Y-4.1
X5.3Y-4.2
X5.3Y-4.3
X5.475Y-3.05
X5.475Y-4.45
X5.5Y-2.95
X5.525Y-2.85
X5.7Y-3.35
X5.8Y-4.5
X5.85Y-4.55
X5.975Y-4.45
X5.975Y-4.5
X5.975Y-4.55
X6.2Y-4.7
X6.2Y-4.975
X6.2Y-4.975
X6.8Y-3.25
X6.85Y-2.925
X6.85Y-3.025
X6.9Y-3.25
X6.95Y-2.375
X7.0Y-2.35
X7.05Y-2.325
X7.05Y-3.85
X7.075Y-4.1
X7.1Y-2.675
X7.225Y-3.525
X7.225Y-4.65
X7.225Y-4.975
X7.2592Y-3.0408
X7.325Y-3.775
X7.45Y-4.1
X7.525Y-3.5
X7.65Y-2.375
X7.7Y-2.35
X7.75Y-2.325
X7.875Y-3.275
X7.925Y-4.1
X7.975Y-3.5
X7.975Y-3.55
X8.275Y-3.275
X8.275Y-4.975
X9.25Y-4.75
X9.325Y-4.975
X9.375Y-4.65
T2
X2.025Y-5.025
X3.075Y-5.025
X4.125Y-5.025
X5.125Y-2.45
X5.125Y-3.425
X5.175Y-5.025
X6.075Y-2.225
X7.385Y-2.125
X7.385Y-2.55
X7.385Y-2.93
X7.385Y-3.46
X7.385Y-3.75
X7.385Y-4.15
T3
X3.425Y-1.75
X3.425Y-1.8
X3.425Y-1.85
X5.2Y-1.55
X5.2Y-1.6
X5.2Y-1.65
T4
X6.161Y-1.825
X6.261Y-1.725
X6.261Y-1.925
T5
X7.725Y-1.7
X7.725Y-1.8
X6.45Y-4.25
X6.45Y-4.35
X4.9Y-1.525
X4.9Y-1.825
X7.725Y-1.9
X7.725Y-2.0
X1.85Y-1.425
X1.85Y-1.725
X7.775Y-4.25
X7.775Y-4.35
X3.675Y-2.825
X3.675Y-3.125
X5.2Y-1.825
X5.2Y-2.125
X10.025Y-3.475
X10.025Y-3.575
X3.4Y-1.5
X3.7Y-1.5
X3.675Y-4.05
X3.675Y-4.35
X8.425Y-4.25
X8.425Y-4.35
X7.1Y-4.25
X7.1Y-4.35
X10.225Y-3.475
X10.225Y-3.575
X5.9Y-5.75
X5.9Y-5.85
X6.55Y-1.675
X6.55Y-1.775
X8.85Y-3.7
X8.85Y-4.0
X3.4Y-2.1
X3.7Y-2.1
T6
X3.9Y-2.825
X3.9Y-3.125
X4.0Y-2.825
X4.0Y-3.125
X4.1Y-2.825
X4.1Y-3.125
X4.2Y-2.825
X4.2Y-3.125
X4.3Y-2.825
X4.3Y-3.125
X4.4Y-2.825
X4.4Y-3.125
X4.5Y-2.825
X4.5Y-3.125
X4.6Y-2.825
X4.6Y-3.125
X4.7Y-2.825
X4.7Y-3.125
X4.8Y-2.825
X4.8Y-3.125
X5.6Y-4.825
X5.6Y-5.125
X5.7Y-4.825
X5.7Y-5.125
X5.8Y-4.825
X5.8Y-5.125
X5.9Y-4.825
X5.9Y-5.125
X6.0Y-4.825
X6.0Y-5.125
X6.1Y-4.825
X6.1Y-5.125
X6.2Y-4.825
X6.2Y-5.125
X9.1281Y-4.225
X9.325Y-4.225
X6.625Y-4.825
X6.625Y-5.125
X6.725Y-4.825
X6.725Y-5.125
X6.825Y-4.825
X6.825Y-5.125
X6.925Y-4.825
X6.925Y-5.125
X7.025Y-4.825
X7.025Y-5.125
X7.125Y-4.825
X7.125Y-5.125
X7.225Y-4.825
X7.225Y-5.125
X5.425Y-3.425
X5.6219Y-3.425
X8.45Y-1.6516
X8.45Y-1.75
X5.4Y-4.9
X5.4Y-5.0969
X7.675Y-4.825
X7.675Y-5.125
X7.775Y-4.825
X7.775Y-5.125
X7.875Y-4.825
X7.875Y-5.125
X7.975Y-4.825
X7.975Y-5.125
X8.075Y-4.825
X8.075Y-5.125
X8.175Y-4.825
X8.175Y-5.125
X8.275Y-4.825
X8.275Y-5.125
X8.95Y-5.85
X9.05Y-5.85
X9.15Y-5.85
X9.25Y-5.85
X9.35Y-5.85
X9.45Y-5.85
X9.55Y-5.85
X9.65Y-5.85
X9.75Y-5.85
X4.9Y-2.0113
X4.9Y-2.09
X3.675Y-1.75
X3.675Y-1.8484
X1.2Y-4.875
X1.2Y-5.0719
X3.0Y-5.85
X3.1Y-5.85
X3.2Y-5.85
X3.3Y-5.85
X3.4Y-5.85
X3.5Y-5.85
X3.6Y-5.85
X3.7Y-5.85
X3.8Y-5.85
X7.6Y-2.55
X7.6Y-2.7469
X2.475Y-2.5
X2.475Y-2.8
X2.575Y-2.5
X2.575Y-2.8
X2.675Y-2.5
X2.675Y-2.8
X2.775Y-2.5
X2.775Y-2.8
X2.875Y-2.5
X2.875Y-2.8
X2.975Y-2.5
X2.975Y-2.8
X3.075Y-2.5
X3.075Y-2.8
X3.15Y-1.75
X3.15Y-1.8484
X7.6Y-3.75
X7.6Y-3.9469
X6.725Y-1.7
X6.725Y-1.8
X6.725Y-1.9
X6.725Y-2.0
X7.025Y-1.7
X7.025Y-1.8
X7.025Y-1.9
X7.025Y-2.0
X3.475Y-4.1
X3.475Y-4.2969
X8.6Y-5.352
X8.6Y-5.648
X8.7Y-5.352
X8.7Y-5.648
X8.8Y-5.352
X8.8Y-5.648
X8.9Y-5.352
X8.9Y-5.648
X9.0Y-5.352
X9.0Y-5.648
X9.1Y-5.352
X9.1Y-5.648
X9.2Y-5.352
X9.2Y-5.648
X9.3Y-5.352
X9.3Y-5.648
X7.925Y-2.2
X8.1219Y-2.2
X1.85Y-1.85
X1.85Y-2.15
X4.425Y-3.5213
X4.425Y-3.6
X4.425Y-3.6787
X8.725Y-4.825
X8.725Y-5.125
X8.825Y-4.825
X8.825Y-5.125
X8.925Y-4.825
X8.925Y-5.125
X9.025Y-4.825
X9.025Y-5.125
X9.125Y-4.825
X9.125Y-5.125
X9.225Y-4.825
X9.225Y-5.125
X9.325Y-4.825
X9.325Y-5.125
X1.825Y-3.85
X1.925Y-3.85
X2.025Y-3.85
X2.125Y-3.85
X2.225Y-3.85
X2.325Y-3.85
X2.425Y-3.85
X2.525Y-3.85
X2.625Y-3.85
X6.83Y-1.53
X6.9284Y-1.53
X9.6781Y-3.525
X9.875Y-3.525
X8.5Y-4.875
X8.5Y-5.0719
X2.05Y-5.85
X2.15Y-5.85
X2.25Y-5.85
X2.35Y-5.85
X2.45Y-5.85
X2.55Y-5.85
X2.65Y-5.85
X2.75Y-5.85
X2.85Y-5.85
X8.0Y-5.85
X8.1Y-5.85
X8.2Y-5.85
X8.3Y-5.85
X8.4Y-5.85
X8.5Y-5.85
X8.6Y-5.85
X8.7Y-5.85
X8.8Y-5.85
X1.825Y-4.05
X1.825Y-4.35
X1.925Y-4.05
X1.925Y-4.35
X2.025Y-4.05
X2.025Y-4.35
X2.125Y-4.05
X2.125Y-4.35
X2.225Y-4.05
X2.225Y-4.35
X2.325Y-4.05
X2.325Y-4.35
X2.425Y-4.05
X2.425Y-4.35
X2.525Y-4.05
X2.525Y-4.35
X6.4Y-4.875
X6.4Y-5.0719
X3.95Y-5.85
X4.05Y-5.85
X4.15Y-5.85
X4.25Y-5.85
X4.35Y-5.85
X4.45Y-5.85
X4.55Y-5.85
X4.65Y-5.85
X4.75Y-5.85
X1.425Y-4.825
X1.425Y-5.125
X1.525Y-4.825
X1.525Y-5.125
X1.625Y-4.825
X1.625Y-5.125
X1.725Y-4.825
X1.725Y-5.125
X1.825Y-4.825
X1.825Y-5.125
X1.925Y-4.825
X1.925Y-5.125
X2.025Y-4.825
X2.025Y-5.125
X6.775Y-2.2
X6.9719Y-2.2
X2.475Y-4.825
X2.475Y-5.125
X2.575Y-4.825
X2.575Y-5.125
X2.675Y-4.825
X2.675Y-5.125
X2.775Y-4.825
X2.775Y-5.125
X2.875Y-4.825
X2.875Y-5.125
X2.975Y-4.825
X2.975Y-5.125
X3.075Y-4.825
X3.075Y-5.125
X3.3Y-4.875
X3.3Y-5.0719
X7.5Y-3.15
X7.5Y-3.3469
X5.375Y-3.65
X5.375Y-3.75
X5.375Y-3.85
X5.375Y-3.95
X5.375Y-4.05
X5.375Y-4.15
X5.375Y-4.25
X5.375Y-4.35
X5.675Y-3.65
X5.675Y-3.75
X5.675Y-3.85
X5.675Y-3.95
X5.675Y-4.05
X5.675Y-4.15
X5.675Y-4.25
X5.675Y-4.35
X9.55Y-4.875
X9.55Y-5.0719
X6.275Y-2.55
X6.275Y-2.7469
X6.275Y-3.75
X6.275Y-3.9469
X2.25Y-2.55
X2.25Y-2.7469
X9.825Y-4.225
X10.0171Y-4.225
X2.5Y-5.352
X2.5Y-5.648
X2.6Y-5.352
X2.6Y-5.648
X2.7Y-5.352
X2.7Y-5.648
X2.8Y-5.352
X2.8Y-5.648
X2.9Y-5.352
X2.9Y-5.648
X3.0Y-5.352
X3.0Y-5.648
X3.1Y-5.352
X3.1Y-5.648
X3.2Y-5.352
X3.2Y-5.648
X5.425Y-4.575
X5.6219Y-4.575
X7.0Y-5.352
X7.0Y-5.648
X7.1Y-5.352
X7.1Y-5.648
X7.2Y-5.352
X7.2Y-5.648
X7.3Y-5.352
X7.3Y-5.648
X7.4Y-5.352
X7.4Y-5.648
X7.5Y-5.352
X7.5Y-5.648
X7.6Y-5.352
X7.6Y-5.648
X7.7Y-5.352
X7.7Y-5.648
X7.8Y-5.352
X7.8Y-5.648
X7.9Y-5.352
X7.9Y-5.648
X8.0Y-5.352
X8.0Y-5.648
X8.1Y-5.352
X8.1Y-5.648
X8.2Y-5.352
X8.2Y-5.648
X8.3Y-5.352
X8.3Y-5.648
X8.4Y-5.352
X8.4Y-5.648
X8.5Y-5.352
X8.5Y-5.648
X2.25Y-4.875
X2.25Y-5.0719
X10.225Y-4.225
X10.3234Y-4.225
X9.775Y-4.825
X9.775Y-5.125
X9.875Y-4.825
X9.875Y-5.125
X9.975Y-4.825
X9.975Y-5.125
X10.075Y-4.825
X10.075Y-5.125
X10.175Y-4.825
X10.175Y-5.125
X10.275Y-4.825
X10.275Y-5.125
X10.375Y-4.825
X10.375Y-5.125
X1.425Y-2.5
X1.425Y-2.8
X1.525Y-2.5
X1.525Y-2.8
X1.625Y-2.5
X1.625Y-2.8
X1.725Y-2.5
X1.725Y-2.8
X1.825Y-2.5
X1.825Y-2.8
X1.925Y-2.5
X1.925Y-2.8
X2.025Y-2.5
X2.025Y-2.8
X4.575Y-4.825
X4.575Y-5.125
X4.675Y-4.825
X4.675Y-5.125
X4.775Y-4.825
X4.775Y-5.125
X4.875Y-4.825
X4.875Y-5.125
X4.975Y-4.825
X4.975Y-5.125
X5.075Y-4.825
X5.075Y-5.125
X5.175Y-4.825
X5.175Y-5.125
X7.45Y-4.875
X7.45Y-5.0719
X7.825Y-2.5
X7.825Y-2.8
X7.925Y-2.5
X7.925Y-2.8
X8.025Y-2.5
X8.025Y-2.8
X8.125Y-2.5
X8.125Y-2.8
X8.225Y-2.5
X8.225Y-2.8
X8.325Y-2.5
X8.325Y-2.8
X8.425Y-2.5
X8.425Y-2.8
X3.475Y-2.875
X3.475Y-3.0719
X6.5Y-3.7
X6.5Y-4.0
X6.6Y-3.7
X6.6Y-4.0
X6.7Y-3.7
X6.7Y-4.0
X6.8Y-3.7
X6.8Y-4.0
X6.9Y-3.7
X6.9Y-4.0
X7.0Y-3.7
X7.0Y-4.0
X7.1Y-3.7
X7.1Y-4.0
X7.2Y-3.7
X7.2Y-4.0
X3.9Y-4.05
X3.9Y-4.35
X4.0Y-4.05
X4.0Y-4.35
X4.1Y-4.05
X4.1Y-4.35
X4.2Y-4.05
X4.2Y-4.35
X4.3Y-4.05
X4.3Y-4.35
X4.4Y-4.05
X4.4Y-4.35
X4.5Y-4.05
X4.5Y-4.35
X4.6Y-4.05
X4.6Y-4.35
X4.7Y-4.05
X4.7Y-4.35
X4.8Y-4.05
X4.8Y-4.35
X4.35Y-4.875
X4.35Y-5.0719
X3.525Y-4.825
X3.525Y-5.125
X3.625Y-4.825
X3.625Y-5.125
X3.725Y-4.825
X3.725Y-5.125
X3.825Y-4.825
X3.825Y-5.125
X3.925Y-4.825
X3.925Y-5.125
X4.025Y-4.825
X4.025Y-5.125
X4.125Y-4.825
X4.125Y-5.125
X1.2Y-3.15
X1.2Y-3.3469
X7.875Y-1.7
X7.875Y-1.8
X7.875Y-1.9
X7.875Y-2.0
X8.175Y-1.7
X8.175Y-1.8
X8.175Y-1.9
X8.175Y-2.0
X6.2Y-5.352
X6.2Y-5.648
X6.3Y-5.352
X6.3Y-5.648
X6.4Y-5.352
X6.4Y-5.648
X6.5Y-5.352
X6.5Y-5.648
X6.6Y-5.352
X6.6Y-5.648
X6.7Y-5.352
X6.7Y-5.648
X6.8Y-5.352
X6.8Y-5.648
X6.9Y-5.352
X6.9Y-5.648
X9.525Y-4.225
X9.6234Y-4.225
X6.1Y-5.85
X6.2Y-5.85
X6.3Y-5.85
X6.4Y-5.85
X6.5Y-5.85
X6.6Y-5.85
X6.7Y-5.85
X6.8Y-5.85
X6.9Y-5.85
X6.275Y-3.15
X6.275Y-3.3469
X9.075Y-3.7
X9.075Y-4.0
X9.175Y-3.7
X9.175Y-4.0
X9.275Y-3.7
X9.275Y-4.0
X9.375Y-3.7
X9.375Y-4.0
X9.475Y-3.7
X9.475Y-4.0
X9.575Y-3.7
X9.575Y-4.0
X9.675Y-3.7
X9.675Y-4.0
X9.775Y-3.7
X9.775Y-4.0
X9.875Y-3.7
X9.875Y-4.0
X9.975Y-3.7
X9.975Y-4.0
X10.075Y-3.7
X10.075Y-4.0
X10.175Y-3.7
X10.175Y-4.0
X10.275Y-3.7
X10.275Y-4.0
X10.375Y-3.7
X10.375Y-4.0
X7.825Y-3.7
X7.825Y-4.0
X7.925Y-3.7
X7.925Y-4.0
X8.025Y-3.7
X8.025Y-4.0
X8.125Y-3.7
X8.125Y-4.0
X8.225Y-3.7
X8.225Y-4.0
X8.325Y-3.7
X8.325Y-4.0
X8.425Y-3.7
X8.425Y-4.0
X4.1Y-5.352
X4.1Y-5.648
X4.2Y-5.352
X4.2Y-5.648
X4.3Y-5.352
X4.3Y-5.648
X4.4Y-5.352
X4.4Y-5.648
X4.5Y-5.352
X4.5Y-5.648
X4.6Y-5.352
X4.6Y-5.648
X4.7Y-5.352
X4.7Y-5.648
X4.8Y-5.352
X4.8Y-5.648
X7.3Y-1.6516
X7.3Y-1.75
X5.375Y-2.5
X5.375Y-2.6
X5.375Y-2.7
X5.375Y-2.8
X5.375Y-2.9
X5.375Y-3.0
X5.375Y-3.1
X5.375Y-3.2
X5.675Y-2.5
X5.675Y-2.6
X5.675Y-2.7
X5.675Y-2.8
X5.675Y-2.9
X5.675Y-3.0
X5.675Y-3.1
X5.675Y-3.2
X2.25Y-3.15
X2.25Y-3.3469
X6.5Y-2.5
X6.5Y-2.8
X6.6Y-2.5
X6.6Y-2.8
X6.7Y-2.5
X6.7Y-2.8
X6.8Y-2.5
X6.8Y-2.8
X6.9Y-2.5
X6.9Y-2.8
X7.0Y-2.5
X7.0Y-2.8
X7.1Y-2.5
X7.1Y-2.8
X7.2Y-2.5
X7.2Y-2.8
X6.5Y-3.1
X6.5Y-3.4
X6.6Y-3.1
X6.6Y-3.4
X6.7Y-3.1
X6.7Y-3.4
X6.8Y-3.1
X6.8Y-3.4
X6.9Y-3.1
X6.9Y-3.4
X7.0Y-3.1
X7.0Y-3.4
X7.1Y-3.1
X7.1Y-3.4
X7.05Y-5.85
X7.15Y-5.85
X7.25Y-5.85
X7.35Y-5.85
X7.45Y-5.85
X7.55Y-5.85
X7.65Y-5.85
X7.75Y-5.85
X7.85Y-5.85
X4.9Y-5.352
X4.9Y-5.648
X5.0Y-5.352
X5.0Y-5.648
X5.1Y-5.352
X5.1Y-5.648
X5.2Y-5.352
X5.2Y-5.648
X5.3Y-5.352
X5.3Y-5.648
X5.4Y-5.352
X5.4Y-5.648
X5.5Y-5.352
X5.5Y-5.648
X5.6Y-5.352
X5.6Y-5.648
X1.2Y-2.55
X1.2Y-2.7469
X3.3Y-5.352
X3.3Y-5.648
X3.4Y-5.352
X3.4Y-5.648
X3.5Y-5.352
X3.5Y-5.648
X3.6Y-5.352
X3.6Y-5.648
X3.7Y-5.352
X3.7Y-5.648
X3.8Y-5.352
X3.8Y-5.648
X3.9Y-5.352
X3.9Y-5.648
X4.0Y-5.352
X4.0Y-5.648
X2.475Y-3.1
X2.475Y-3.4
X2.575Y-3.1
X2.575Y-3.4
X2.675Y-3.1
X2.675Y-3.4
X2.775Y-3.1
X2.775Y-3.4
X2.875Y-3.1
X2.875Y-3.4
X2.975Y-3.1
X2.975Y-3.4
X3.075Y-3.1
X3.075Y-3.4
X4.9Y-5.85
X5.0Y-5.85
X5.1Y-5.85
X5.2Y-5.85
X5.3Y-5.85
X5.4Y-5.85
X5.5Y-5.85
X5.6Y-5.85
X5.7Y-5.85
X7.98Y-1.53
X8.0784Y-1.53
X7.725Y-3.1
X7.725Y-3.4
X7.825Y-3.1
X7.825Y-3.4
X7.925Y-3.1
X7.925Y-3.4
X8.025Y-3.1
X8.025Y-3.4
X8.125Y-3.1
X8.125Y-3.4
X8.225Y-3.1
X8.225Y-3.4
X8.325Y-3.1
X8.325Y-3.4
X8.425Y-3.1
X8.425Y-3.4
X1.425Y-3.1
X1.425Y-3.4
X1.525Y-3.1
X1.525Y-3.4
X1.625Y-3.1
X1.625Y-3.4
X1.725Y-3.1
X1.725Y-3.4
X1.825Y-3.1
X1.825Y-3.4
X1.925Y-3.1
X1.925Y-3.4
X2.025Y-3.1
X2.025Y-3.4
T7
X6.275Y-4.25
X6.275Y-4.35
X3.15Y-1.5
X3.25Y-1.5
X8.25Y-4.2476
X8.25Y-4.3476
X5.9Y-5.45
X5.9Y-5.55
X3.15Y-2.1
X3.25Y-2.1
X7.6Y-4.25
X7.6Y-4.35
X6.925Y-4.25
X6.925Y-4.35
T8
X2.675Y-1.7
X2.675Y-1.8969
X8.875Y-4.175
X8.875Y-4.275
X8.875Y-4.375
X8.975Y-4.175
X8.975Y-4.275
X8.975Y-4.375
X8.875Y-3.525
X8.975Y-3.525
X9.375Y-3.175
X9.475Y-3.175
X9.575Y-3.175
X9.675Y-3.175
X9.775Y-3.175
X9.875Y-3.175
X9.975Y-3.175
X10.075Y-3.175
X2.075Y-2.15
X2.175Y-2.15
X2.275Y-2.15
T9
X5.4691Y-1.7368
X5.4691Y-1.914
X5.725Y-1.7368
X5.725Y-1.914
T10
X4.425Y-3.4386
X4.425Y-3.7614
T11
X1.125Y-1.4
X1.125Y-6.1
X10.525Y-1.4
X10.525Y-6.1
T8
G00X1.3638Y-1.7606
M15
G01X1.3638Y-1.8394
M16
G05
G00X1.4425Y-1.985
M15
G01X1.5213Y-1.985
M16
G05
G00X1.6Y-1.7606
M15
G01X1.6Y-1.8394
M16
G05
T0
M30
