G04 #@! TF.GenerationSoftware,KiCad,Pcbnew,(5.1.6)-1*
G04 #@! TF.CreationDate,2020-09-12T17:38:00+07:00*
G04 #@! TF.ProjectId,automata_smd,6175746f-6d61-4746-915f-736d642e6b69,3*
G04 #@! TF.SameCoordinates,Original*
G04 #@! TF.FileFunction,Soldermask,Top*
G04 #@! TF.FilePolarity,Negative*
%FSLAX46Y46*%
G04 Gerber Fmt 4.6, Leading zero omitted, Abs format (unit mm)*
G04 Created by KiCad (PCBNEW (5.1.6)-1) date 2020-09-12 17:38:00*
%MOMM*%
%LPD*%
G01*
G04 APERTURE LIST*
%ADD10R,2.400000X2.000000*%
%ADD11R,2.000000X1.500000*%
%ADD12R,2.000000X3.800000*%
%ADD13R,0.650000X1.060000*%
%ADD14O,1.600000X1.600000*%
%ADD15R,1.600000X1.600000*%
%ADD16C,2.000000*%
%ADD17R,0.800000X0.900000*%
%ADD18O,1.700000X1.700000*%
%ADD19R,1.700000X1.700000*%
%ADD20R,3.500000X3.500000*%
%ADD21C,1.600000*%
%ADD22C,1.120000*%
%ADD23R,1.300000X1.700000*%
%ADD24R,1.600000X0.550000*%
%ADD25R,0.550000X1.600000*%
%ADD26C,2.250000*%
%ADD27C,1.300000*%
G04 APERTURE END LIST*
G36*
G01*
X57497000Y-116133000D02*
X57497000Y-115933000D01*
G75*
G02*
X57597000Y-115833000I100000J0D01*
G01*
X58872000Y-115833000D01*
G75*
G02*
X58972000Y-115933000I0J-100000D01*
G01*
X58972000Y-116133000D01*
G75*
G02*
X58872000Y-116233000I-100000J0D01*
G01*
X57597000Y-116233000D01*
G75*
G02*
X57497000Y-116133000I0J100000D01*
G01*
G37*
G36*
G01*
X57497000Y-116783000D02*
X57497000Y-116583000D01*
G75*
G02*
X57597000Y-116483000I100000J0D01*
G01*
X58872000Y-116483000D01*
G75*
G02*
X58972000Y-116583000I0J-100000D01*
G01*
X58972000Y-116783000D01*
G75*
G02*
X58872000Y-116883000I-100000J0D01*
G01*
X57597000Y-116883000D01*
G75*
G02*
X57497000Y-116783000I0J100000D01*
G01*
G37*
G36*
G01*
X57497000Y-117433000D02*
X57497000Y-117233000D01*
G75*
G02*
X57597000Y-117133000I100000J0D01*
G01*
X58872000Y-117133000D01*
G75*
G02*
X58972000Y-117233000I0J-100000D01*
G01*
X58972000Y-117433000D01*
G75*
G02*
X58872000Y-117533000I-100000J0D01*
G01*
X57597000Y-117533000D01*
G75*
G02*
X57497000Y-117433000I0J100000D01*
G01*
G37*
G36*
G01*
X57497000Y-118083000D02*
X57497000Y-117883000D01*
G75*
G02*
X57597000Y-117783000I100000J0D01*
G01*
X58872000Y-117783000D01*
G75*
G02*
X58972000Y-117883000I0J-100000D01*
G01*
X58972000Y-118083000D01*
G75*
G02*
X58872000Y-118183000I-100000J0D01*
G01*
X57597000Y-118183000D01*
G75*
G02*
X57497000Y-118083000I0J100000D01*
G01*
G37*
G36*
G01*
X57497000Y-118733000D02*
X57497000Y-118533000D01*
G75*
G02*
X57597000Y-118433000I100000J0D01*
G01*
X58872000Y-118433000D01*
G75*
G02*
X58972000Y-118533000I0J-100000D01*
G01*
X58972000Y-118733000D01*
G75*
G02*
X58872000Y-118833000I-100000J0D01*
G01*
X57597000Y-118833000D01*
G75*
G02*
X57497000Y-118733000I0J100000D01*
G01*
G37*
G36*
G01*
X57497000Y-119383000D02*
X57497000Y-119183000D01*
G75*
G02*
X57597000Y-119083000I100000J0D01*
G01*
X58872000Y-119083000D01*
G75*
G02*
X58972000Y-119183000I0J-100000D01*
G01*
X58972000Y-119383000D01*
G75*
G02*
X58872000Y-119483000I-100000J0D01*
G01*
X57597000Y-119483000D01*
G75*
G02*
X57497000Y-119383000I0J100000D01*
G01*
G37*
G36*
G01*
X57497000Y-120033000D02*
X57497000Y-119833000D01*
G75*
G02*
X57597000Y-119733000I100000J0D01*
G01*
X58872000Y-119733000D01*
G75*
G02*
X58972000Y-119833000I0J-100000D01*
G01*
X58972000Y-120033000D01*
G75*
G02*
X58872000Y-120133000I-100000J0D01*
G01*
X57597000Y-120133000D01*
G75*
G02*
X57497000Y-120033000I0J100000D01*
G01*
G37*
G36*
G01*
X51772000Y-120033000D02*
X51772000Y-119833000D01*
G75*
G02*
X51872000Y-119733000I100000J0D01*
G01*
X53147000Y-119733000D01*
G75*
G02*
X53247000Y-119833000I0J-100000D01*
G01*
X53247000Y-120033000D01*
G75*
G02*
X53147000Y-120133000I-100000J0D01*
G01*
X51872000Y-120133000D01*
G75*
G02*
X51772000Y-120033000I0J100000D01*
G01*
G37*
G36*
G01*
X51772000Y-119383000D02*
X51772000Y-119183000D01*
G75*
G02*
X51872000Y-119083000I100000J0D01*
G01*
X53147000Y-119083000D01*
G75*
G02*
X53247000Y-119183000I0J-100000D01*
G01*
X53247000Y-119383000D01*
G75*
G02*
X53147000Y-119483000I-100000J0D01*
G01*
X51872000Y-119483000D01*
G75*
G02*
X51772000Y-119383000I0J100000D01*
G01*
G37*
G36*
G01*
X51772000Y-118733000D02*
X51772000Y-118533000D01*
G75*
G02*
X51872000Y-118433000I100000J0D01*
G01*
X53147000Y-118433000D01*
G75*
G02*
X53247000Y-118533000I0J-100000D01*
G01*
X53247000Y-118733000D01*
G75*
G02*
X53147000Y-118833000I-100000J0D01*
G01*
X51872000Y-118833000D01*
G75*
G02*
X51772000Y-118733000I0J100000D01*
G01*
G37*
G36*
G01*
X51772000Y-118083000D02*
X51772000Y-117883000D01*
G75*
G02*
X51872000Y-117783000I100000J0D01*
G01*
X53147000Y-117783000D01*
G75*
G02*
X53247000Y-117883000I0J-100000D01*
G01*
X53247000Y-118083000D01*
G75*
G02*
X53147000Y-118183000I-100000J0D01*
G01*
X51872000Y-118183000D01*
G75*
G02*
X51772000Y-118083000I0J100000D01*
G01*
G37*
G36*
G01*
X51772000Y-117433000D02*
X51772000Y-117233000D01*
G75*
G02*
X51872000Y-117133000I100000J0D01*
G01*
X53147000Y-117133000D01*
G75*
G02*
X53247000Y-117233000I0J-100000D01*
G01*
X53247000Y-117433000D01*
G75*
G02*
X53147000Y-117533000I-100000J0D01*
G01*
X51872000Y-117533000D01*
G75*
G02*
X51772000Y-117433000I0J100000D01*
G01*
G37*
G36*
G01*
X51772000Y-116783000D02*
X51772000Y-116583000D01*
G75*
G02*
X51872000Y-116483000I100000J0D01*
G01*
X53147000Y-116483000D01*
G75*
G02*
X53247000Y-116583000I0J-100000D01*
G01*
X53247000Y-116783000D01*
G75*
G02*
X53147000Y-116883000I-100000J0D01*
G01*
X51872000Y-116883000D01*
G75*
G02*
X51772000Y-116783000I0J100000D01*
G01*
G37*
G36*
G01*
X51772000Y-116133000D02*
X51772000Y-115933000D01*
G75*
G02*
X51872000Y-115833000I100000J0D01*
G01*
X53147000Y-115833000D01*
G75*
G02*
X53247000Y-115933000I0J-100000D01*
G01*
X53247000Y-116133000D01*
G75*
G02*
X53147000Y-116233000I-100000J0D01*
G01*
X51872000Y-116233000D01*
G75*
G02*
X51772000Y-116133000I0J100000D01*
G01*
G37*
D10*
X127254000Y-119452000D03*
X127254000Y-115752000D03*
D11*
X64287000Y-92124500D03*
X64287000Y-96724500D03*
X64287000Y-94424500D03*
D12*
X70587000Y-94424500D03*
G36*
G01*
X97375000Y-131627000D02*
X97375000Y-131427000D01*
G75*
G02*
X97475000Y-131327000I100000J0D01*
G01*
X98750000Y-131327000D01*
G75*
G02*
X98850000Y-131427000I0J-100000D01*
G01*
X98850000Y-131627000D01*
G75*
G02*
X98750000Y-131727000I-100000J0D01*
G01*
X97475000Y-131727000D01*
G75*
G02*
X97375000Y-131627000I0J100000D01*
G01*
G37*
G36*
G01*
X97375000Y-132277000D02*
X97375000Y-132077000D01*
G75*
G02*
X97475000Y-131977000I100000J0D01*
G01*
X98750000Y-131977000D01*
G75*
G02*
X98850000Y-132077000I0J-100000D01*
G01*
X98850000Y-132277000D01*
G75*
G02*
X98750000Y-132377000I-100000J0D01*
G01*
X97475000Y-132377000D01*
G75*
G02*
X97375000Y-132277000I0J100000D01*
G01*
G37*
G36*
G01*
X97375000Y-132927000D02*
X97375000Y-132727000D01*
G75*
G02*
X97475000Y-132627000I100000J0D01*
G01*
X98750000Y-132627000D01*
G75*
G02*
X98850000Y-132727000I0J-100000D01*
G01*
X98850000Y-132927000D01*
G75*
G02*
X98750000Y-133027000I-100000J0D01*
G01*
X97475000Y-133027000D01*
G75*
G02*
X97375000Y-132927000I0J100000D01*
G01*
G37*
G36*
G01*
X97375000Y-133577000D02*
X97375000Y-133377000D01*
G75*
G02*
X97475000Y-133277000I100000J0D01*
G01*
X98750000Y-133277000D01*
G75*
G02*
X98850000Y-133377000I0J-100000D01*
G01*
X98850000Y-133577000D01*
G75*
G02*
X98750000Y-133677000I-100000J0D01*
G01*
X97475000Y-133677000D01*
G75*
G02*
X97375000Y-133577000I0J100000D01*
G01*
G37*
G36*
G01*
X97375000Y-134227000D02*
X97375000Y-134027000D01*
G75*
G02*
X97475000Y-133927000I100000J0D01*
G01*
X98750000Y-133927000D01*
G75*
G02*
X98850000Y-134027000I0J-100000D01*
G01*
X98850000Y-134227000D01*
G75*
G02*
X98750000Y-134327000I-100000J0D01*
G01*
X97475000Y-134327000D01*
G75*
G02*
X97375000Y-134227000I0J100000D01*
G01*
G37*
G36*
G01*
X97375000Y-134877000D02*
X97375000Y-134677000D01*
G75*
G02*
X97475000Y-134577000I100000J0D01*
G01*
X98750000Y-134577000D01*
G75*
G02*
X98850000Y-134677000I0J-100000D01*
G01*
X98850000Y-134877000D01*
G75*
G02*
X98750000Y-134977000I-100000J0D01*
G01*
X97475000Y-134977000D01*
G75*
G02*
X97375000Y-134877000I0J100000D01*
G01*
G37*
G36*
G01*
X97375000Y-135527000D02*
X97375000Y-135327000D01*
G75*
G02*
X97475000Y-135227000I100000J0D01*
G01*
X98750000Y-135227000D01*
G75*
G02*
X98850000Y-135327000I0J-100000D01*
G01*
X98850000Y-135527000D01*
G75*
G02*
X98750000Y-135627000I-100000J0D01*
G01*
X97475000Y-135627000D01*
G75*
G02*
X97375000Y-135527000I0J100000D01*
G01*
G37*
G36*
G01*
X91650000Y-135527000D02*
X91650000Y-135327000D01*
G75*
G02*
X91750000Y-135227000I100000J0D01*
G01*
X93025000Y-135227000D01*
G75*
G02*
X93125000Y-135327000I0J-100000D01*
G01*
X93125000Y-135527000D01*
G75*
G02*
X93025000Y-135627000I-100000J0D01*
G01*
X91750000Y-135627000D01*
G75*
G02*
X91650000Y-135527000I0J100000D01*
G01*
G37*
G36*
G01*
X91650000Y-134877000D02*
X91650000Y-134677000D01*
G75*
G02*
X91750000Y-134577000I100000J0D01*
G01*
X93025000Y-134577000D01*
G75*
G02*
X93125000Y-134677000I0J-100000D01*
G01*
X93125000Y-134877000D01*
G75*
G02*
X93025000Y-134977000I-100000J0D01*
G01*
X91750000Y-134977000D01*
G75*
G02*
X91650000Y-134877000I0J100000D01*
G01*
G37*
G36*
G01*
X91650000Y-134227000D02*
X91650000Y-134027000D01*
G75*
G02*
X91750000Y-133927000I100000J0D01*
G01*
X93025000Y-133927000D01*
G75*
G02*
X93125000Y-134027000I0J-100000D01*
G01*
X93125000Y-134227000D01*
G75*
G02*
X93025000Y-134327000I-100000J0D01*
G01*
X91750000Y-134327000D01*
G75*
G02*
X91650000Y-134227000I0J100000D01*
G01*
G37*
G36*
G01*
X91650000Y-133577000D02*
X91650000Y-133377000D01*
G75*
G02*
X91750000Y-133277000I100000J0D01*
G01*
X93025000Y-133277000D01*
G75*
G02*
X93125000Y-133377000I0J-100000D01*
G01*
X93125000Y-133577000D01*
G75*
G02*
X93025000Y-133677000I-100000J0D01*
G01*
X91750000Y-133677000D01*
G75*
G02*
X91650000Y-133577000I0J100000D01*
G01*
G37*
G36*
G01*
X91650000Y-132927000D02*
X91650000Y-132727000D01*
G75*
G02*
X91750000Y-132627000I100000J0D01*
G01*
X93025000Y-132627000D01*
G75*
G02*
X93125000Y-132727000I0J-100000D01*
G01*
X93125000Y-132927000D01*
G75*
G02*
X93025000Y-133027000I-100000J0D01*
G01*
X91750000Y-133027000D01*
G75*
G02*
X91650000Y-132927000I0J100000D01*
G01*
G37*
G36*
G01*
X91650000Y-132277000D02*
X91650000Y-132077000D01*
G75*
G02*
X91750000Y-131977000I100000J0D01*
G01*
X93025000Y-131977000D01*
G75*
G02*
X93125000Y-132077000I0J-100000D01*
G01*
X93125000Y-132277000D01*
G75*
G02*
X93025000Y-132377000I-100000J0D01*
G01*
X91750000Y-132377000D01*
G75*
G02*
X91650000Y-132277000I0J100000D01*
G01*
G37*
G36*
G01*
X91650000Y-131627000D02*
X91650000Y-131427000D01*
G75*
G02*
X91750000Y-131327000I100000J0D01*
G01*
X93025000Y-131327000D01*
G75*
G02*
X93125000Y-131427000I0J-100000D01*
G01*
X93125000Y-131627000D01*
G75*
G02*
X93025000Y-131727000I-100000J0D01*
G01*
X91750000Y-131727000D01*
G75*
G02*
X91650000Y-131627000I0J100000D01*
G01*
G37*
G36*
G01*
X97375000Y-124007000D02*
X97375000Y-123807000D01*
G75*
G02*
X97475000Y-123707000I100000J0D01*
G01*
X98750000Y-123707000D01*
G75*
G02*
X98850000Y-123807000I0J-100000D01*
G01*
X98850000Y-124007000D01*
G75*
G02*
X98750000Y-124107000I-100000J0D01*
G01*
X97475000Y-124107000D01*
G75*
G02*
X97375000Y-124007000I0J100000D01*
G01*
G37*
G36*
G01*
X97375000Y-124657000D02*
X97375000Y-124457000D01*
G75*
G02*
X97475000Y-124357000I100000J0D01*
G01*
X98750000Y-124357000D01*
G75*
G02*
X98850000Y-124457000I0J-100000D01*
G01*
X98850000Y-124657000D01*
G75*
G02*
X98750000Y-124757000I-100000J0D01*
G01*
X97475000Y-124757000D01*
G75*
G02*
X97375000Y-124657000I0J100000D01*
G01*
G37*
G36*
G01*
X97375000Y-125307000D02*
X97375000Y-125107000D01*
G75*
G02*
X97475000Y-125007000I100000J0D01*
G01*
X98750000Y-125007000D01*
G75*
G02*
X98850000Y-125107000I0J-100000D01*
G01*
X98850000Y-125307000D01*
G75*
G02*
X98750000Y-125407000I-100000J0D01*
G01*
X97475000Y-125407000D01*
G75*
G02*
X97375000Y-125307000I0J100000D01*
G01*
G37*
G36*
G01*
X97375000Y-125957000D02*
X97375000Y-125757000D01*
G75*
G02*
X97475000Y-125657000I100000J0D01*
G01*
X98750000Y-125657000D01*
G75*
G02*
X98850000Y-125757000I0J-100000D01*
G01*
X98850000Y-125957000D01*
G75*
G02*
X98750000Y-126057000I-100000J0D01*
G01*
X97475000Y-126057000D01*
G75*
G02*
X97375000Y-125957000I0J100000D01*
G01*
G37*
G36*
G01*
X97375000Y-126607000D02*
X97375000Y-126407000D01*
G75*
G02*
X97475000Y-126307000I100000J0D01*
G01*
X98750000Y-126307000D01*
G75*
G02*
X98850000Y-126407000I0J-100000D01*
G01*
X98850000Y-126607000D01*
G75*
G02*
X98750000Y-126707000I-100000J0D01*
G01*
X97475000Y-126707000D01*
G75*
G02*
X97375000Y-126607000I0J100000D01*
G01*
G37*
G36*
G01*
X97375000Y-127257000D02*
X97375000Y-127057000D01*
G75*
G02*
X97475000Y-126957000I100000J0D01*
G01*
X98750000Y-126957000D01*
G75*
G02*
X98850000Y-127057000I0J-100000D01*
G01*
X98850000Y-127257000D01*
G75*
G02*
X98750000Y-127357000I-100000J0D01*
G01*
X97475000Y-127357000D01*
G75*
G02*
X97375000Y-127257000I0J100000D01*
G01*
G37*
G36*
G01*
X97375000Y-127907000D02*
X97375000Y-127707000D01*
G75*
G02*
X97475000Y-127607000I100000J0D01*
G01*
X98750000Y-127607000D01*
G75*
G02*
X98850000Y-127707000I0J-100000D01*
G01*
X98850000Y-127907000D01*
G75*
G02*
X98750000Y-128007000I-100000J0D01*
G01*
X97475000Y-128007000D01*
G75*
G02*
X97375000Y-127907000I0J100000D01*
G01*
G37*
G36*
G01*
X91650000Y-127907000D02*
X91650000Y-127707000D01*
G75*
G02*
X91750000Y-127607000I100000J0D01*
G01*
X93025000Y-127607000D01*
G75*
G02*
X93125000Y-127707000I0J-100000D01*
G01*
X93125000Y-127907000D01*
G75*
G02*
X93025000Y-128007000I-100000J0D01*
G01*
X91750000Y-128007000D01*
G75*
G02*
X91650000Y-127907000I0J100000D01*
G01*
G37*
G36*
G01*
X91650000Y-127257000D02*
X91650000Y-127057000D01*
G75*
G02*
X91750000Y-126957000I100000J0D01*
G01*
X93025000Y-126957000D01*
G75*
G02*
X93125000Y-127057000I0J-100000D01*
G01*
X93125000Y-127257000D01*
G75*
G02*
X93025000Y-127357000I-100000J0D01*
G01*
X91750000Y-127357000D01*
G75*
G02*
X91650000Y-127257000I0J100000D01*
G01*
G37*
G36*
G01*
X91650000Y-126607000D02*
X91650000Y-126407000D01*
G75*
G02*
X91750000Y-126307000I100000J0D01*
G01*
X93025000Y-126307000D01*
G75*
G02*
X93125000Y-126407000I0J-100000D01*
G01*
X93125000Y-126607000D01*
G75*
G02*
X93025000Y-126707000I-100000J0D01*
G01*
X91750000Y-126707000D01*
G75*
G02*
X91650000Y-126607000I0J100000D01*
G01*
G37*
G36*
G01*
X91650000Y-125957000D02*
X91650000Y-125757000D01*
G75*
G02*
X91750000Y-125657000I100000J0D01*
G01*
X93025000Y-125657000D01*
G75*
G02*
X93125000Y-125757000I0J-100000D01*
G01*
X93125000Y-125957000D01*
G75*
G02*
X93025000Y-126057000I-100000J0D01*
G01*
X91750000Y-126057000D01*
G75*
G02*
X91650000Y-125957000I0J100000D01*
G01*
G37*
G36*
G01*
X91650000Y-125307000D02*
X91650000Y-125107000D01*
G75*
G02*
X91750000Y-125007000I100000J0D01*
G01*
X93025000Y-125007000D01*
G75*
G02*
X93125000Y-125107000I0J-100000D01*
G01*
X93125000Y-125307000D01*
G75*
G02*
X93025000Y-125407000I-100000J0D01*
G01*
X91750000Y-125407000D01*
G75*
G02*
X91650000Y-125307000I0J100000D01*
G01*
G37*
G36*
G01*
X91650000Y-124657000D02*
X91650000Y-124457000D01*
G75*
G02*
X91750000Y-124357000I100000J0D01*
G01*
X93025000Y-124357000D01*
G75*
G02*
X93125000Y-124457000I0J-100000D01*
G01*
X93125000Y-124657000D01*
G75*
G02*
X93025000Y-124757000I-100000J0D01*
G01*
X91750000Y-124757000D01*
G75*
G02*
X91650000Y-124657000I0J100000D01*
G01*
G37*
G36*
G01*
X91650000Y-124007000D02*
X91650000Y-123807000D01*
G75*
G02*
X91750000Y-123707000I100000J0D01*
G01*
X93025000Y-123707000D01*
G75*
G02*
X93125000Y-123807000I0J-100000D01*
G01*
X93125000Y-124007000D01*
G75*
G02*
X93025000Y-124107000I-100000J0D01*
G01*
X91750000Y-124107000D01*
G75*
G02*
X91650000Y-124007000I0J100000D01*
G01*
G37*
G36*
G01*
X109059000Y-95178000D02*
X109059000Y-94978000D01*
G75*
G02*
X109159000Y-94878000I100000J0D01*
G01*
X110434000Y-94878000D01*
G75*
G02*
X110534000Y-94978000I0J-100000D01*
G01*
X110534000Y-95178000D01*
G75*
G02*
X110434000Y-95278000I-100000J0D01*
G01*
X109159000Y-95278000D01*
G75*
G02*
X109059000Y-95178000I0J100000D01*
G01*
G37*
G36*
G01*
X109059000Y-95828000D02*
X109059000Y-95628000D01*
G75*
G02*
X109159000Y-95528000I100000J0D01*
G01*
X110434000Y-95528000D01*
G75*
G02*
X110534000Y-95628000I0J-100000D01*
G01*
X110534000Y-95828000D01*
G75*
G02*
X110434000Y-95928000I-100000J0D01*
G01*
X109159000Y-95928000D01*
G75*
G02*
X109059000Y-95828000I0J100000D01*
G01*
G37*
G36*
G01*
X109059000Y-96478000D02*
X109059000Y-96278000D01*
G75*
G02*
X109159000Y-96178000I100000J0D01*
G01*
X110434000Y-96178000D01*
G75*
G02*
X110534000Y-96278000I0J-100000D01*
G01*
X110534000Y-96478000D01*
G75*
G02*
X110434000Y-96578000I-100000J0D01*
G01*
X109159000Y-96578000D01*
G75*
G02*
X109059000Y-96478000I0J100000D01*
G01*
G37*
G36*
G01*
X109059000Y-97128000D02*
X109059000Y-96928000D01*
G75*
G02*
X109159000Y-96828000I100000J0D01*
G01*
X110434000Y-96828000D01*
G75*
G02*
X110534000Y-96928000I0J-100000D01*
G01*
X110534000Y-97128000D01*
G75*
G02*
X110434000Y-97228000I-100000J0D01*
G01*
X109159000Y-97228000D01*
G75*
G02*
X109059000Y-97128000I0J100000D01*
G01*
G37*
G36*
G01*
X109059000Y-97778000D02*
X109059000Y-97578000D01*
G75*
G02*
X109159000Y-97478000I100000J0D01*
G01*
X110434000Y-97478000D01*
G75*
G02*
X110534000Y-97578000I0J-100000D01*
G01*
X110534000Y-97778000D01*
G75*
G02*
X110434000Y-97878000I-100000J0D01*
G01*
X109159000Y-97878000D01*
G75*
G02*
X109059000Y-97778000I0J100000D01*
G01*
G37*
G36*
G01*
X109059000Y-98428000D02*
X109059000Y-98228000D01*
G75*
G02*
X109159000Y-98128000I100000J0D01*
G01*
X110434000Y-98128000D01*
G75*
G02*
X110534000Y-98228000I0J-100000D01*
G01*
X110534000Y-98428000D01*
G75*
G02*
X110434000Y-98528000I-100000J0D01*
G01*
X109159000Y-98528000D01*
G75*
G02*
X109059000Y-98428000I0J100000D01*
G01*
G37*
G36*
G01*
X109059000Y-99078000D02*
X109059000Y-98878000D01*
G75*
G02*
X109159000Y-98778000I100000J0D01*
G01*
X110434000Y-98778000D01*
G75*
G02*
X110534000Y-98878000I0J-100000D01*
G01*
X110534000Y-99078000D01*
G75*
G02*
X110434000Y-99178000I-100000J0D01*
G01*
X109159000Y-99178000D01*
G75*
G02*
X109059000Y-99078000I0J100000D01*
G01*
G37*
G36*
G01*
X103334000Y-99078000D02*
X103334000Y-98878000D01*
G75*
G02*
X103434000Y-98778000I100000J0D01*
G01*
X104709000Y-98778000D01*
G75*
G02*
X104809000Y-98878000I0J-100000D01*
G01*
X104809000Y-99078000D01*
G75*
G02*
X104709000Y-99178000I-100000J0D01*
G01*
X103434000Y-99178000D01*
G75*
G02*
X103334000Y-99078000I0J100000D01*
G01*
G37*
G36*
G01*
X103334000Y-98428000D02*
X103334000Y-98228000D01*
G75*
G02*
X103434000Y-98128000I100000J0D01*
G01*
X104709000Y-98128000D01*
G75*
G02*
X104809000Y-98228000I0J-100000D01*
G01*
X104809000Y-98428000D01*
G75*
G02*
X104709000Y-98528000I-100000J0D01*
G01*
X103434000Y-98528000D01*
G75*
G02*
X103334000Y-98428000I0J100000D01*
G01*
G37*
G36*
G01*
X103334000Y-97778000D02*
X103334000Y-97578000D01*
G75*
G02*
X103434000Y-97478000I100000J0D01*
G01*
X104709000Y-97478000D01*
G75*
G02*
X104809000Y-97578000I0J-100000D01*
G01*
X104809000Y-97778000D01*
G75*
G02*
X104709000Y-97878000I-100000J0D01*
G01*
X103434000Y-97878000D01*
G75*
G02*
X103334000Y-97778000I0J100000D01*
G01*
G37*
G36*
G01*
X103334000Y-97128000D02*
X103334000Y-96928000D01*
G75*
G02*
X103434000Y-96828000I100000J0D01*
G01*
X104709000Y-96828000D01*
G75*
G02*
X104809000Y-96928000I0J-100000D01*
G01*
X104809000Y-97128000D01*
G75*
G02*
X104709000Y-97228000I-100000J0D01*
G01*
X103434000Y-97228000D01*
G75*
G02*
X103334000Y-97128000I0J100000D01*
G01*
G37*
G36*
G01*
X103334000Y-96478000D02*
X103334000Y-96278000D01*
G75*
G02*
X103434000Y-96178000I100000J0D01*
G01*
X104709000Y-96178000D01*
G75*
G02*
X104809000Y-96278000I0J-100000D01*
G01*
X104809000Y-96478000D01*
G75*
G02*
X104709000Y-96578000I-100000J0D01*
G01*
X103434000Y-96578000D01*
G75*
G02*
X103334000Y-96478000I0J100000D01*
G01*
G37*
G36*
G01*
X103334000Y-95828000D02*
X103334000Y-95628000D01*
G75*
G02*
X103434000Y-95528000I100000J0D01*
G01*
X104709000Y-95528000D01*
G75*
G02*
X104809000Y-95628000I0J-100000D01*
G01*
X104809000Y-95828000D01*
G75*
G02*
X104709000Y-95928000I-100000J0D01*
G01*
X103434000Y-95928000D01*
G75*
G02*
X103334000Y-95828000I0J100000D01*
G01*
G37*
G36*
G01*
X103334000Y-95178000D02*
X103334000Y-94978000D01*
G75*
G02*
X103434000Y-94878000I100000J0D01*
G01*
X104709000Y-94878000D01*
G75*
G02*
X104809000Y-94978000I0J-100000D01*
G01*
X104809000Y-95178000D01*
G75*
G02*
X104709000Y-95278000I-100000J0D01*
G01*
X103434000Y-95278000D01*
G75*
G02*
X103334000Y-95178000I0J100000D01*
G01*
G37*
G36*
G01*
X85759000Y-98878000D02*
X85759000Y-99078000D01*
G75*
G02*
X85659000Y-99178000I-100000J0D01*
G01*
X84384000Y-99178000D01*
G75*
G02*
X84284000Y-99078000I0J100000D01*
G01*
X84284000Y-98878000D01*
G75*
G02*
X84384000Y-98778000I100000J0D01*
G01*
X85659000Y-98778000D01*
G75*
G02*
X85759000Y-98878000I0J-100000D01*
G01*
G37*
G36*
G01*
X85759000Y-98228000D02*
X85759000Y-98428000D01*
G75*
G02*
X85659000Y-98528000I-100000J0D01*
G01*
X84384000Y-98528000D01*
G75*
G02*
X84284000Y-98428000I0J100000D01*
G01*
X84284000Y-98228000D01*
G75*
G02*
X84384000Y-98128000I100000J0D01*
G01*
X85659000Y-98128000D01*
G75*
G02*
X85759000Y-98228000I0J-100000D01*
G01*
G37*
G36*
G01*
X85759000Y-97578000D02*
X85759000Y-97778000D01*
G75*
G02*
X85659000Y-97878000I-100000J0D01*
G01*
X84384000Y-97878000D01*
G75*
G02*
X84284000Y-97778000I0J100000D01*
G01*
X84284000Y-97578000D01*
G75*
G02*
X84384000Y-97478000I100000J0D01*
G01*
X85659000Y-97478000D01*
G75*
G02*
X85759000Y-97578000I0J-100000D01*
G01*
G37*
G36*
G01*
X85759000Y-96928000D02*
X85759000Y-97128000D01*
G75*
G02*
X85659000Y-97228000I-100000J0D01*
G01*
X84384000Y-97228000D01*
G75*
G02*
X84284000Y-97128000I0J100000D01*
G01*
X84284000Y-96928000D01*
G75*
G02*
X84384000Y-96828000I100000J0D01*
G01*
X85659000Y-96828000D01*
G75*
G02*
X85759000Y-96928000I0J-100000D01*
G01*
G37*
G36*
G01*
X85759000Y-96278000D02*
X85759000Y-96478000D01*
G75*
G02*
X85659000Y-96578000I-100000J0D01*
G01*
X84384000Y-96578000D01*
G75*
G02*
X84284000Y-96478000I0J100000D01*
G01*
X84284000Y-96278000D01*
G75*
G02*
X84384000Y-96178000I100000J0D01*
G01*
X85659000Y-96178000D01*
G75*
G02*
X85759000Y-96278000I0J-100000D01*
G01*
G37*
G36*
G01*
X85759000Y-95628000D02*
X85759000Y-95828000D01*
G75*
G02*
X85659000Y-95928000I-100000J0D01*
G01*
X84384000Y-95928000D01*
G75*
G02*
X84284000Y-95828000I0J100000D01*
G01*
X84284000Y-95628000D01*
G75*
G02*
X84384000Y-95528000I100000J0D01*
G01*
X85659000Y-95528000D01*
G75*
G02*
X85759000Y-95628000I0J-100000D01*
G01*
G37*
G36*
G01*
X85759000Y-94978000D02*
X85759000Y-95178000D01*
G75*
G02*
X85659000Y-95278000I-100000J0D01*
G01*
X84384000Y-95278000D01*
G75*
G02*
X84284000Y-95178000I0J100000D01*
G01*
X84284000Y-94978000D01*
G75*
G02*
X84384000Y-94878000I100000J0D01*
G01*
X85659000Y-94878000D01*
G75*
G02*
X85759000Y-94978000I0J-100000D01*
G01*
G37*
G36*
G01*
X91484000Y-94978000D02*
X91484000Y-95178000D01*
G75*
G02*
X91384000Y-95278000I-100000J0D01*
G01*
X90109000Y-95278000D01*
G75*
G02*
X90009000Y-95178000I0J100000D01*
G01*
X90009000Y-94978000D01*
G75*
G02*
X90109000Y-94878000I100000J0D01*
G01*
X91384000Y-94878000D01*
G75*
G02*
X91484000Y-94978000I0J-100000D01*
G01*
G37*
G36*
G01*
X91484000Y-95628000D02*
X91484000Y-95828000D01*
G75*
G02*
X91384000Y-95928000I-100000J0D01*
G01*
X90109000Y-95928000D01*
G75*
G02*
X90009000Y-95828000I0J100000D01*
G01*
X90009000Y-95628000D01*
G75*
G02*
X90109000Y-95528000I100000J0D01*
G01*
X91384000Y-95528000D01*
G75*
G02*
X91484000Y-95628000I0J-100000D01*
G01*
G37*
G36*
G01*
X91484000Y-96278000D02*
X91484000Y-96478000D01*
G75*
G02*
X91384000Y-96578000I-100000J0D01*
G01*
X90109000Y-96578000D01*
G75*
G02*
X90009000Y-96478000I0J100000D01*
G01*
X90009000Y-96278000D01*
G75*
G02*
X90109000Y-96178000I100000J0D01*
G01*
X91384000Y-96178000D01*
G75*
G02*
X91484000Y-96278000I0J-100000D01*
G01*
G37*
G36*
G01*
X91484000Y-96928000D02*
X91484000Y-97128000D01*
G75*
G02*
X91384000Y-97228000I-100000J0D01*
G01*
X90109000Y-97228000D01*
G75*
G02*
X90009000Y-97128000I0J100000D01*
G01*
X90009000Y-96928000D01*
G75*
G02*
X90109000Y-96828000I100000J0D01*
G01*
X91384000Y-96828000D01*
G75*
G02*
X91484000Y-96928000I0J-100000D01*
G01*
G37*
G36*
G01*
X91484000Y-97578000D02*
X91484000Y-97778000D01*
G75*
G02*
X91384000Y-97878000I-100000J0D01*
G01*
X90109000Y-97878000D01*
G75*
G02*
X90009000Y-97778000I0J100000D01*
G01*
X90009000Y-97578000D01*
G75*
G02*
X90109000Y-97478000I100000J0D01*
G01*
X91384000Y-97478000D01*
G75*
G02*
X91484000Y-97578000I0J-100000D01*
G01*
G37*
G36*
G01*
X91484000Y-98228000D02*
X91484000Y-98428000D01*
G75*
G02*
X91384000Y-98528000I-100000J0D01*
G01*
X90109000Y-98528000D01*
G75*
G02*
X90009000Y-98428000I0J100000D01*
G01*
X90009000Y-98228000D01*
G75*
G02*
X90109000Y-98128000I100000J0D01*
G01*
X91384000Y-98128000D01*
G75*
G02*
X91484000Y-98228000I0J-100000D01*
G01*
G37*
G36*
G01*
X91484000Y-98878000D02*
X91484000Y-99078000D01*
G75*
G02*
X91384000Y-99178000I-100000J0D01*
G01*
X90109000Y-99178000D01*
G75*
G02*
X90009000Y-99078000I0J100000D01*
G01*
X90009000Y-98878000D01*
G75*
G02*
X90109000Y-98778000I100000J0D01*
G01*
X91384000Y-98778000D01*
G75*
G02*
X91484000Y-98878000I0J-100000D01*
G01*
G37*
G36*
G01*
X99534000Y-94853000D02*
X99534000Y-94653000D01*
G75*
G02*
X99634000Y-94553000I100000J0D01*
G01*
X100909000Y-94553000D01*
G75*
G02*
X101009000Y-94653000I0J-100000D01*
G01*
X101009000Y-94853000D01*
G75*
G02*
X100909000Y-94953000I-100000J0D01*
G01*
X99634000Y-94953000D01*
G75*
G02*
X99534000Y-94853000I0J100000D01*
G01*
G37*
G36*
G01*
X99534000Y-95503000D02*
X99534000Y-95303000D01*
G75*
G02*
X99634000Y-95203000I100000J0D01*
G01*
X100909000Y-95203000D01*
G75*
G02*
X101009000Y-95303000I0J-100000D01*
G01*
X101009000Y-95503000D01*
G75*
G02*
X100909000Y-95603000I-100000J0D01*
G01*
X99634000Y-95603000D01*
G75*
G02*
X99534000Y-95503000I0J100000D01*
G01*
G37*
G36*
G01*
X99534000Y-96153000D02*
X99534000Y-95953000D01*
G75*
G02*
X99634000Y-95853000I100000J0D01*
G01*
X100909000Y-95853000D01*
G75*
G02*
X101009000Y-95953000I0J-100000D01*
G01*
X101009000Y-96153000D01*
G75*
G02*
X100909000Y-96253000I-100000J0D01*
G01*
X99634000Y-96253000D01*
G75*
G02*
X99534000Y-96153000I0J100000D01*
G01*
G37*
G36*
G01*
X99534000Y-96803000D02*
X99534000Y-96603000D01*
G75*
G02*
X99634000Y-96503000I100000J0D01*
G01*
X100909000Y-96503000D01*
G75*
G02*
X101009000Y-96603000I0J-100000D01*
G01*
X101009000Y-96803000D01*
G75*
G02*
X100909000Y-96903000I-100000J0D01*
G01*
X99634000Y-96903000D01*
G75*
G02*
X99534000Y-96803000I0J100000D01*
G01*
G37*
G36*
G01*
X99534000Y-97453000D02*
X99534000Y-97253000D01*
G75*
G02*
X99634000Y-97153000I100000J0D01*
G01*
X100909000Y-97153000D01*
G75*
G02*
X101009000Y-97253000I0J-100000D01*
G01*
X101009000Y-97453000D01*
G75*
G02*
X100909000Y-97553000I-100000J0D01*
G01*
X99634000Y-97553000D01*
G75*
G02*
X99534000Y-97453000I0J100000D01*
G01*
G37*
G36*
G01*
X99534000Y-98103000D02*
X99534000Y-97903000D01*
G75*
G02*
X99634000Y-97803000I100000J0D01*
G01*
X100909000Y-97803000D01*
G75*
G02*
X101009000Y-97903000I0J-100000D01*
G01*
X101009000Y-98103000D01*
G75*
G02*
X100909000Y-98203000I-100000J0D01*
G01*
X99634000Y-98203000D01*
G75*
G02*
X99534000Y-98103000I0J100000D01*
G01*
G37*
G36*
G01*
X99534000Y-98753000D02*
X99534000Y-98553000D01*
G75*
G02*
X99634000Y-98453000I100000J0D01*
G01*
X100909000Y-98453000D01*
G75*
G02*
X101009000Y-98553000I0J-100000D01*
G01*
X101009000Y-98753000D01*
G75*
G02*
X100909000Y-98853000I-100000J0D01*
G01*
X99634000Y-98853000D01*
G75*
G02*
X99534000Y-98753000I0J100000D01*
G01*
G37*
G36*
G01*
X99534000Y-99403000D02*
X99534000Y-99203000D01*
G75*
G02*
X99634000Y-99103000I100000J0D01*
G01*
X100909000Y-99103000D01*
G75*
G02*
X101009000Y-99203000I0J-100000D01*
G01*
X101009000Y-99403000D01*
G75*
G02*
X100909000Y-99503000I-100000J0D01*
G01*
X99634000Y-99503000D01*
G75*
G02*
X99534000Y-99403000I0J100000D01*
G01*
G37*
G36*
G01*
X93809000Y-99403000D02*
X93809000Y-99203000D01*
G75*
G02*
X93909000Y-99103000I100000J0D01*
G01*
X95184000Y-99103000D01*
G75*
G02*
X95284000Y-99203000I0J-100000D01*
G01*
X95284000Y-99403000D01*
G75*
G02*
X95184000Y-99503000I-100000J0D01*
G01*
X93909000Y-99503000D01*
G75*
G02*
X93809000Y-99403000I0J100000D01*
G01*
G37*
G36*
G01*
X93809000Y-98753000D02*
X93809000Y-98553000D01*
G75*
G02*
X93909000Y-98453000I100000J0D01*
G01*
X95184000Y-98453000D01*
G75*
G02*
X95284000Y-98553000I0J-100000D01*
G01*
X95284000Y-98753000D01*
G75*
G02*
X95184000Y-98853000I-100000J0D01*
G01*
X93909000Y-98853000D01*
G75*
G02*
X93809000Y-98753000I0J100000D01*
G01*
G37*
G36*
G01*
X93809000Y-98103000D02*
X93809000Y-97903000D01*
G75*
G02*
X93909000Y-97803000I100000J0D01*
G01*
X95184000Y-97803000D01*
G75*
G02*
X95284000Y-97903000I0J-100000D01*
G01*
X95284000Y-98103000D01*
G75*
G02*
X95184000Y-98203000I-100000J0D01*
G01*
X93909000Y-98203000D01*
G75*
G02*
X93809000Y-98103000I0J100000D01*
G01*
G37*
G36*
G01*
X93809000Y-97453000D02*
X93809000Y-97253000D01*
G75*
G02*
X93909000Y-97153000I100000J0D01*
G01*
X95184000Y-97153000D01*
G75*
G02*
X95284000Y-97253000I0J-100000D01*
G01*
X95284000Y-97453000D01*
G75*
G02*
X95184000Y-97553000I-100000J0D01*
G01*
X93909000Y-97553000D01*
G75*
G02*
X93809000Y-97453000I0J100000D01*
G01*
G37*
G36*
G01*
X93809000Y-96803000D02*
X93809000Y-96603000D01*
G75*
G02*
X93909000Y-96503000I100000J0D01*
G01*
X95184000Y-96503000D01*
G75*
G02*
X95284000Y-96603000I0J-100000D01*
G01*
X95284000Y-96803000D01*
G75*
G02*
X95184000Y-96903000I-100000J0D01*
G01*
X93909000Y-96903000D01*
G75*
G02*
X93809000Y-96803000I0J100000D01*
G01*
G37*
G36*
G01*
X93809000Y-96153000D02*
X93809000Y-95953000D01*
G75*
G02*
X93909000Y-95853000I100000J0D01*
G01*
X95184000Y-95853000D01*
G75*
G02*
X95284000Y-95953000I0J-100000D01*
G01*
X95284000Y-96153000D01*
G75*
G02*
X95184000Y-96253000I-100000J0D01*
G01*
X93909000Y-96253000D01*
G75*
G02*
X93809000Y-96153000I0J100000D01*
G01*
G37*
G36*
G01*
X93809000Y-95503000D02*
X93809000Y-95303000D01*
G75*
G02*
X93909000Y-95203000I100000J0D01*
G01*
X95184000Y-95203000D01*
G75*
G02*
X95284000Y-95303000I0J-100000D01*
G01*
X95284000Y-95503000D01*
G75*
G02*
X95184000Y-95603000I-100000J0D01*
G01*
X93909000Y-95603000D01*
G75*
G02*
X93809000Y-95503000I0J100000D01*
G01*
G37*
G36*
G01*
X93809000Y-94853000D02*
X93809000Y-94653000D01*
G75*
G02*
X93909000Y-94553000I100000J0D01*
G01*
X95184000Y-94553000D01*
G75*
G02*
X95284000Y-94653000I0J-100000D01*
G01*
X95284000Y-94853000D01*
G75*
G02*
X95184000Y-94953000I-100000J0D01*
G01*
X93909000Y-94953000D01*
G75*
G02*
X93809000Y-94853000I0J100000D01*
G01*
G37*
G36*
G01*
X109059000Y-103743000D02*
X109059000Y-103543000D01*
G75*
G02*
X109159000Y-103443000I100000J0D01*
G01*
X110434000Y-103443000D01*
G75*
G02*
X110534000Y-103543000I0J-100000D01*
G01*
X110534000Y-103743000D01*
G75*
G02*
X110434000Y-103843000I-100000J0D01*
G01*
X109159000Y-103843000D01*
G75*
G02*
X109059000Y-103743000I0J100000D01*
G01*
G37*
G36*
G01*
X109059000Y-104393000D02*
X109059000Y-104193000D01*
G75*
G02*
X109159000Y-104093000I100000J0D01*
G01*
X110434000Y-104093000D01*
G75*
G02*
X110534000Y-104193000I0J-100000D01*
G01*
X110534000Y-104393000D01*
G75*
G02*
X110434000Y-104493000I-100000J0D01*
G01*
X109159000Y-104493000D01*
G75*
G02*
X109059000Y-104393000I0J100000D01*
G01*
G37*
G36*
G01*
X109059000Y-105043000D02*
X109059000Y-104843000D01*
G75*
G02*
X109159000Y-104743000I100000J0D01*
G01*
X110434000Y-104743000D01*
G75*
G02*
X110534000Y-104843000I0J-100000D01*
G01*
X110534000Y-105043000D01*
G75*
G02*
X110434000Y-105143000I-100000J0D01*
G01*
X109159000Y-105143000D01*
G75*
G02*
X109059000Y-105043000I0J100000D01*
G01*
G37*
G36*
G01*
X109059000Y-105693000D02*
X109059000Y-105493000D01*
G75*
G02*
X109159000Y-105393000I100000J0D01*
G01*
X110434000Y-105393000D01*
G75*
G02*
X110534000Y-105493000I0J-100000D01*
G01*
X110534000Y-105693000D01*
G75*
G02*
X110434000Y-105793000I-100000J0D01*
G01*
X109159000Y-105793000D01*
G75*
G02*
X109059000Y-105693000I0J100000D01*
G01*
G37*
G36*
G01*
X109059000Y-106343000D02*
X109059000Y-106143000D01*
G75*
G02*
X109159000Y-106043000I100000J0D01*
G01*
X110434000Y-106043000D01*
G75*
G02*
X110534000Y-106143000I0J-100000D01*
G01*
X110534000Y-106343000D01*
G75*
G02*
X110434000Y-106443000I-100000J0D01*
G01*
X109159000Y-106443000D01*
G75*
G02*
X109059000Y-106343000I0J100000D01*
G01*
G37*
G36*
G01*
X109059000Y-106993000D02*
X109059000Y-106793000D01*
G75*
G02*
X109159000Y-106693000I100000J0D01*
G01*
X110434000Y-106693000D01*
G75*
G02*
X110534000Y-106793000I0J-100000D01*
G01*
X110534000Y-106993000D01*
G75*
G02*
X110434000Y-107093000I-100000J0D01*
G01*
X109159000Y-107093000D01*
G75*
G02*
X109059000Y-106993000I0J100000D01*
G01*
G37*
G36*
G01*
X109059000Y-107643000D02*
X109059000Y-107443000D01*
G75*
G02*
X109159000Y-107343000I100000J0D01*
G01*
X110434000Y-107343000D01*
G75*
G02*
X110534000Y-107443000I0J-100000D01*
G01*
X110534000Y-107643000D01*
G75*
G02*
X110434000Y-107743000I-100000J0D01*
G01*
X109159000Y-107743000D01*
G75*
G02*
X109059000Y-107643000I0J100000D01*
G01*
G37*
G36*
G01*
X109059000Y-108293000D02*
X109059000Y-108093000D01*
G75*
G02*
X109159000Y-107993000I100000J0D01*
G01*
X110434000Y-107993000D01*
G75*
G02*
X110534000Y-108093000I0J-100000D01*
G01*
X110534000Y-108293000D01*
G75*
G02*
X110434000Y-108393000I-100000J0D01*
G01*
X109159000Y-108393000D01*
G75*
G02*
X109059000Y-108293000I0J100000D01*
G01*
G37*
G36*
G01*
X103334000Y-108293000D02*
X103334000Y-108093000D01*
G75*
G02*
X103434000Y-107993000I100000J0D01*
G01*
X104709000Y-107993000D01*
G75*
G02*
X104809000Y-108093000I0J-100000D01*
G01*
X104809000Y-108293000D01*
G75*
G02*
X104709000Y-108393000I-100000J0D01*
G01*
X103434000Y-108393000D01*
G75*
G02*
X103334000Y-108293000I0J100000D01*
G01*
G37*
G36*
G01*
X103334000Y-107643000D02*
X103334000Y-107443000D01*
G75*
G02*
X103434000Y-107343000I100000J0D01*
G01*
X104709000Y-107343000D01*
G75*
G02*
X104809000Y-107443000I0J-100000D01*
G01*
X104809000Y-107643000D01*
G75*
G02*
X104709000Y-107743000I-100000J0D01*
G01*
X103434000Y-107743000D01*
G75*
G02*
X103334000Y-107643000I0J100000D01*
G01*
G37*
G36*
G01*
X103334000Y-106993000D02*
X103334000Y-106793000D01*
G75*
G02*
X103434000Y-106693000I100000J0D01*
G01*
X104709000Y-106693000D01*
G75*
G02*
X104809000Y-106793000I0J-100000D01*
G01*
X104809000Y-106993000D01*
G75*
G02*
X104709000Y-107093000I-100000J0D01*
G01*
X103434000Y-107093000D01*
G75*
G02*
X103334000Y-106993000I0J100000D01*
G01*
G37*
G36*
G01*
X103334000Y-106343000D02*
X103334000Y-106143000D01*
G75*
G02*
X103434000Y-106043000I100000J0D01*
G01*
X104709000Y-106043000D01*
G75*
G02*
X104809000Y-106143000I0J-100000D01*
G01*
X104809000Y-106343000D01*
G75*
G02*
X104709000Y-106443000I-100000J0D01*
G01*
X103434000Y-106443000D01*
G75*
G02*
X103334000Y-106343000I0J100000D01*
G01*
G37*
G36*
G01*
X103334000Y-105693000D02*
X103334000Y-105493000D01*
G75*
G02*
X103434000Y-105393000I100000J0D01*
G01*
X104709000Y-105393000D01*
G75*
G02*
X104809000Y-105493000I0J-100000D01*
G01*
X104809000Y-105693000D01*
G75*
G02*
X104709000Y-105793000I-100000J0D01*
G01*
X103434000Y-105793000D01*
G75*
G02*
X103334000Y-105693000I0J100000D01*
G01*
G37*
G36*
G01*
X103334000Y-105043000D02*
X103334000Y-104843000D01*
G75*
G02*
X103434000Y-104743000I100000J0D01*
G01*
X104709000Y-104743000D01*
G75*
G02*
X104809000Y-104843000I0J-100000D01*
G01*
X104809000Y-105043000D01*
G75*
G02*
X104709000Y-105143000I-100000J0D01*
G01*
X103434000Y-105143000D01*
G75*
G02*
X103334000Y-105043000I0J100000D01*
G01*
G37*
G36*
G01*
X103334000Y-104393000D02*
X103334000Y-104193000D01*
G75*
G02*
X103434000Y-104093000I100000J0D01*
G01*
X104709000Y-104093000D01*
G75*
G02*
X104809000Y-104193000I0J-100000D01*
G01*
X104809000Y-104393000D01*
G75*
G02*
X104709000Y-104493000I-100000J0D01*
G01*
X103434000Y-104493000D01*
G75*
G02*
X103334000Y-104393000I0J100000D01*
G01*
G37*
G36*
G01*
X103334000Y-103743000D02*
X103334000Y-103543000D01*
G75*
G02*
X103434000Y-103443000I100000J0D01*
G01*
X104709000Y-103443000D01*
G75*
G02*
X104809000Y-103543000I0J-100000D01*
G01*
X104809000Y-103743000D01*
G75*
G02*
X104709000Y-103843000I-100000J0D01*
G01*
X103434000Y-103843000D01*
G75*
G02*
X103334000Y-103743000I0J100000D01*
G01*
G37*
D13*
X98999000Y-104183000D03*
X100899000Y-104183000D03*
X100899000Y-106383000D03*
X99949000Y-106383000D03*
X98999000Y-106383000D03*
X85029000Y-104183000D03*
X86929000Y-104183000D03*
X86929000Y-106383000D03*
X85979000Y-106383000D03*
X85029000Y-106383000D03*
G36*
G01*
X69640000Y-120158000D02*
X69640000Y-120358000D01*
G75*
G02*
X69540000Y-120458000I-100000J0D01*
G01*
X68265000Y-120458000D01*
G75*
G02*
X68165000Y-120358000I0J100000D01*
G01*
X68165000Y-120158000D01*
G75*
G02*
X68265000Y-120058000I100000J0D01*
G01*
X69540000Y-120058000D01*
G75*
G02*
X69640000Y-120158000I0J-100000D01*
G01*
G37*
G36*
G01*
X69640000Y-119508000D02*
X69640000Y-119708000D01*
G75*
G02*
X69540000Y-119808000I-100000J0D01*
G01*
X68265000Y-119808000D01*
G75*
G02*
X68165000Y-119708000I0J100000D01*
G01*
X68165000Y-119508000D01*
G75*
G02*
X68265000Y-119408000I100000J0D01*
G01*
X69540000Y-119408000D01*
G75*
G02*
X69640000Y-119508000I0J-100000D01*
G01*
G37*
G36*
G01*
X69640000Y-118858000D02*
X69640000Y-119058000D01*
G75*
G02*
X69540000Y-119158000I-100000J0D01*
G01*
X68265000Y-119158000D01*
G75*
G02*
X68165000Y-119058000I0J100000D01*
G01*
X68165000Y-118858000D01*
G75*
G02*
X68265000Y-118758000I100000J0D01*
G01*
X69540000Y-118758000D01*
G75*
G02*
X69640000Y-118858000I0J-100000D01*
G01*
G37*
G36*
G01*
X69640000Y-118208000D02*
X69640000Y-118408000D01*
G75*
G02*
X69540000Y-118508000I-100000J0D01*
G01*
X68265000Y-118508000D01*
G75*
G02*
X68165000Y-118408000I0J100000D01*
G01*
X68165000Y-118208000D01*
G75*
G02*
X68265000Y-118108000I100000J0D01*
G01*
X69540000Y-118108000D01*
G75*
G02*
X69640000Y-118208000I0J-100000D01*
G01*
G37*
G36*
G01*
X69640000Y-117558000D02*
X69640000Y-117758000D01*
G75*
G02*
X69540000Y-117858000I-100000J0D01*
G01*
X68265000Y-117858000D01*
G75*
G02*
X68165000Y-117758000I0J100000D01*
G01*
X68165000Y-117558000D01*
G75*
G02*
X68265000Y-117458000I100000J0D01*
G01*
X69540000Y-117458000D01*
G75*
G02*
X69640000Y-117558000I0J-100000D01*
G01*
G37*
G36*
G01*
X69640000Y-116908000D02*
X69640000Y-117108000D01*
G75*
G02*
X69540000Y-117208000I-100000J0D01*
G01*
X68265000Y-117208000D01*
G75*
G02*
X68165000Y-117108000I0J100000D01*
G01*
X68165000Y-116908000D01*
G75*
G02*
X68265000Y-116808000I100000J0D01*
G01*
X69540000Y-116808000D01*
G75*
G02*
X69640000Y-116908000I0J-100000D01*
G01*
G37*
G36*
G01*
X69640000Y-116258000D02*
X69640000Y-116458000D01*
G75*
G02*
X69540000Y-116558000I-100000J0D01*
G01*
X68265000Y-116558000D01*
G75*
G02*
X68165000Y-116458000I0J100000D01*
G01*
X68165000Y-116258000D01*
G75*
G02*
X68265000Y-116158000I100000J0D01*
G01*
X69540000Y-116158000D01*
G75*
G02*
X69640000Y-116258000I0J-100000D01*
G01*
G37*
G36*
G01*
X69640000Y-115608000D02*
X69640000Y-115808000D01*
G75*
G02*
X69540000Y-115908000I-100000J0D01*
G01*
X68265000Y-115908000D01*
G75*
G02*
X68165000Y-115808000I0J100000D01*
G01*
X68165000Y-115608000D01*
G75*
G02*
X68265000Y-115508000I100000J0D01*
G01*
X69540000Y-115508000D01*
G75*
G02*
X69640000Y-115608000I0J-100000D01*
G01*
G37*
G36*
G01*
X63915000Y-115608000D02*
X63915000Y-115808000D01*
G75*
G02*
X63815000Y-115908000I-100000J0D01*
G01*
X62540000Y-115908000D01*
G75*
G02*
X62440000Y-115808000I0J100000D01*
G01*
X62440000Y-115608000D01*
G75*
G02*
X62540000Y-115508000I100000J0D01*
G01*
X63815000Y-115508000D01*
G75*
G02*
X63915000Y-115608000I0J-100000D01*
G01*
G37*
G36*
G01*
X63915000Y-116258000D02*
X63915000Y-116458000D01*
G75*
G02*
X63815000Y-116558000I-100000J0D01*
G01*
X62540000Y-116558000D01*
G75*
G02*
X62440000Y-116458000I0J100000D01*
G01*
X62440000Y-116258000D01*
G75*
G02*
X62540000Y-116158000I100000J0D01*
G01*
X63815000Y-116158000D01*
G75*
G02*
X63915000Y-116258000I0J-100000D01*
G01*
G37*
G36*
G01*
X63915000Y-116908000D02*
X63915000Y-117108000D01*
G75*
G02*
X63815000Y-117208000I-100000J0D01*
G01*
X62540000Y-117208000D01*
G75*
G02*
X62440000Y-117108000I0J100000D01*
G01*
X62440000Y-116908000D01*
G75*
G02*
X62540000Y-116808000I100000J0D01*
G01*
X63815000Y-116808000D01*
G75*
G02*
X63915000Y-116908000I0J-100000D01*
G01*
G37*
G36*
G01*
X63915000Y-117558000D02*
X63915000Y-117758000D01*
G75*
G02*
X63815000Y-117858000I-100000J0D01*
G01*
X62540000Y-117858000D01*
G75*
G02*
X62440000Y-117758000I0J100000D01*
G01*
X62440000Y-117558000D01*
G75*
G02*
X62540000Y-117458000I100000J0D01*
G01*
X63815000Y-117458000D01*
G75*
G02*
X63915000Y-117558000I0J-100000D01*
G01*
G37*
G36*
G01*
X63915000Y-118208000D02*
X63915000Y-118408000D01*
G75*
G02*
X63815000Y-118508000I-100000J0D01*
G01*
X62540000Y-118508000D01*
G75*
G02*
X62440000Y-118408000I0J100000D01*
G01*
X62440000Y-118208000D01*
G75*
G02*
X62540000Y-118108000I100000J0D01*
G01*
X63815000Y-118108000D01*
G75*
G02*
X63915000Y-118208000I0J-100000D01*
G01*
G37*
G36*
G01*
X63915000Y-118858000D02*
X63915000Y-119058000D01*
G75*
G02*
X63815000Y-119158000I-100000J0D01*
G01*
X62540000Y-119158000D01*
G75*
G02*
X62440000Y-119058000I0J100000D01*
G01*
X62440000Y-118858000D01*
G75*
G02*
X62540000Y-118758000I100000J0D01*
G01*
X63815000Y-118758000D01*
G75*
G02*
X63915000Y-118858000I0J-100000D01*
G01*
G37*
G36*
G01*
X63915000Y-119508000D02*
X63915000Y-119708000D01*
G75*
G02*
X63815000Y-119808000I-100000J0D01*
G01*
X62540000Y-119808000D01*
G75*
G02*
X62440000Y-119708000I0J100000D01*
G01*
X62440000Y-119508000D01*
G75*
G02*
X62540000Y-119408000I100000J0D01*
G01*
X63815000Y-119408000D01*
G75*
G02*
X63915000Y-119508000I0J-100000D01*
G01*
G37*
G36*
G01*
X63915000Y-120158000D02*
X63915000Y-120358000D01*
G75*
G02*
X63815000Y-120458000I-100000J0D01*
G01*
X62540000Y-120458000D01*
G75*
G02*
X62440000Y-120358000I0J100000D01*
G01*
X62440000Y-120158000D01*
G75*
G02*
X62540000Y-120058000I100000J0D01*
G01*
X63815000Y-120058000D01*
G75*
G02*
X63915000Y-120158000I0J-100000D01*
G01*
G37*
G36*
G01*
X63583000Y-138033000D02*
X63583000Y-137833000D01*
G75*
G02*
X63683000Y-137733000I100000J0D01*
G01*
X64958000Y-137733000D01*
G75*
G02*
X65058000Y-137833000I0J-100000D01*
G01*
X65058000Y-138033000D01*
G75*
G02*
X64958000Y-138133000I-100000J0D01*
G01*
X63683000Y-138133000D01*
G75*
G02*
X63583000Y-138033000I0J100000D01*
G01*
G37*
G36*
G01*
X63583000Y-138683000D02*
X63583000Y-138483000D01*
G75*
G02*
X63683000Y-138383000I100000J0D01*
G01*
X64958000Y-138383000D01*
G75*
G02*
X65058000Y-138483000I0J-100000D01*
G01*
X65058000Y-138683000D01*
G75*
G02*
X64958000Y-138783000I-100000J0D01*
G01*
X63683000Y-138783000D01*
G75*
G02*
X63583000Y-138683000I0J100000D01*
G01*
G37*
G36*
G01*
X63583000Y-139333000D02*
X63583000Y-139133000D01*
G75*
G02*
X63683000Y-139033000I100000J0D01*
G01*
X64958000Y-139033000D01*
G75*
G02*
X65058000Y-139133000I0J-100000D01*
G01*
X65058000Y-139333000D01*
G75*
G02*
X64958000Y-139433000I-100000J0D01*
G01*
X63683000Y-139433000D01*
G75*
G02*
X63583000Y-139333000I0J100000D01*
G01*
G37*
G36*
G01*
X63583000Y-139983000D02*
X63583000Y-139783000D01*
G75*
G02*
X63683000Y-139683000I100000J0D01*
G01*
X64958000Y-139683000D01*
G75*
G02*
X65058000Y-139783000I0J-100000D01*
G01*
X65058000Y-139983000D01*
G75*
G02*
X64958000Y-140083000I-100000J0D01*
G01*
X63683000Y-140083000D01*
G75*
G02*
X63583000Y-139983000I0J100000D01*
G01*
G37*
G36*
G01*
X63583000Y-140633000D02*
X63583000Y-140433000D01*
G75*
G02*
X63683000Y-140333000I100000J0D01*
G01*
X64958000Y-140333000D01*
G75*
G02*
X65058000Y-140433000I0J-100000D01*
G01*
X65058000Y-140633000D01*
G75*
G02*
X64958000Y-140733000I-100000J0D01*
G01*
X63683000Y-140733000D01*
G75*
G02*
X63583000Y-140633000I0J100000D01*
G01*
G37*
G36*
G01*
X63583000Y-141283000D02*
X63583000Y-141083000D01*
G75*
G02*
X63683000Y-140983000I100000J0D01*
G01*
X64958000Y-140983000D01*
G75*
G02*
X65058000Y-141083000I0J-100000D01*
G01*
X65058000Y-141283000D01*
G75*
G02*
X64958000Y-141383000I-100000J0D01*
G01*
X63683000Y-141383000D01*
G75*
G02*
X63583000Y-141283000I0J100000D01*
G01*
G37*
G36*
G01*
X63583000Y-141933000D02*
X63583000Y-141733000D01*
G75*
G02*
X63683000Y-141633000I100000J0D01*
G01*
X64958000Y-141633000D01*
G75*
G02*
X65058000Y-141733000I0J-100000D01*
G01*
X65058000Y-141933000D01*
G75*
G02*
X64958000Y-142033000I-100000J0D01*
G01*
X63683000Y-142033000D01*
G75*
G02*
X63583000Y-141933000I0J100000D01*
G01*
G37*
G36*
G01*
X63583000Y-142583000D02*
X63583000Y-142383000D01*
G75*
G02*
X63683000Y-142283000I100000J0D01*
G01*
X64958000Y-142283000D01*
G75*
G02*
X65058000Y-142383000I0J-100000D01*
G01*
X65058000Y-142583000D01*
G75*
G02*
X64958000Y-142683000I-100000J0D01*
G01*
X63683000Y-142683000D01*
G75*
G02*
X63583000Y-142583000I0J100000D01*
G01*
G37*
G36*
G01*
X69308000Y-142583000D02*
X69308000Y-142383000D01*
G75*
G02*
X69408000Y-142283000I100000J0D01*
G01*
X70683000Y-142283000D01*
G75*
G02*
X70783000Y-142383000I0J-100000D01*
G01*
X70783000Y-142583000D01*
G75*
G02*
X70683000Y-142683000I-100000J0D01*
G01*
X69408000Y-142683000D01*
G75*
G02*
X69308000Y-142583000I0J100000D01*
G01*
G37*
G36*
G01*
X69308000Y-141933000D02*
X69308000Y-141733000D01*
G75*
G02*
X69408000Y-141633000I100000J0D01*
G01*
X70683000Y-141633000D01*
G75*
G02*
X70783000Y-141733000I0J-100000D01*
G01*
X70783000Y-141933000D01*
G75*
G02*
X70683000Y-142033000I-100000J0D01*
G01*
X69408000Y-142033000D01*
G75*
G02*
X69308000Y-141933000I0J100000D01*
G01*
G37*
G36*
G01*
X69308000Y-141283000D02*
X69308000Y-141083000D01*
G75*
G02*
X69408000Y-140983000I100000J0D01*
G01*
X70683000Y-140983000D01*
G75*
G02*
X70783000Y-141083000I0J-100000D01*
G01*
X70783000Y-141283000D01*
G75*
G02*
X70683000Y-141383000I-100000J0D01*
G01*
X69408000Y-141383000D01*
G75*
G02*
X69308000Y-141283000I0J100000D01*
G01*
G37*
G36*
G01*
X69308000Y-140633000D02*
X69308000Y-140433000D01*
G75*
G02*
X69408000Y-140333000I100000J0D01*
G01*
X70683000Y-140333000D01*
G75*
G02*
X70783000Y-140433000I0J-100000D01*
G01*
X70783000Y-140633000D01*
G75*
G02*
X70683000Y-140733000I-100000J0D01*
G01*
X69408000Y-140733000D01*
G75*
G02*
X69308000Y-140633000I0J100000D01*
G01*
G37*
G36*
G01*
X69308000Y-139983000D02*
X69308000Y-139783000D01*
G75*
G02*
X69408000Y-139683000I100000J0D01*
G01*
X70683000Y-139683000D01*
G75*
G02*
X70783000Y-139783000I0J-100000D01*
G01*
X70783000Y-139983000D01*
G75*
G02*
X70683000Y-140083000I-100000J0D01*
G01*
X69408000Y-140083000D01*
G75*
G02*
X69308000Y-139983000I0J100000D01*
G01*
G37*
G36*
G01*
X69308000Y-139333000D02*
X69308000Y-139133000D01*
G75*
G02*
X69408000Y-139033000I100000J0D01*
G01*
X70683000Y-139033000D01*
G75*
G02*
X70783000Y-139133000I0J-100000D01*
G01*
X70783000Y-139333000D01*
G75*
G02*
X70683000Y-139433000I-100000J0D01*
G01*
X69408000Y-139433000D01*
G75*
G02*
X69308000Y-139333000I0J100000D01*
G01*
G37*
G36*
G01*
X69308000Y-138683000D02*
X69308000Y-138483000D01*
G75*
G02*
X69408000Y-138383000I100000J0D01*
G01*
X70683000Y-138383000D01*
G75*
G02*
X70783000Y-138483000I0J-100000D01*
G01*
X70783000Y-138683000D01*
G75*
G02*
X70683000Y-138783000I-100000J0D01*
G01*
X69408000Y-138783000D01*
G75*
G02*
X69308000Y-138683000I0J100000D01*
G01*
G37*
G36*
G01*
X69308000Y-138033000D02*
X69308000Y-137833000D01*
G75*
G02*
X69408000Y-137733000I100000J0D01*
G01*
X70683000Y-137733000D01*
G75*
G02*
X70783000Y-137833000I0J-100000D01*
G01*
X70783000Y-138033000D01*
G75*
G02*
X70683000Y-138133000I-100000J0D01*
G01*
X69408000Y-138133000D01*
G75*
G02*
X69308000Y-138033000I0J100000D01*
G01*
G37*
G36*
G01*
X95089000Y-103743000D02*
X95089000Y-103543000D01*
G75*
G02*
X95189000Y-103443000I100000J0D01*
G01*
X96464000Y-103443000D01*
G75*
G02*
X96564000Y-103543000I0J-100000D01*
G01*
X96564000Y-103743000D01*
G75*
G02*
X96464000Y-103843000I-100000J0D01*
G01*
X95189000Y-103843000D01*
G75*
G02*
X95089000Y-103743000I0J100000D01*
G01*
G37*
G36*
G01*
X95089000Y-104393000D02*
X95089000Y-104193000D01*
G75*
G02*
X95189000Y-104093000I100000J0D01*
G01*
X96464000Y-104093000D01*
G75*
G02*
X96564000Y-104193000I0J-100000D01*
G01*
X96564000Y-104393000D01*
G75*
G02*
X96464000Y-104493000I-100000J0D01*
G01*
X95189000Y-104493000D01*
G75*
G02*
X95089000Y-104393000I0J100000D01*
G01*
G37*
G36*
G01*
X95089000Y-105043000D02*
X95089000Y-104843000D01*
G75*
G02*
X95189000Y-104743000I100000J0D01*
G01*
X96464000Y-104743000D01*
G75*
G02*
X96564000Y-104843000I0J-100000D01*
G01*
X96564000Y-105043000D01*
G75*
G02*
X96464000Y-105143000I-100000J0D01*
G01*
X95189000Y-105143000D01*
G75*
G02*
X95089000Y-105043000I0J100000D01*
G01*
G37*
G36*
G01*
X95089000Y-105693000D02*
X95089000Y-105493000D01*
G75*
G02*
X95189000Y-105393000I100000J0D01*
G01*
X96464000Y-105393000D01*
G75*
G02*
X96564000Y-105493000I0J-100000D01*
G01*
X96564000Y-105693000D01*
G75*
G02*
X96464000Y-105793000I-100000J0D01*
G01*
X95189000Y-105793000D01*
G75*
G02*
X95089000Y-105693000I0J100000D01*
G01*
G37*
G36*
G01*
X95089000Y-106343000D02*
X95089000Y-106143000D01*
G75*
G02*
X95189000Y-106043000I100000J0D01*
G01*
X96464000Y-106043000D01*
G75*
G02*
X96564000Y-106143000I0J-100000D01*
G01*
X96564000Y-106343000D01*
G75*
G02*
X96464000Y-106443000I-100000J0D01*
G01*
X95189000Y-106443000D01*
G75*
G02*
X95089000Y-106343000I0J100000D01*
G01*
G37*
G36*
G01*
X95089000Y-106993000D02*
X95089000Y-106793000D01*
G75*
G02*
X95189000Y-106693000I100000J0D01*
G01*
X96464000Y-106693000D01*
G75*
G02*
X96564000Y-106793000I0J-100000D01*
G01*
X96564000Y-106993000D01*
G75*
G02*
X96464000Y-107093000I-100000J0D01*
G01*
X95189000Y-107093000D01*
G75*
G02*
X95089000Y-106993000I0J100000D01*
G01*
G37*
G36*
G01*
X95089000Y-107643000D02*
X95089000Y-107443000D01*
G75*
G02*
X95189000Y-107343000I100000J0D01*
G01*
X96464000Y-107343000D01*
G75*
G02*
X96564000Y-107443000I0J-100000D01*
G01*
X96564000Y-107643000D01*
G75*
G02*
X96464000Y-107743000I-100000J0D01*
G01*
X95189000Y-107743000D01*
G75*
G02*
X95089000Y-107643000I0J100000D01*
G01*
G37*
G36*
G01*
X95089000Y-108293000D02*
X95089000Y-108093000D01*
G75*
G02*
X95189000Y-107993000I100000J0D01*
G01*
X96464000Y-107993000D01*
G75*
G02*
X96564000Y-108093000I0J-100000D01*
G01*
X96564000Y-108293000D01*
G75*
G02*
X96464000Y-108393000I-100000J0D01*
G01*
X95189000Y-108393000D01*
G75*
G02*
X95089000Y-108293000I0J100000D01*
G01*
G37*
G36*
G01*
X89364000Y-108293000D02*
X89364000Y-108093000D01*
G75*
G02*
X89464000Y-107993000I100000J0D01*
G01*
X90739000Y-107993000D01*
G75*
G02*
X90839000Y-108093000I0J-100000D01*
G01*
X90839000Y-108293000D01*
G75*
G02*
X90739000Y-108393000I-100000J0D01*
G01*
X89464000Y-108393000D01*
G75*
G02*
X89364000Y-108293000I0J100000D01*
G01*
G37*
G36*
G01*
X89364000Y-107643000D02*
X89364000Y-107443000D01*
G75*
G02*
X89464000Y-107343000I100000J0D01*
G01*
X90739000Y-107343000D01*
G75*
G02*
X90839000Y-107443000I0J-100000D01*
G01*
X90839000Y-107643000D01*
G75*
G02*
X90739000Y-107743000I-100000J0D01*
G01*
X89464000Y-107743000D01*
G75*
G02*
X89364000Y-107643000I0J100000D01*
G01*
G37*
G36*
G01*
X89364000Y-106993000D02*
X89364000Y-106793000D01*
G75*
G02*
X89464000Y-106693000I100000J0D01*
G01*
X90739000Y-106693000D01*
G75*
G02*
X90839000Y-106793000I0J-100000D01*
G01*
X90839000Y-106993000D01*
G75*
G02*
X90739000Y-107093000I-100000J0D01*
G01*
X89464000Y-107093000D01*
G75*
G02*
X89364000Y-106993000I0J100000D01*
G01*
G37*
G36*
G01*
X89364000Y-106343000D02*
X89364000Y-106143000D01*
G75*
G02*
X89464000Y-106043000I100000J0D01*
G01*
X90739000Y-106043000D01*
G75*
G02*
X90839000Y-106143000I0J-100000D01*
G01*
X90839000Y-106343000D01*
G75*
G02*
X90739000Y-106443000I-100000J0D01*
G01*
X89464000Y-106443000D01*
G75*
G02*
X89364000Y-106343000I0J100000D01*
G01*
G37*
G36*
G01*
X89364000Y-105693000D02*
X89364000Y-105493000D01*
G75*
G02*
X89464000Y-105393000I100000J0D01*
G01*
X90739000Y-105393000D01*
G75*
G02*
X90839000Y-105493000I0J-100000D01*
G01*
X90839000Y-105693000D01*
G75*
G02*
X90739000Y-105793000I-100000J0D01*
G01*
X89464000Y-105793000D01*
G75*
G02*
X89364000Y-105693000I0J100000D01*
G01*
G37*
G36*
G01*
X89364000Y-105043000D02*
X89364000Y-104843000D01*
G75*
G02*
X89464000Y-104743000I100000J0D01*
G01*
X90739000Y-104743000D01*
G75*
G02*
X90839000Y-104843000I0J-100000D01*
G01*
X90839000Y-105043000D01*
G75*
G02*
X90739000Y-105143000I-100000J0D01*
G01*
X89464000Y-105143000D01*
G75*
G02*
X89364000Y-105043000I0J100000D01*
G01*
G37*
G36*
G01*
X89364000Y-104393000D02*
X89364000Y-104193000D01*
G75*
G02*
X89464000Y-104093000I100000J0D01*
G01*
X90739000Y-104093000D01*
G75*
G02*
X90839000Y-104193000I0J-100000D01*
G01*
X90839000Y-104393000D01*
G75*
G02*
X90739000Y-104493000I-100000J0D01*
G01*
X89464000Y-104493000D01*
G75*
G02*
X89364000Y-104393000I0J100000D01*
G01*
G37*
G36*
G01*
X89364000Y-103743000D02*
X89364000Y-103543000D01*
G75*
G02*
X89464000Y-103443000I100000J0D01*
G01*
X90739000Y-103443000D01*
G75*
G02*
X90839000Y-103543000I0J-100000D01*
G01*
X90839000Y-103743000D01*
G75*
G02*
X90739000Y-103843000I-100000J0D01*
G01*
X89464000Y-103843000D01*
G75*
G02*
X89364000Y-103743000I0J100000D01*
G01*
G37*
G36*
G01*
X69127500Y-103210500D02*
X69127500Y-102910500D01*
G75*
G02*
X69277500Y-102760500I150000J0D01*
G01*
X70927500Y-102760500D01*
G75*
G02*
X71077500Y-102910500I0J-150000D01*
G01*
X71077500Y-103210500D01*
G75*
G02*
X70927500Y-103360500I-150000J0D01*
G01*
X69277500Y-103360500D01*
G75*
G02*
X69127500Y-103210500I0J150000D01*
G01*
G37*
G36*
G01*
X69127500Y-104480500D02*
X69127500Y-104180500D01*
G75*
G02*
X69277500Y-104030500I150000J0D01*
G01*
X70927500Y-104030500D01*
G75*
G02*
X71077500Y-104180500I0J-150000D01*
G01*
X71077500Y-104480500D01*
G75*
G02*
X70927500Y-104630500I-150000J0D01*
G01*
X69277500Y-104630500D01*
G75*
G02*
X69127500Y-104480500I0J150000D01*
G01*
G37*
G36*
G01*
X69127500Y-105750500D02*
X69127500Y-105450500D01*
G75*
G02*
X69277500Y-105300500I150000J0D01*
G01*
X70927500Y-105300500D01*
G75*
G02*
X71077500Y-105450500I0J-150000D01*
G01*
X71077500Y-105750500D01*
G75*
G02*
X70927500Y-105900500I-150000J0D01*
G01*
X69277500Y-105900500D01*
G75*
G02*
X69127500Y-105750500I0J150000D01*
G01*
G37*
G36*
G01*
X69127500Y-107020500D02*
X69127500Y-106720500D01*
G75*
G02*
X69277500Y-106570500I150000J0D01*
G01*
X70927500Y-106570500D01*
G75*
G02*
X71077500Y-106720500I0J-150000D01*
G01*
X71077500Y-107020500D01*
G75*
G02*
X70927500Y-107170500I-150000J0D01*
G01*
X69277500Y-107170500D01*
G75*
G02*
X69127500Y-107020500I0J150000D01*
G01*
G37*
G36*
G01*
X64177500Y-107020500D02*
X64177500Y-106720500D01*
G75*
G02*
X64327500Y-106570500I150000J0D01*
G01*
X65977500Y-106570500D01*
G75*
G02*
X66127500Y-106720500I0J-150000D01*
G01*
X66127500Y-107020500D01*
G75*
G02*
X65977500Y-107170500I-150000J0D01*
G01*
X64327500Y-107170500D01*
G75*
G02*
X64177500Y-107020500I0J150000D01*
G01*
G37*
G36*
G01*
X64177500Y-105750500D02*
X64177500Y-105450500D01*
G75*
G02*
X64327500Y-105300500I150000J0D01*
G01*
X65977500Y-105300500D01*
G75*
G02*
X66127500Y-105450500I0J-150000D01*
G01*
X66127500Y-105750500D01*
G75*
G02*
X65977500Y-105900500I-150000J0D01*
G01*
X64327500Y-105900500D01*
G75*
G02*
X64177500Y-105750500I0J150000D01*
G01*
G37*
G36*
G01*
X64177500Y-104480500D02*
X64177500Y-104180500D01*
G75*
G02*
X64327500Y-104030500I150000J0D01*
G01*
X65977500Y-104030500D01*
G75*
G02*
X66127500Y-104180500I0J-150000D01*
G01*
X66127500Y-104480500D01*
G75*
G02*
X65977500Y-104630500I-150000J0D01*
G01*
X64327500Y-104630500D01*
G75*
G02*
X64177500Y-104480500I0J150000D01*
G01*
G37*
G36*
G01*
X64177500Y-103210500D02*
X64177500Y-102910500D01*
G75*
G02*
X64327500Y-102760500I150000J0D01*
G01*
X65977500Y-102760500D01*
G75*
G02*
X66127500Y-102910500I0J-150000D01*
G01*
X66127500Y-103210500D01*
G75*
G02*
X65977500Y-103360500I-150000J0D01*
G01*
X64327500Y-103360500D01*
G75*
G02*
X64177500Y-103210500I0J150000D01*
G01*
G37*
G36*
G01*
X97131000Y-83589000D02*
X97131000Y-83289000D01*
G75*
G02*
X97281000Y-83139000I150000J0D01*
G01*
X98931000Y-83139000D01*
G75*
G02*
X99081000Y-83289000I0J-150000D01*
G01*
X99081000Y-83589000D01*
G75*
G02*
X98931000Y-83739000I-150000J0D01*
G01*
X97281000Y-83739000D01*
G75*
G02*
X97131000Y-83589000I0J150000D01*
G01*
G37*
G36*
G01*
X97131000Y-84859000D02*
X97131000Y-84559000D01*
G75*
G02*
X97281000Y-84409000I150000J0D01*
G01*
X98931000Y-84409000D01*
G75*
G02*
X99081000Y-84559000I0J-150000D01*
G01*
X99081000Y-84859000D01*
G75*
G02*
X98931000Y-85009000I-150000J0D01*
G01*
X97281000Y-85009000D01*
G75*
G02*
X97131000Y-84859000I0J150000D01*
G01*
G37*
G36*
G01*
X97131000Y-86129000D02*
X97131000Y-85829000D01*
G75*
G02*
X97281000Y-85679000I150000J0D01*
G01*
X98931000Y-85679000D01*
G75*
G02*
X99081000Y-85829000I0J-150000D01*
G01*
X99081000Y-86129000D01*
G75*
G02*
X98931000Y-86279000I-150000J0D01*
G01*
X97281000Y-86279000D01*
G75*
G02*
X97131000Y-86129000I0J150000D01*
G01*
G37*
G36*
G01*
X97131000Y-87399000D02*
X97131000Y-87099000D01*
G75*
G02*
X97281000Y-86949000I150000J0D01*
G01*
X98931000Y-86949000D01*
G75*
G02*
X99081000Y-87099000I0J-150000D01*
G01*
X99081000Y-87399000D01*
G75*
G02*
X98931000Y-87549000I-150000J0D01*
G01*
X97281000Y-87549000D01*
G75*
G02*
X97131000Y-87399000I0J150000D01*
G01*
G37*
G36*
G01*
X92181000Y-87399000D02*
X92181000Y-87099000D01*
G75*
G02*
X92331000Y-86949000I150000J0D01*
G01*
X93981000Y-86949000D01*
G75*
G02*
X94131000Y-87099000I0J-150000D01*
G01*
X94131000Y-87399000D01*
G75*
G02*
X93981000Y-87549000I-150000J0D01*
G01*
X92331000Y-87549000D01*
G75*
G02*
X92181000Y-87399000I0J150000D01*
G01*
G37*
G36*
G01*
X92181000Y-86129000D02*
X92181000Y-85829000D01*
G75*
G02*
X92331000Y-85679000I150000J0D01*
G01*
X93981000Y-85679000D01*
G75*
G02*
X94131000Y-85829000I0J-150000D01*
G01*
X94131000Y-86129000D01*
G75*
G02*
X93981000Y-86279000I-150000J0D01*
G01*
X92331000Y-86279000D01*
G75*
G02*
X92181000Y-86129000I0J150000D01*
G01*
G37*
G36*
G01*
X92181000Y-84859000D02*
X92181000Y-84559000D01*
G75*
G02*
X92331000Y-84409000I150000J0D01*
G01*
X93981000Y-84409000D01*
G75*
G02*
X94131000Y-84559000I0J-150000D01*
G01*
X94131000Y-84859000D01*
G75*
G02*
X93981000Y-85009000I-150000J0D01*
G01*
X92331000Y-85009000D01*
G75*
G02*
X92181000Y-84859000I0J150000D01*
G01*
G37*
G36*
G01*
X92181000Y-83589000D02*
X92181000Y-83289000D01*
G75*
G02*
X92331000Y-83139000I150000J0D01*
G01*
X93981000Y-83139000D01*
G75*
G02*
X94131000Y-83289000I0J-150000D01*
G01*
X94131000Y-83589000D01*
G75*
G02*
X93981000Y-83739000I-150000J0D01*
G01*
X92331000Y-83739000D01*
G75*
G02*
X92181000Y-83589000I0J150000D01*
G01*
G37*
D14*
X31623000Y-135763000D03*
X49403000Y-143383000D03*
X34163000Y-135763000D03*
X46863000Y-143383000D03*
X36703000Y-135763000D03*
X44323000Y-143383000D03*
X39243000Y-135763000D03*
X41783000Y-143383000D03*
X41783000Y-135763000D03*
X39243000Y-143383000D03*
X44323000Y-135763000D03*
X36703000Y-143383000D03*
X46863000Y-135763000D03*
X34163000Y-143383000D03*
X49403000Y-135763000D03*
D15*
X31623000Y-143383000D03*
D16*
X76708000Y-118514000D03*
X72208000Y-118514000D03*
X76708000Y-112014000D03*
X72208000Y-112014000D03*
G36*
G01*
X142242250Y-119284000D02*
X141729750Y-119284000D01*
G75*
G02*
X141511000Y-119065250I0J218750D01*
G01*
X141511000Y-118627750D01*
G75*
G02*
X141729750Y-118409000I218750J0D01*
G01*
X142242250Y-118409000D01*
G75*
G02*
X142461000Y-118627750I0J-218750D01*
G01*
X142461000Y-119065250D01*
G75*
G02*
X142242250Y-119284000I-218750J0D01*
G01*
G37*
G36*
G01*
X142242250Y-120859000D02*
X141729750Y-120859000D01*
G75*
G02*
X141511000Y-120640250I0J218750D01*
G01*
X141511000Y-120202750D01*
G75*
G02*
X141729750Y-119984000I218750J0D01*
G01*
X142242250Y-119984000D01*
G75*
G02*
X142461000Y-120202750I0J-218750D01*
G01*
X142461000Y-120640250D01*
G75*
G02*
X142242250Y-120859000I-218750J0D01*
G01*
G37*
G36*
G01*
X145290250Y-119284000D02*
X144777750Y-119284000D01*
G75*
G02*
X144559000Y-119065250I0J218750D01*
G01*
X144559000Y-118627750D01*
G75*
G02*
X144777750Y-118409000I218750J0D01*
G01*
X145290250Y-118409000D01*
G75*
G02*
X145509000Y-118627750I0J-218750D01*
G01*
X145509000Y-119065250D01*
G75*
G02*
X145290250Y-119284000I-218750J0D01*
G01*
G37*
G36*
G01*
X145290250Y-120859000D02*
X144777750Y-120859000D01*
G75*
G02*
X144559000Y-120640250I0J218750D01*
G01*
X144559000Y-120202750D01*
G75*
G02*
X144777750Y-119984000I218750J0D01*
G01*
X145290250Y-119984000D01*
G75*
G02*
X145509000Y-120202750I0J-218750D01*
G01*
X145509000Y-120640250D01*
G75*
G02*
X145290250Y-120859000I-218750J0D01*
G01*
G37*
G36*
G01*
X137129000Y-105005850D02*
X137129000Y-104493350D01*
G75*
G02*
X137347750Y-104274600I218750J0D01*
G01*
X137785250Y-104274600D01*
G75*
G02*
X138004000Y-104493350I0J-218750D01*
G01*
X138004000Y-105005850D01*
G75*
G02*
X137785250Y-105224600I-218750J0D01*
G01*
X137347750Y-105224600D01*
G75*
G02*
X137129000Y-105005850I0J218750D01*
G01*
G37*
G36*
G01*
X135554000Y-105005850D02*
X135554000Y-104493350D01*
G75*
G02*
X135772750Y-104274600I218750J0D01*
G01*
X136210250Y-104274600D01*
G75*
G02*
X136429000Y-104493350I0J-218750D01*
G01*
X136429000Y-105005850D01*
G75*
G02*
X136210250Y-105224600I-218750J0D01*
G01*
X135772750Y-105224600D01*
G75*
G02*
X135554000Y-105005850I0J218750D01*
G01*
G37*
G36*
G01*
X61880000Y-126616750D02*
X61880000Y-127129250D01*
G75*
G02*
X61661250Y-127348000I-218750J0D01*
G01*
X61223750Y-127348000D01*
G75*
G02*
X61005000Y-127129250I0J218750D01*
G01*
X61005000Y-126616750D01*
G75*
G02*
X61223750Y-126398000I218750J0D01*
G01*
X61661250Y-126398000D01*
G75*
G02*
X61880000Y-126616750I0J-218750D01*
G01*
G37*
G36*
G01*
X63455000Y-126616750D02*
X63455000Y-127129250D01*
G75*
G02*
X63236250Y-127348000I-218750J0D01*
G01*
X62798750Y-127348000D01*
G75*
G02*
X62580000Y-127129250I0J218750D01*
G01*
X62580000Y-126616750D01*
G75*
G02*
X62798750Y-126398000I218750J0D01*
G01*
X63236250Y-126398000D01*
G75*
G02*
X63455000Y-126616750I0J-218750D01*
G01*
G37*
G36*
G01*
X61638000Y-131061750D02*
X61638000Y-131574250D01*
G75*
G02*
X61419250Y-131793000I-218750J0D01*
G01*
X60981750Y-131793000D01*
G75*
G02*
X60763000Y-131574250I0J218750D01*
G01*
X60763000Y-131061750D01*
G75*
G02*
X60981750Y-130843000I218750J0D01*
G01*
X61419250Y-130843000D01*
G75*
G02*
X61638000Y-131061750I0J-218750D01*
G01*
G37*
G36*
G01*
X63213000Y-131061750D02*
X63213000Y-131574250D01*
G75*
G02*
X62994250Y-131793000I-218750J0D01*
G01*
X62556750Y-131793000D01*
G75*
G02*
X62338000Y-131574250I0J218750D01*
G01*
X62338000Y-131061750D01*
G75*
G02*
X62556750Y-130843000I218750J0D01*
G01*
X62994250Y-130843000D01*
G75*
G02*
X63213000Y-131061750I0J-218750D01*
G01*
G37*
G36*
G01*
X103883750Y-145257000D02*
X104396250Y-145257000D01*
G75*
G02*
X104615000Y-145475750I0J-218750D01*
G01*
X104615000Y-145913250D01*
G75*
G02*
X104396250Y-146132000I-218750J0D01*
G01*
X103883750Y-146132000D01*
G75*
G02*
X103665000Y-145913250I0J218750D01*
G01*
X103665000Y-145475750D01*
G75*
G02*
X103883750Y-145257000I218750J0D01*
G01*
G37*
G36*
G01*
X103883750Y-143682000D02*
X104396250Y-143682000D01*
G75*
G02*
X104615000Y-143900750I0J-218750D01*
G01*
X104615000Y-144338250D01*
G75*
G02*
X104396250Y-144557000I-218750J0D01*
G01*
X103883750Y-144557000D01*
G75*
G02*
X103665000Y-144338250I0J218750D01*
G01*
X103665000Y-143900750D01*
G75*
G02*
X103883750Y-143682000I218750J0D01*
G01*
G37*
G36*
G01*
X100073750Y-145257000D02*
X100586250Y-145257000D01*
G75*
G02*
X100805000Y-145475750I0J-218750D01*
G01*
X100805000Y-145913250D01*
G75*
G02*
X100586250Y-146132000I-218750J0D01*
G01*
X100073750Y-146132000D01*
G75*
G02*
X99855000Y-145913250I0J218750D01*
G01*
X99855000Y-145475750D01*
G75*
G02*
X100073750Y-145257000I218750J0D01*
G01*
G37*
G36*
G01*
X100073750Y-143682000D02*
X100586250Y-143682000D01*
G75*
G02*
X100805000Y-143900750I0J-218750D01*
G01*
X100805000Y-144338250D01*
G75*
G02*
X100586250Y-144557000I-218750J0D01*
G01*
X100073750Y-144557000D01*
G75*
G02*
X99855000Y-144338250I0J218750D01*
G01*
X99855000Y-143900750D01*
G75*
G02*
X100073750Y-143682000I218750J0D01*
G01*
G37*
G36*
G01*
X96263750Y-145257000D02*
X96776250Y-145257000D01*
G75*
G02*
X96995000Y-145475750I0J-218750D01*
G01*
X96995000Y-145913250D01*
G75*
G02*
X96776250Y-146132000I-218750J0D01*
G01*
X96263750Y-146132000D01*
G75*
G02*
X96045000Y-145913250I0J218750D01*
G01*
X96045000Y-145475750D01*
G75*
G02*
X96263750Y-145257000I218750J0D01*
G01*
G37*
G36*
G01*
X96263750Y-143682000D02*
X96776250Y-143682000D01*
G75*
G02*
X96995000Y-143900750I0J-218750D01*
G01*
X96995000Y-144338250D01*
G75*
G02*
X96776250Y-144557000I-218750J0D01*
G01*
X96263750Y-144557000D01*
G75*
G02*
X96045000Y-144338250I0J218750D01*
G01*
X96045000Y-143900750D01*
G75*
G02*
X96263750Y-143682000I218750J0D01*
G01*
G37*
G36*
G01*
X88008750Y-145257000D02*
X88521250Y-145257000D01*
G75*
G02*
X88740000Y-145475750I0J-218750D01*
G01*
X88740000Y-145913250D01*
G75*
G02*
X88521250Y-146132000I-218750J0D01*
G01*
X88008750Y-146132000D01*
G75*
G02*
X87790000Y-145913250I0J218750D01*
G01*
X87790000Y-145475750D01*
G75*
G02*
X88008750Y-145257000I218750J0D01*
G01*
G37*
G36*
G01*
X88008750Y-143682000D02*
X88521250Y-143682000D01*
G75*
G02*
X88740000Y-143900750I0J-218750D01*
G01*
X88740000Y-144338250D01*
G75*
G02*
X88521250Y-144557000I-218750J0D01*
G01*
X88008750Y-144557000D01*
G75*
G02*
X87790000Y-144338250I0J218750D01*
G01*
X87790000Y-143900750D01*
G75*
G02*
X88008750Y-143682000I218750J0D01*
G01*
G37*
G36*
G01*
X103502750Y-118333000D02*
X104015250Y-118333000D01*
G75*
G02*
X104234000Y-118551750I0J-218750D01*
G01*
X104234000Y-118989250D01*
G75*
G02*
X104015250Y-119208000I-218750J0D01*
G01*
X103502750Y-119208000D01*
G75*
G02*
X103284000Y-118989250I0J218750D01*
G01*
X103284000Y-118551750D01*
G75*
G02*
X103502750Y-118333000I218750J0D01*
G01*
G37*
G36*
G01*
X103502750Y-116758000D02*
X104015250Y-116758000D01*
G75*
G02*
X104234000Y-116976750I0J-218750D01*
G01*
X104234000Y-117414250D01*
G75*
G02*
X104015250Y-117633000I-218750J0D01*
G01*
X103502750Y-117633000D01*
G75*
G02*
X103284000Y-117414250I0J218750D01*
G01*
X103284000Y-116976750D01*
G75*
G02*
X103502750Y-116758000I218750J0D01*
G01*
G37*
G36*
G01*
X99692750Y-118333000D02*
X100205250Y-118333000D01*
G75*
G02*
X100424000Y-118551750I0J-218750D01*
G01*
X100424000Y-118989250D01*
G75*
G02*
X100205250Y-119208000I-218750J0D01*
G01*
X99692750Y-119208000D01*
G75*
G02*
X99474000Y-118989250I0J218750D01*
G01*
X99474000Y-118551750D01*
G75*
G02*
X99692750Y-118333000I218750J0D01*
G01*
G37*
G36*
G01*
X99692750Y-116758000D02*
X100205250Y-116758000D01*
G75*
G02*
X100424000Y-116976750I0J-218750D01*
G01*
X100424000Y-117414250D01*
G75*
G02*
X100205250Y-117633000I-218750J0D01*
G01*
X99692750Y-117633000D01*
G75*
G02*
X99474000Y-117414250I0J218750D01*
G01*
X99474000Y-116976750D01*
G75*
G02*
X99692750Y-116758000I218750J0D01*
G01*
G37*
G36*
G01*
X95882750Y-118333000D02*
X96395250Y-118333000D01*
G75*
G02*
X96614000Y-118551750I0J-218750D01*
G01*
X96614000Y-118989250D01*
G75*
G02*
X96395250Y-119208000I-218750J0D01*
G01*
X95882750Y-119208000D01*
G75*
G02*
X95664000Y-118989250I0J218750D01*
G01*
X95664000Y-118551750D01*
G75*
G02*
X95882750Y-118333000I218750J0D01*
G01*
G37*
G36*
G01*
X95882750Y-116758000D02*
X96395250Y-116758000D01*
G75*
G02*
X96614000Y-116976750I0J-218750D01*
G01*
X96614000Y-117414250D01*
G75*
G02*
X96395250Y-117633000I-218750J0D01*
G01*
X95882750Y-117633000D01*
G75*
G02*
X95664000Y-117414250I0J218750D01*
G01*
X95664000Y-116976750D01*
G75*
G02*
X95882750Y-116758000I218750J0D01*
G01*
G37*
G36*
G01*
X92072750Y-118333000D02*
X92585250Y-118333000D01*
G75*
G02*
X92804000Y-118551750I0J-218750D01*
G01*
X92804000Y-118989250D01*
G75*
G02*
X92585250Y-119208000I-218750J0D01*
G01*
X92072750Y-119208000D01*
G75*
G02*
X91854000Y-118989250I0J218750D01*
G01*
X91854000Y-118551750D01*
G75*
G02*
X92072750Y-118333000I218750J0D01*
G01*
G37*
G36*
G01*
X92072750Y-116758000D02*
X92585250Y-116758000D01*
G75*
G02*
X92804000Y-116976750I0J-218750D01*
G01*
X92804000Y-117414250D01*
G75*
G02*
X92585250Y-117633000I-218750J0D01*
G01*
X92072750Y-117633000D01*
G75*
G02*
X91854000Y-117414250I0J218750D01*
G01*
X91854000Y-116976750D01*
G75*
G02*
X92072750Y-116758000I218750J0D01*
G01*
G37*
G36*
G01*
X81057000Y-112265750D02*
X81057000Y-112778250D01*
G75*
G02*
X80838250Y-112997000I-218750J0D01*
G01*
X80400750Y-112997000D01*
G75*
G02*
X80182000Y-112778250I0J218750D01*
G01*
X80182000Y-112265750D01*
G75*
G02*
X80400750Y-112047000I218750J0D01*
G01*
X80838250Y-112047000D01*
G75*
G02*
X81057000Y-112265750I0J-218750D01*
G01*
G37*
G36*
G01*
X82632000Y-112265750D02*
X82632000Y-112778250D01*
G75*
G02*
X82413250Y-112997000I-218750J0D01*
G01*
X81975750Y-112997000D01*
G75*
G02*
X81757000Y-112778250I0J218750D01*
G01*
X81757000Y-112265750D01*
G75*
G02*
X81975750Y-112047000I218750J0D01*
G01*
X82413250Y-112047000D01*
G75*
G02*
X82632000Y-112265750I0J-218750D01*
G01*
G37*
G36*
G01*
X81757000Y-118747250D02*
X81757000Y-118234750D01*
G75*
G02*
X81975750Y-118016000I218750J0D01*
G01*
X82413250Y-118016000D01*
G75*
G02*
X82632000Y-118234750I0J-218750D01*
G01*
X82632000Y-118747250D01*
G75*
G02*
X82413250Y-118966000I-218750J0D01*
G01*
X81975750Y-118966000D01*
G75*
G02*
X81757000Y-118747250I0J218750D01*
G01*
G37*
G36*
G01*
X80182000Y-118747250D02*
X80182000Y-118234750D01*
G75*
G02*
X80400750Y-118016000I218750J0D01*
G01*
X80838250Y-118016000D01*
G75*
G02*
X81057000Y-118234750I0J-218750D01*
G01*
X81057000Y-118747250D01*
G75*
G02*
X80838250Y-118966000I-218750J0D01*
G01*
X80400750Y-118966000D01*
G75*
G02*
X80182000Y-118747250I0J218750D01*
G01*
G37*
G36*
G01*
X77086750Y-106776000D02*
X77599250Y-106776000D01*
G75*
G02*
X77818000Y-106994750I0J-218750D01*
G01*
X77818000Y-107432250D01*
G75*
G02*
X77599250Y-107651000I-218750J0D01*
G01*
X77086750Y-107651000D01*
G75*
G02*
X76868000Y-107432250I0J218750D01*
G01*
X76868000Y-106994750D01*
G75*
G02*
X77086750Y-106776000I218750J0D01*
G01*
G37*
G36*
G01*
X77086750Y-105201000D02*
X77599250Y-105201000D01*
G75*
G02*
X77818000Y-105419750I0J-218750D01*
G01*
X77818000Y-105857250D01*
G75*
G02*
X77599250Y-106076000I-218750J0D01*
G01*
X77086750Y-106076000D01*
G75*
G02*
X76868000Y-105857250I0J218750D01*
G01*
X76868000Y-105419750D01*
G75*
G02*
X77086750Y-105201000I218750J0D01*
G01*
G37*
G36*
G01*
X77086750Y-103601000D02*
X77599250Y-103601000D01*
G75*
G02*
X77818000Y-103819750I0J-218750D01*
G01*
X77818000Y-104257250D01*
G75*
G02*
X77599250Y-104476000I-218750J0D01*
G01*
X77086750Y-104476000D01*
G75*
G02*
X76868000Y-104257250I0J218750D01*
G01*
X76868000Y-103819750D01*
G75*
G02*
X77086750Y-103601000I218750J0D01*
G01*
G37*
G36*
G01*
X77086750Y-102026000D02*
X77599250Y-102026000D01*
G75*
G02*
X77818000Y-102244750I0J-218750D01*
G01*
X77818000Y-102682250D01*
G75*
G02*
X77599250Y-102901000I-218750J0D01*
G01*
X77086750Y-102901000D01*
G75*
G02*
X76868000Y-102682250I0J218750D01*
G01*
X76868000Y-102244750D01*
G75*
G02*
X77086750Y-102026000I218750J0D01*
G01*
G37*
G36*
G01*
X101377000Y-85214750D02*
X101377000Y-85727250D01*
G75*
G02*
X101158250Y-85946000I-218750J0D01*
G01*
X100720750Y-85946000D01*
G75*
G02*
X100502000Y-85727250I0J218750D01*
G01*
X100502000Y-85214750D01*
G75*
G02*
X100720750Y-84996000I218750J0D01*
G01*
X101158250Y-84996000D01*
G75*
G02*
X101377000Y-85214750I0J-218750D01*
G01*
G37*
G36*
G01*
X102952000Y-85214750D02*
X102952000Y-85727250D01*
G75*
G02*
X102733250Y-85946000I-218750J0D01*
G01*
X102295750Y-85946000D01*
G75*
G02*
X102077000Y-85727250I0J218750D01*
G01*
X102077000Y-85214750D01*
G75*
G02*
X102295750Y-84996000I218750J0D01*
G01*
X102733250Y-84996000D01*
G75*
G02*
X102952000Y-85214750I0J-218750D01*
G01*
G37*
G36*
G01*
X74800750Y-87154500D02*
X75313250Y-87154500D01*
G75*
G02*
X75532000Y-87373250I0J-218750D01*
G01*
X75532000Y-87810750D01*
G75*
G02*
X75313250Y-88029500I-218750J0D01*
G01*
X74800750Y-88029500D01*
G75*
G02*
X74582000Y-87810750I0J218750D01*
G01*
X74582000Y-87373250D01*
G75*
G02*
X74800750Y-87154500I218750J0D01*
G01*
G37*
G36*
G01*
X74800750Y-85579500D02*
X75313250Y-85579500D01*
G75*
G02*
X75532000Y-85798250I0J-218750D01*
G01*
X75532000Y-86235750D01*
G75*
G02*
X75313250Y-86454500I-218750J0D01*
G01*
X74800750Y-86454500D01*
G75*
G02*
X74582000Y-86235750I0J218750D01*
G01*
X74582000Y-85798250D01*
G75*
G02*
X74800750Y-85579500I218750J0D01*
G01*
G37*
G36*
G01*
X49180000Y-93088750D02*
X49180000Y-93601250D01*
G75*
G02*
X48961250Y-93820000I-218750J0D01*
G01*
X48523750Y-93820000D01*
G75*
G02*
X48305000Y-93601250I0J218750D01*
G01*
X48305000Y-93088750D01*
G75*
G02*
X48523750Y-92870000I218750J0D01*
G01*
X48961250Y-92870000D01*
G75*
G02*
X49180000Y-93088750I0J-218750D01*
G01*
G37*
G36*
G01*
X50755000Y-93088750D02*
X50755000Y-93601250D01*
G75*
G02*
X50536250Y-93820000I-218750J0D01*
G01*
X50098750Y-93820000D01*
G75*
G02*
X49880000Y-93601250I0J218750D01*
G01*
X49880000Y-93088750D01*
G75*
G02*
X50098750Y-92870000I218750J0D01*
G01*
X50536250Y-92870000D01*
G75*
G02*
X50755000Y-93088750I0J-218750D01*
G01*
G37*
G36*
G01*
X70990750Y-87141800D02*
X71503250Y-87141800D01*
G75*
G02*
X71722000Y-87360550I0J-218750D01*
G01*
X71722000Y-87798050D01*
G75*
G02*
X71503250Y-88016800I-218750J0D01*
G01*
X70990750Y-88016800D01*
G75*
G02*
X70772000Y-87798050I0J218750D01*
G01*
X70772000Y-87360550D01*
G75*
G02*
X70990750Y-87141800I218750J0D01*
G01*
G37*
G36*
G01*
X70990750Y-85566800D02*
X71503250Y-85566800D01*
G75*
G02*
X71722000Y-85785550I0J-218750D01*
G01*
X71722000Y-86223050D01*
G75*
G02*
X71503250Y-86441800I-218750J0D01*
G01*
X70990750Y-86441800D01*
G75*
G02*
X70772000Y-86223050I0J218750D01*
G01*
X70772000Y-85785550D01*
G75*
G02*
X70990750Y-85566800I218750J0D01*
G01*
G37*
G36*
G01*
X47775000Y-81739000D02*
X47475000Y-81739000D01*
G75*
G02*
X47325000Y-81589000I0J150000D01*
G01*
X47325000Y-80139000D01*
G75*
G02*
X47475000Y-79989000I150000J0D01*
G01*
X47775000Y-79989000D01*
G75*
G02*
X47925000Y-80139000I0J-150000D01*
G01*
X47925000Y-81589000D01*
G75*
G02*
X47775000Y-81739000I-150000J0D01*
G01*
G37*
G36*
G01*
X49045000Y-81739000D02*
X48745000Y-81739000D01*
G75*
G02*
X48595000Y-81589000I0J150000D01*
G01*
X48595000Y-80139000D01*
G75*
G02*
X48745000Y-79989000I150000J0D01*
G01*
X49045000Y-79989000D01*
G75*
G02*
X49195000Y-80139000I0J-150000D01*
G01*
X49195000Y-81589000D01*
G75*
G02*
X49045000Y-81739000I-150000J0D01*
G01*
G37*
G36*
G01*
X50315000Y-81739000D02*
X50015000Y-81739000D01*
G75*
G02*
X49865000Y-81589000I0J150000D01*
G01*
X49865000Y-80139000D01*
G75*
G02*
X50015000Y-79989000I150000J0D01*
G01*
X50315000Y-79989000D01*
G75*
G02*
X50465000Y-80139000I0J-150000D01*
G01*
X50465000Y-81589000D01*
G75*
G02*
X50315000Y-81739000I-150000J0D01*
G01*
G37*
G36*
G01*
X51585000Y-81739000D02*
X51285000Y-81739000D01*
G75*
G02*
X51135000Y-81589000I0J150000D01*
G01*
X51135000Y-80139000D01*
G75*
G02*
X51285000Y-79989000I150000J0D01*
G01*
X51585000Y-79989000D01*
G75*
G02*
X51735000Y-80139000I0J-150000D01*
G01*
X51735000Y-81589000D01*
G75*
G02*
X51585000Y-81739000I-150000J0D01*
G01*
G37*
G36*
G01*
X51585000Y-86889000D02*
X51285000Y-86889000D01*
G75*
G02*
X51135000Y-86739000I0J150000D01*
G01*
X51135000Y-85289000D01*
G75*
G02*
X51285000Y-85139000I150000J0D01*
G01*
X51585000Y-85139000D01*
G75*
G02*
X51735000Y-85289000I0J-150000D01*
G01*
X51735000Y-86739000D01*
G75*
G02*
X51585000Y-86889000I-150000J0D01*
G01*
G37*
G36*
G01*
X50315000Y-86889000D02*
X50015000Y-86889000D01*
G75*
G02*
X49865000Y-86739000I0J150000D01*
G01*
X49865000Y-85289000D01*
G75*
G02*
X50015000Y-85139000I150000J0D01*
G01*
X50315000Y-85139000D01*
G75*
G02*
X50465000Y-85289000I0J-150000D01*
G01*
X50465000Y-86739000D01*
G75*
G02*
X50315000Y-86889000I-150000J0D01*
G01*
G37*
G36*
G01*
X49045000Y-86889000D02*
X48745000Y-86889000D01*
G75*
G02*
X48595000Y-86739000I0J150000D01*
G01*
X48595000Y-85289000D01*
G75*
G02*
X48745000Y-85139000I150000J0D01*
G01*
X49045000Y-85139000D01*
G75*
G02*
X49195000Y-85289000I0J-150000D01*
G01*
X49195000Y-86739000D01*
G75*
G02*
X49045000Y-86889000I-150000J0D01*
G01*
G37*
G36*
G01*
X47775000Y-86889000D02*
X47475000Y-86889000D01*
G75*
G02*
X47325000Y-86739000I0J150000D01*
G01*
X47325000Y-85289000D01*
G75*
G02*
X47475000Y-85139000I150000J0D01*
G01*
X47775000Y-85139000D01*
G75*
G02*
X47925000Y-85289000I0J-150000D01*
G01*
X47925000Y-86739000D01*
G75*
G02*
X47775000Y-86889000I-150000J0D01*
G01*
G37*
D17*
X81280000Y-114570000D03*
X82230000Y-116570000D03*
X80330000Y-116570000D03*
D18*
X133096000Y-130429000D03*
D19*
X133096000Y-132969000D03*
D18*
X137414000Y-132969000D03*
X137414000Y-130429000D03*
X139954000Y-132969000D03*
X139954000Y-130429000D03*
X142494000Y-132969000D03*
D19*
X142494000Y-130429000D03*
D18*
X142494000Y-125704600D03*
X139954000Y-125704600D03*
X137414000Y-125704600D03*
X134874000Y-125704600D03*
X132334000Y-125704600D03*
X129794000Y-125704600D03*
X127254000Y-125704600D03*
D19*
X124714000Y-125704600D03*
D20*
X41402000Y-84251800D03*
G36*
G01*
X33902000Y-85251800D02*
X33902000Y-83251800D01*
G75*
G02*
X34652000Y-82501800I750000J0D01*
G01*
X36152000Y-82501800D01*
G75*
G02*
X36902000Y-83251800I0J-750000D01*
G01*
X36902000Y-85251800D01*
G75*
G02*
X36152000Y-86001800I-750000J0D01*
G01*
X34652000Y-86001800D01*
G75*
G02*
X33902000Y-85251800I0J750000D01*
G01*
G37*
G36*
G01*
X36652000Y-89826800D02*
X36652000Y-88076800D01*
G75*
G02*
X37527000Y-87201800I875000J0D01*
G01*
X39277000Y-87201800D01*
G75*
G02*
X40152000Y-88076800I0J-875000D01*
G01*
X40152000Y-89826800D01*
G75*
G02*
X39277000Y-90701800I-875000J0D01*
G01*
X37527000Y-90701800D01*
G75*
G02*
X36652000Y-89826800I0J875000D01*
G01*
G37*
G36*
G01*
X75313250Y-82631800D02*
X74800750Y-82631800D01*
G75*
G02*
X74582000Y-82413050I0J218750D01*
G01*
X74582000Y-81975550D01*
G75*
G02*
X74800750Y-81756800I218750J0D01*
G01*
X75313250Y-81756800D01*
G75*
G02*
X75532000Y-81975550I0J-218750D01*
G01*
X75532000Y-82413050D01*
G75*
G02*
X75313250Y-82631800I-218750J0D01*
G01*
G37*
G36*
G01*
X75313250Y-84206800D02*
X74800750Y-84206800D01*
G75*
G02*
X74582000Y-83988050I0J218750D01*
G01*
X74582000Y-83550550D01*
G75*
G02*
X74800750Y-83331800I218750J0D01*
G01*
X75313250Y-83331800D01*
G75*
G02*
X75532000Y-83550550I0J-218750D01*
G01*
X75532000Y-83988050D01*
G75*
G02*
X75313250Y-84206800I-218750J0D01*
G01*
G37*
G36*
G01*
X71503250Y-82631800D02*
X70990750Y-82631800D01*
G75*
G02*
X70772000Y-82413050I0J218750D01*
G01*
X70772000Y-81975550D01*
G75*
G02*
X70990750Y-81756800I218750J0D01*
G01*
X71503250Y-81756800D01*
G75*
G02*
X71722000Y-81975550I0J-218750D01*
G01*
X71722000Y-82413050D01*
G75*
G02*
X71503250Y-82631800I-218750J0D01*
G01*
G37*
G36*
G01*
X71503250Y-84206800D02*
X70990750Y-84206800D01*
G75*
G02*
X70772000Y-83988050I0J218750D01*
G01*
X70772000Y-83550550D01*
G75*
G02*
X70990750Y-83331800I218750J0D01*
G01*
X71503250Y-83331800D01*
G75*
G02*
X71722000Y-83550550I0J-218750D01*
G01*
X71722000Y-83988050D01*
G75*
G02*
X71503250Y-84206800I-218750J0D01*
G01*
G37*
G36*
G01*
X104015250Y-113823000D02*
X103502750Y-113823000D01*
G75*
G02*
X103284000Y-113604250I0J218750D01*
G01*
X103284000Y-113166750D01*
G75*
G02*
X103502750Y-112948000I218750J0D01*
G01*
X104015250Y-112948000D01*
G75*
G02*
X104234000Y-113166750I0J-218750D01*
G01*
X104234000Y-113604250D01*
G75*
G02*
X104015250Y-113823000I-218750J0D01*
G01*
G37*
G36*
G01*
X104015250Y-115398000D02*
X103502750Y-115398000D01*
G75*
G02*
X103284000Y-115179250I0J218750D01*
G01*
X103284000Y-114741750D01*
G75*
G02*
X103502750Y-114523000I218750J0D01*
G01*
X104015250Y-114523000D01*
G75*
G02*
X104234000Y-114741750I0J-218750D01*
G01*
X104234000Y-115179250D01*
G75*
G02*
X104015250Y-115398000I-218750J0D01*
G01*
G37*
G36*
G01*
X100205250Y-113823000D02*
X99692750Y-113823000D01*
G75*
G02*
X99474000Y-113604250I0J218750D01*
G01*
X99474000Y-113166750D01*
G75*
G02*
X99692750Y-112948000I218750J0D01*
G01*
X100205250Y-112948000D01*
G75*
G02*
X100424000Y-113166750I0J-218750D01*
G01*
X100424000Y-113604250D01*
G75*
G02*
X100205250Y-113823000I-218750J0D01*
G01*
G37*
G36*
G01*
X100205250Y-115398000D02*
X99692750Y-115398000D01*
G75*
G02*
X99474000Y-115179250I0J218750D01*
G01*
X99474000Y-114741750D01*
G75*
G02*
X99692750Y-114523000I218750J0D01*
G01*
X100205250Y-114523000D01*
G75*
G02*
X100424000Y-114741750I0J-218750D01*
G01*
X100424000Y-115179250D01*
G75*
G02*
X100205250Y-115398000I-218750J0D01*
G01*
G37*
G36*
G01*
X96395250Y-113823000D02*
X95882750Y-113823000D01*
G75*
G02*
X95664000Y-113604250I0J218750D01*
G01*
X95664000Y-113166750D01*
G75*
G02*
X95882750Y-112948000I218750J0D01*
G01*
X96395250Y-112948000D01*
G75*
G02*
X96614000Y-113166750I0J-218750D01*
G01*
X96614000Y-113604250D01*
G75*
G02*
X96395250Y-113823000I-218750J0D01*
G01*
G37*
G36*
G01*
X96395250Y-115398000D02*
X95882750Y-115398000D01*
G75*
G02*
X95664000Y-115179250I0J218750D01*
G01*
X95664000Y-114741750D01*
G75*
G02*
X95882750Y-114523000I218750J0D01*
G01*
X96395250Y-114523000D01*
G75*
G02*
X96614000Y-114741750I0J-218750D01*
G01*
X96614000Y-115179250D01*
G75*
G02*
X96395250Y-115398000I-218750J0D01*
G01*
G37*
G36*
G01*
X92585250Y-113823000D02*
X92072750Y-113823000D01*
G75*
G02*
X91854000Y-113604250I0J218750D01*
G01*
X91854000Y-113166750D01*
G75*
G02*
X92072750Y-112948000I218750J0D01*
G01*
X92585250Y-112948000D01*
G75*
G02*
X92804000Y-113166750I0J-218750D01*
G01*
X92804000Y-113604250D01*
G75*
G02*
X92585250Y-113823000I-218750J0D01*
G01*
G37*
G36*
G01*
X92585250Y-115398000D02*
X92072750Y-115398000D01*
G75*
G02*
X91854000Y-115179250I0J218750D01*
G01*
X91854000Y-114741750D01*
G75*
G02*
X92072750Y-114523000I218750J0D01*
G01*
X92585250Y-114523000D01*
G75*
G02*
X92804000Y-114741750I0J-218750D01*
G01*
X92804000Y-115179250D01*
G75*
G02*
X92585250Y-115398000I-218750J0D01*
G01*
G37*
G36*
G01*
X104396250Y-140747000D02*
X103883750Y-140747000D01*
G75*
G02*
X103665000Y-140528250I0J218750D01*
G01*
X103665000Y-140090750D01*
G75*
G02*
X103883750Y-139872000I218750J0D01*
G01*
X104396250Y-139872000D01*
G75*
G02*
X104615000Y-140090750I0J-218750D01*
G01*
X104615000Y-140528250D01*
G75*
G02*
X104396250Y-140747000I-218750J0D01*
G01*
G37*
G36*
G01*
X104396250Y-142322000D02*
X103883750Y-142322000D01*
G75*
G02*
X103665000Y-142103250I0J218750D01*
G01*
X103665000Y-141665750D01*
G75*
G02*
X103883750Y-141447000I218750J0D01*
G01*
X104396250Y-141447000D01*
G75*
G02*
X104615000Y-141665750I0J-218750D01*
G01*
X104615000Y-142103250D01*
G75*
G02*
X104396250Y-142322000I-218750J0D01*
G01*
G37*
G36*
G01*
X100586250Y-140747000D02*
X100073750Y-140747000D01*
G75*
G02*
X99855000Y-140528250I0J218750D01*
G01*
X99855000Y-140090750D01*
G75*
G02*
X100073750Y-139872000I218750J0D01*
G01*
X100586250Y-139872000D01*
G75*
G02*
X100805000Y-140090750I0J-218750D01*
G01*
X100805000Y-140528250D01*
G75*
G02*
X100586250Y-140747000I-218750J0D01*
G01*
G37*
G36*
G01*
X100586250Y-142322000D02*
X100073750Y-142322000D01*
G75*
G02*
X99855000Y-142103250I0J218750D01*
G01*
X99855000Y-141665750D01*
G75*
G02*
X100073750Y-141447000I218750J0D01*
G01*
X100586250Y-141447000D01*
G75*
G02*
X100805000Y-141665750I0J-218750D01*
G01*
X100805000Y-142103250D01*
G75*
G02*
X100586250Y-142322000I-218750J0D01*
G01*
G37*
G36*
G01*
X96776250Y-140747000D02*
X96263750Y-140747000D01*
G75*
G02*
X96045000Y-140528250I0J218750D01*
G01*
X96045000Y-140090750D01*
G75*
G02*
X96263750Y-139872000I218750J0D01*
G01*
X96776250Y-139872000D01*
G75*
G02*
X96995000Y-140090750I0J-218750D01*
G01*
X96995000Y-140528250D01*
G75*
G02*
X96776250Y-140747000I-218750J0D01*
G01*
G37*
G36*
G01*
X96776250Y-142322000D02*
X96263750Y-142322000D01*
G75*
G02*
X96045000Y-142103250I0J218750D01*
G01*
X96045000Y-141665750D01*
G75*
G02*
X96263750Y-141447000I218750J0D01*
G01*
X96776250Y-141447000D01*
G75*
G02*
X96995000Y-141665750I0J-218750D01*
G01*
X96995000Y-142103250D01*
G75*
G02*
X96776250Y-142322000I-218750J0D01*
G01*
G37*
G36*
G01*
X88521250Y-140747000D02*
X88008750Y-140747000D01*
G75*
G02*
X87790000Y-140528250I0J218750D01*
G01*
X87790000Y-140090750D01*
G75*
G02*
X88008750Y-139872000I218750J0D01*
G01*
X88521250Y-139872000D01*
G75*
G02*
X88740000Y-140090750I0J-218750D01*
G01*
X88740000Y-140528250D01*
G75*
G02*
X88521250Y-140747000I-218750J0D01*
G01*
G37*
G36*
G01*
X88521250Y-142322000D02*
X88008750Y-142322000D01*
G75*
G02*
X87790000Y-142103250I0J218750D01*
G01*
X87790000Y-141665750D01*
G75*
G02*
X88008750Y-141447000I218750J0D01*
G01*
X88521250Y-141447000D01*
G75*
G02*
X88740000Y-141665750I0J-218750D01*
G01*
X88740000Y-142103250D01*
G75*
G02*
X88521250Y-142322000I-218750J0D01*
G01*
G37*
G36*
G01*
X73883000Y-107190250D02*
X73883000Y-106677750D01*
G75*
G02*
X74101750Y-106459000I218750J0D01*
G01*
X74539250Y-106459000D01*
G75*
G02*
X74758000Y-106677750I0J-218750D01*
G01*
X74758000Y-107190250D01*
G75*
G02*
X74539250Y-107409000I-218750J0D01*
G01*
X74101750Y-107409000D01*
G75*
G02*
X73883000Y-107190250I0J218750D01*
G01*
G37*
G36*
G01*
X72308000Y-107190250D02*
X72308000Y-106677750D01*
G75*
G02*
X72526750Y-106459000I218750J0D01*
G01*
X72964250Y-106459000D01*
G75*
G02*
X73183000Y-106677750I0J-218750D01*
G01*
X73183000Y-107190250D01*
G75*
G02*
X72964250Y-107409000I-218750J0D01*
G01*
X72526750Y-107409000D01*
G75*
G02*
X72308000Y-107190250I0J218750D01*
G01*
G37*
G36*
G01*
X73883000Y-103253250D02*
X73883000Y-102740750D01*
G75*
G02*
X74101750Y-102522000I218750J0D01*
G01*
X74539250Y-102522000D01*
G75*
G02*
X74758000Y-102740750I0J-218750D01*
G01*
X74758000Y-103253250D01*
G75*
G02*
X74539250Y-103472000I-218750J0D01*
G01*
X74101750Y-103472000D01*
G75*
G02*
X73883000Y-103253250I0J218750D01*
G01*
G37*
G36*
G01*
X72308000Y-103253250D02*
X72308000Y-102740750D01*
G75*
G02*
X72526750Y-102522000I218750J0D01*
G01*
X72964250Y-102522000D01*
G75*
G02*
X73183000Y-102740750I0J-218750D01*
G01*
X73183000Y-103253250D01*
G75*
G02*
X72964250Y-103472000I-218750J0D01*
G01*
X72526750Y-103472000D01*
G75*
G02*
X72308000Y-103253250I0J218750D01*
G01*
G37*
G36*
G01*
X35562250Y-105060000D02*
X35049750Y-105060000D01*
G75*
G02*
X34831000Y-104841250I0J218750D01*
G01*
X34831000Y-104403750D01*
G75*
G02*
X35049750Y-104185000I218750J0D01*
G01*
X35562250Y-104185000D01*
G75*
G02*
X35781000Y-104403750I0J-218750D01*
G01*
X35781000Y-104841250D01*
G75*
G02*
X35562250Y-105060000I-218750J0D01*
G01*
G37*
G36*
G01*
X35562250Y-106635000D02*
X35049750Y-106635000D01*
G75*
G02*
X34831000Y-106416250I0J218750D01*
G01*
X34831000Y-105978750D01*
G75*
G02*
X35049750Y-105760000I218750J0D01*
G01*
X35562250Y-105760000D01*
G75*
G02*
X35781000Y-105978750I0J-218750D01*
G01*
X35781000Y-106416250D01*
G75*
G02*
X35562250Y-106635000I-218750J0D01*
G01*
G37*
G36*
G01*
X41277250Y-105060000D02*
X40764750Y-105060000D01*
G75*
G02*
X40546000Y-104841250I0J218750D01*
G01*
X40546000Y-104403750D01*
G75*
G02*
X40764750Y-104185000I218750J0D01*
G01*
X41277250Y-104185000D01*
G75*
G02*
X41496000Y-104403750I0J-218750D01*
G01*
X41496000Y-104841250D01*
G75*
G02*
X41277250Y-105060000I-218750J0D01*
G01*
G37*
G36*
G01*
X41277250Y-106635000D02*
X40764750Y-106635000D01*
G75*
G02*
X40546000Y-106416250I0J218750D01*
G01*
X40546000Y-105978750D01*
G75*
G02*
X40764750Y-105760000I218750J0D01*
G01*
X41277250Y-105760000D01*
G75*
G02*
X41496000Y-105978750I0J-218750D01*
G01*
X41496000Y-106416250D01*
G75*
G02*
X41277250Y-106635000I-218750J0D01*
G01*
G37*
G36*
G01*
X47148000Y-113916750D02*
X47148000Y-114429250D01*
G75*
G02*
X46929250Y-114648000I-218750J0D01*
G01*
X46491750Y-114648000D01*
G75*
G02*
X46273000Y-114429250I0J218750D01*
G01*
X46273000Y-113916750D01*
G75*
G02*
X46491750Y-113698000I218750J0D01*
G01*
X46929250Y-113698000D01*
G75*
G02*
X47148000Y-113916750I0J-218750D01*
G01*
G37*
G36*
G01*
X48723000Y-113916750D02*
X48723000Y-114429250D01*
G75*
G02*
X48504250Y-114648000I-218750J0D01*
G01*
X48066750Y-114648000D01*
G75*
G02*
X47848000Y-114429250I0J218750D01*
G01*
X47848000Y-113916750D01*
G75*
G02*
X48066750Y-113698000I218750J0D01*
G01*
X48504250Y-113698000D01*
G75*
G02*
X48723000Y-113916750I0J-218750D01*
G01*
G37*
G36*
G01*
X38323000Y-114429250D02*
X38323000Y-113916750D01*
G75*
G02*
X38541750Y-113698000I218750J0D01*
G01*
X38979250Y-113698000D01*
G75*
G02*
X39198000Y-113916750I0J-218750D01*
G01*
X39198000Y-114429250D01*
G75*
G02*
X38979250Y-114648000I-218750J0D01*
G01*
X38541750Y-114648000D01*
G75*
G02*
X38323000Y-114429250I0J218750D01*
G01*
G37*
G36*
G01*
X36748000Y-114429250D02*
X36748000Y-113916750D01*
G75*
G02*
X36966750Y-113698000I218750J0D01*
G01*
X37404250Y-113698000D01*
G75*
G02*
X37623000Y-113916750I0J-218750D01*
G01*
X37623000Y-114429250D01*
G75*
G02*
X37404250Y-114648000I-218750J0D01*
G01*
X36966750Y-114648000D01*
G75*
G02*
X36748000Y-114429250I0J218750D01*
G01*
G37*
G36*
G01*
X61880000Y-122806750D02*
X61880000Y-123319250D01*
G75*
G02*
X61661250Y-123538000I-218750J0D01*
G01*
X61223750Y-123538000D01*
G75*
G02*
X61005000Y-123319250I0J218750D01*
G01*
X61005000Y-122806750D01*
G75*
G02*
X61223750Y-122588000I218750J0D01*
G01*
X61661250Y-122588000D01*
G75*
G02*
X61880000Y-122806750I0J-218750D01*
G01*
G37*
G36*
G01*
X63455000Y-122806750D02*
X63455000Y-123319250D01*
G75*
G02*
X63236250Y-123538000I-218750J0D01*
G01*
X62798750Y-123538000D01*
G75*
G02*
X62580000Y-123319250I0J218750D01*
G01*
X62580000Y-122806750D01*
G75*
G02*
X62798750Y-122588000I218750J0D01*
G01*
X63236250Y-122588000D01*
G75*
G02*
X63455000Y-122806750I0J-218750D01*
G01*
G37*
G36*
G01*
X69373000Y-135506750D02*
X69373000Y-136019250D01*
G75*
G02*
X69154250Y-136238000I-218750J0D01*
G01*
X68716750Y-136238000D01*
G75*
G02*
X68498000Y-136019250I0J218750D01*
G01*
X68498000Y-135506750D01*
G75*
G02*
X68716750Y-135288000I218750J0D01*
G01*
X69154250Y-135288000D01*
G75*
G02*
X69373000Y-135506750I0J-218750D01*
G01*
G37*
G36*
G01*
X70948000Y-135506750D02*
X70948000Y-136019250D01*
G75*
G02*
X70729250Y-136238000I-218750J0D01*
G01*
X70291750Y-136238000D01*
G75*
G02*
X70073000Y-136019250I0J218750D01*
G01*
X70073000Y-135506750D01*
G75*
G02*
X70291750Y-135288000I218750J0D01*
G01*
X70729250Y-135288000D01*
G75*
G02*
X70948000Y-135506750I0J-218750D01*
G01*
G37*
G36*
G01*
X59405000Y-114429250D02*
X59405000Y-113916750D01*
G75*
G02*
X59623750Y-113698000I218750J0D01*
G01*
X60061250Y-113698000D01*
G75*
G02*
X60280000Y-113916750I0J-218750D01*
G01*
X60280000Y-114429250D01*
G75*
G02*
X60061250Y-114648000I-218750J0D01*
G01*
X59623750Y-114648000D01*
G75*
G02*
X59405000Y-114429250I0J218750D01*
G01*
G37*
G36*
G01*
X57830000Y-114429250D02*
X57830000Y-113916750D01*
G75*
G02*
X58048750Y-113698000I218750J0D01*
G01*
X58486250Y-113698000D01*
G75*
G02*
X58705000Y-113916750I0J-218750D01*
G01*
X58705000Y-114429250D01*
G75*
G02*
X58486250Y-114648000I-218750J0D01*
G01*
X58048750Y-114648000D01*
G75*
G02*
X57830000Y-114429250I0J218750D01*
G01*
G37*
G36*
G01*
X101315000Y-131828250D02*
X101315000Y-131315750D01*
G75*
G02*
X101533750Y-131097000I218750J0D01*
G01*
X101971250Y-131097000D01*
G75*
G02*
X102190000Y-131315750I0J-218750D01*
G01*
X102190000Y-131828250D01*
G75*
G02*
X101971250Y-132047000I-218750J0D01*
G01*
X101533750Y-132047000D01*
G75*
G02*
X101315000Y-131828250I0J218750D01*
G01*
G37*
G36*
G01*
X99740000Y-131828250D02*
X99740000Y-131315750D01*
G75*
G02*
X99958750Y-131097000I218750J0D01*
G01*
X100396250Y-131097000D01*
G75*
G02*
X100615000Y-131315750I0J-218750D01*
G01*
X100615000Y-131828250D01*
G75*
G02*
X100396250Y-132047000I-218750J0D01*
G01*
X99958750Y-132047000D01*
G75*
G02*
X99740000Y-131828250I0J218750D01*
G01*
G37*
G36*
G01*
X101315000Y-124208250D02*
X101315000Y-123695750D01*
G75*
G02*
X101533750Y-123477000I218750J0D01*
G01*
X101971250Y-123477000D01*
G75*
G02*
X102190000Y-123695750I0J-218750D01*
G01*
X102190000Y-124208250D01*
G75*
G02*
X101971250Y-124427000I-218750J0D01*
G01*
X101533750Y-124427000D01*
G75*
G02*
X101315000Y-124208250I0J218750D01*
G01*
G37*
G36*
G01*
X99740000Y-124208250D02*
X99740000Y-123695750D01*
G75*
G02*
X99958750Y-123477000I218750J0D01*
G01*
X100396250Y-123477000D01*
G75*
G02*
X100615000Y-123695750I0J-218750D01*
G01*
X100615000Y-124208250D01*
G75*
G02*
X100396250Y-124427000I-218750J0D01*
G01*
X99958750Y-124427000D01*
G75*
G02*
X99740000Y-124208250I0J218750D01*
G01*
G37*
G36*
G01*
X112045000Y-122425750D02*
X112045000Y-122938250D01*
G75*
G02*
X111826250Y-123157000I-218750J0D01*
G01*
X111388750Y-123157000D01*
G75*
G02*
X111170000Y-122938250I0J218750D01*
G01*
X111170000Y-122425750D01*
G75*
G02*
X111388750Y-122207000I218750J0D01*
G01*
X111826250Y-122207000D01*
G75*
G02*
X112045000Y-122425750I0J-218750D01*
G01*
G37*
G36*
G01*
X113620000Y-122425750D02*
X113620000Y-122938250D01*
G75*
G02*
X113401250Y-123157000I-218750J0D01*
G01*
X112963750Y-123157000D01*
G75*
G02*
X112745000Y-122938250I0J218750D01*
G01*
X112745000Y-122425750D01*
G75*
G02*
X112963750Y-122207000I218750J0D01*
G01*
X113401250Y-122207000D01*
G75*
G02*
X113620000Y-122425750I0J-218750D01*
G01*
G37*
G36*
G01*
X85375000Y-122425750D02*
X85375000Y-122938250D01*
G75*
G02*
X85156250Y-123157000I-218750J0D01*
G01*
X84718750Y-123157000D01*
G75*
G02*
X84500000Y-122938250I0J218750D01*
G01*
X84500000Y-122425750D01*
G75*
G02*
X84718750Y-122207000I218750J0D01*
G01*
X85156250Y-122207000D01*
G75*
G02*
X85375000Y-122425750I0J-218750D01*
G01*
G37*
G36*
G01*
X86950000Y-122425750D02*
X86950000Y-122938250D01*
G75*
G02*
X86731250Y-123157000I-218750J0D01*
G01*
X86293750Y-123157000D01*
G75*
G02*
X86075000Y-122938250I0J218750D01*
G01*
X86075000Y-122425750D01*
G75*
G02*
X86293750Y-122207000I218750J0D01*
G01*
X86731250Y-122207000D01*
G75*
G02*
X86950000Y-122425750I0J-218750D01*
G01*
G37*
G36*
G01*
X123065250Y-119131600D02*
X122552750Y-119131600D01*
G75*
G02*
X122334000Y-118912850I0J218750D01*
G01*
X122334000Y-118475350D01*
G75*
G02*
X122552750Y-118256600I218750J0D01*
G01*
X123065250Y-118256600D01*
G75*
G02*
X123284000Y-118475350I0J-218750D01*
G01*
X123284000Y-118912850D01*
G75*
G02*
X123065250Y-119131600I-218750J0D01*
G01*
G37*
G36*
G01*
X123065250Y-120706600D02*
X122552750Y-120706600D01*
G75*
G02*
X122334000Y-120487850I0J218750D01*
G01*
X122334000Y-120050350D01*
G75*
G02*
X122552750Y-119831600I218750J0D01*
G01*
X123065250Y-119831600D01*
G75*
G02*
X123284000Y-120050350I0J-218750D01*
G01*
X123284000Y-120487850D01*
G75*
G02*
X123065250Y-120706600I-218750J0D01*
G01*
G37*
G36*
G01*
X123065250Y-115321600D02*
X122552750Y-115321600D01*
G75*
G02*
X122334000Y-115102850I0J218750D01*
G01*
X122334000Y-114665350D01*
G75*
G02*
X122552750Y-114446600I218750J0D01*
G01*
X123065250Y-114446600D01*
G75*
G02*
X123284000Y-114665350I0J-218750D01*
G01*
X123284000Y-115102850D01*
G75*
G02*
X123065250Y-115321600I-218750J0D01*
G01*
G37*
G36*
G01*
X123065250Y-116896600D02*
X122552750Y-116896600D01*
G75*
G02*
X122334000Y-116677850I0J218750D01*
G01*
X122334000Y-116240350D01*
G75*
G02*
X122552750Y-116021600I218750J0D01*
G01*
X123065250Y-116021600D01*
G75*
G02*
X123284000Y-116240350I0J-218750D01*
G01*
X123284000Y-116677850D01*
G75*
G02*
X123065250Y-116896600I-218750J0D01*
G01*
G37*
G36*
G01*
X131442750Y-112719600D02*
X131955250Y-112719600D01*
G75*
G02*
X132174000Y-112938350I0J-218750D01*
G01*
X132174000Y-113375850D01*
G75*
G02*
X131955250Y-113594600I-218750J0D01*
G01*
X131442750Y-113594600D01*
G75*
G02*
X131224000Y-113375850I0J218750D01*
G01*
X131224000Y-112938350D01*
G75*
G02*
X131442750Y-112719600I218750J0D01*
G01*
G37*
G36*
G01*
X131442750Y-111144600D02*
X131955250Y-111144600D01*
G75*
G02*
X132174000Y-111363350I0J-218750D01*
G01*
X132174000Y-111800850D01*
G75*
G02*
X131955250Y-112019600I-218750J0D01*
G01*
X131442750Y-112019600D01*
G75*
G02*
X131224000Y-111800850I0J218750D01*
G01*
X131224000Y-111363350D01*
G75*
G02*
X131442750Y-111144600I218750J0D01*
G01*
G37*
G36*
G01*
X144655250Y-112654600D02*
X144142750Y-112654600D01*
G75*
G02*
X143924000Y-112435850I0J218750D01*
G01*
X143924000Y-111998350D01*
G75*
G02*
X144142750Y-111779600I218750J0D01*
G01*
X144655250Y-111779600D01*
G75*
G02*
X144874000Y-111998350I0J-218750D01*
G01*
X144874000Y-112435850D01*
G75*
G02*
X144655250Y-112654600I-218750J0D01*
G01*
G37*
G36*
G01*
X144655250Y-114229600D02*
X144142750Y-114229600D01*
G75*
G02*
X143924000Y-114010850I0J218750D01*
G01*
X143924000Y-113573350D01*
G75*
G02*
X144142750Y-113354600I218750J0D01*
G01*
X144655250Y-113354600D01*
G75*
G02*
X144874000Y-113573350I0J-218750D01*
G01*
X144874000Y-114010850D01*
G75*
G02*
X144655250Y-114229600I-218750J0D01*
G01*
G37*
G36*
G01*
X83101000Y-101851750D02*
X83101000Y-102364250D01*
G75*
G02*
X82882250Y-102583000I-218750J0D01*
G01*
X82444750Y-102583000D01*
G75*
G02*
X82226000Y-102364250I0J218750D01*
G01*
X82226000Y-101851750D01*
G75*
G02*
X82444750Y-101633000I218750J0D01*
G01*
X82882250Y-101633000D01*
G75*
G02*
X83101000Y-101851750I0J-218750D01*
G01*
G37*
G36*
G01*
X84676000Y-101851750D02*
X84676000Y-102364250D01*
G75*
G02*
X84457250Y-102583000I-218750J0D01*
G01*
X84019750Y-102583000D01*
G75*
G02*
X83801000Y-102364250I0J218750D01*
G01*
X83801000Y-101851750D01*
G75*
G02*
X84019750Y-101633000I218750J0D01*
G01*
X84457250Y-101633000D01*
G75*
G02*
X84676000Y-101851750I0J-218750D01*
G01*
G37*
G36*
G01*
X111729000Y-102364250D02*
X111729000Y-101851750D01*
G75*
G02*
X111947750Y-101633000I218750J0D01*
G01*
X112385250Y-101633000D01*
G75*
G02*
X112604000Y-101851750I0J-218750D01*
G01*
X112604000Y-102364250D01*
G75*
G02*
X112385250Y-102583000I-218750J0D01*
G01*
X111947750Y-102583000D01*
G75*
G02*
X111729000Y-102364250I0J218750D01*
G01*
G37*
G36*
G01*
X110154000Y-102364250D02*
X110154000Y-101851750D01*
G75*
G02*
X110372750Y-101633000I218750J0D01*
G01*
X110810250Y-101633000D01*
G75*
G02*
X111029000Y-101851750I0J-218750D01*
G01*
X111029000Y-102364250D01*
G75*
G02*
X110810250Y-102583000I-218750J0D01*
G01*
X110372750Y-102583000D01*
G75*
G02*
X110154000Y-102364250I0J218750D01*
G01*
G37*
G36*
G01*
X100934000Y-102364250D02*
X100934000Y-101851750D01*
G75*
G02*
X101152750Y-101633000I218750J0D01*
G01*
X101590250Y-101633000D01*
G75*
G02*
X101809000Y-101851750I0J-218750D01*
G01*
X101809000Y-102364250D01*
G75*
G02*
X101590250Y-102583000I-218750J0D01*
G01*
X101152750Y-102583000D01*
G75*
G02*
X100934000Y-102364250I0J218750D01*
G01*
G37*
G36*
G01*
X99359000Y-102364250D02*
X99359000Y-101851750D01*
G75*
G02*
X99577750Y-101633000I218750J0D01*
G01*
X100015250Y-101633000D01*
G75*
G02*
X100234000Y-101851750I0J-218750D01*
G01*
X100234000Y-102364250D01*
G75*
G02*
X100015250Y-102583000I-218750J0D01*
G01*
X99577750Y-102583000D01*
G75*
G02*
X99359000Y-102364250I0J218750D01*
G01*
G37*
G36*
G01*
X86964000Y-102364250D02*
X86964000Y-101851750D01*
G75*
G02*
X87182750Y-101633000I218750J0D01*
G01*
X87620250Y-101633000D01*
G75*
G02*
X87839000Y-101851750I0J-218750D01*
G01*
X87839000Y-102364250D01*
G75*
G02*
X87620250Y-102583000I-218750J0D01*
G01*
X87182750Y-102583000D01*
G75*
G02*
X86964000Y-102364250I0J218750D01*
G01*
G37*
G36*
G01*
X85389000Y-102364250D02*
X85389000Y-101851750D01*
G75*
G02*
X85607750Y-101633000I218750J0D01*
G01*
X86045250Y-101633000D01*
G75*
G02*
X86264000Y-101851750I0J-218750D01*
G01*
X86264000Y-102364250D01*
G75*
G02*
X86045250Y-102583000I-218750J0D01*
G01*
X85607750Y-102583000D01*
G75*
G02*
X85389000Y-102364250I0J218750D01*
G01*
G37*
G36*
G01*
X97759000Y-102364250D02*
X97759000Y-101851750D01*
G75*
G02*
X97977750Y-101633000I218750J0D01*
G01*
X98415250Y-101633000D01*
G75*
G02*
X98634000Y-101851750I0J-218750D01*
G01*
X98634000Y-102364250D01*
G75*
G02*
X98415250Y-102583000I-218750J0D01*
G01*
X97977750Y-102583000D01*
G75*
G02*
X97759000Y-102364250I0J218750D01*
G01*
G37*
G36*
G01*
X96184000Y-102364250D02*
X96184000Y-101851750D01*
G75*
G02*
X96402750Y-101633000I218750J0D01*
G01*
X96840250Y-101633000D01*
G75*
G02*
X97059000Y-101851750I0J-218750D01*
G01*
X97059000Y-102364250D01*
G75*
G02*
X96840250Y-102583000I-218750J0D01*
G01*
X96402750Y-102583000D01*
G75*
G02*
X96184000Y-102364250I0J218750D01*
G01*
G37*
G36*
G01*
X102077000Y-88140250D02*
X102077000Y-87627750D01*
G75*
G02*
X102295750Y-87409000I218750J0D01*
G01*
X102733250Y-87409000D01*
G75*
G02*
X102952000Y-87627750I0J-218750D01*
G01*
X102952000Y-88140250D01*
G75*
G02*
X102733250Y-88359000I-218750J0D01*
G01*
X102295750Y-88359000D01*
G75*
G02*
X102077000Y-88140250I0J218750D01*
G01*
G37*
G36*
G01*
X100502000Y-88140250D02*
X100502000Y-87627750D01*
G75*
G02*
X100720750Y-87409000I218750J0D01*
G01*
X101158250Y-87409000D01*
G75*
G02*
X101377000Y-87627750I0J-218750D01*
G01*
X101377000Y-88140250D01*
G75*
G02*
X101158250Y-88359000I-218750J0D01*
G01*
X100720750Y-88359000D01*
G75*
G02*
X100502000Y-88140250I0J218750D01*
G01*
G37*
G36*
G01*
X111729000Y-93474250D02*
X111729000Y-92961750D01*
G75*
G02*
X111947750Y-92743000I218750J0D01*
G01*
X112385250Y-92743000D01*
G75*
G02*
X112604000Y-92961750I0J-218750D01*
G01*
X112604000Y-93474250D01*
G75*
G02*
X112385250Y-93693000I-218750J0D01*
G01*
X111947750Y-93693000D01*
G75*
G02*
X111729000Y-93474250I0J218750D01*
G01*
G37*
G36*
G01*
X110154000Y-93474250D02*
X110154000Y-92961750D01*
G75*
G02*
X110372750Y-92743000I218750J0D01*
G01*
X110810250Y-92743000D01*
G75*
G02*
X111029000Y-92961750I0J-218750D01*
G01*
X111029000Y-93474250D01*
G75*
G02*
X110810250Y-93693000I-218750J0D01*
G01*
X110372750Y-93693000D01*
G75*
G02*
X110154000Y-93474250I0J218750D01*
G01*
G37*
G36*
G01*
X102089000Y-93474250D02*
X102089000Y-92961750D01*
G75*
G02*
X102307750Y-92743000I218750J0D01*
G01*
X102745250Y-92743000D01*
G75*
G02*
X102964000Y-92961750I0J-218750D01*
G01*
X102964000Y-93474250D01*
G75*
G02*
X102745250Y-93693000I-218750J0D01*
G01*
X102307750Y-93693000D01*
G75*
G02*
X102089000Y-93474250I0J218750D01*
G01*
G37*
G36*
G01*
X100514000Y-93474250D02*
X100514000Y-92961750D01*
G75*
G02*
X100732750Y-92743000I218750J0D01*
G01*
X101170250Y-92743000D01*
G75*
G02*
X101389000Y-92961750I0J-218750D01*
G01*
X101389000Y-93474250D01*
G75*
G02*
X101170250Y-93693000I-218750J0D01*
G01*
X100732750Y-93693000D01*
G75*
G02*
X100514000Y-93474250I0J218750D01*
G01*
G37*
G36*
G01*
X102077000Y-83187250D02*
X102077000Y-82674750D01*
G75*
G02*
X102295750Y-82456000I218750J0D01*
G01*
X102733250Y-82456000D01*
G75*
G02*
X102952000Y-82674750I0J-218750D01*
G01*
X102952000Y-83187250D01*
G75*
G02*
X102733250Y-83406000I-218750J0D01*
G01*
X102295750Y-83406000D01*
G75*
G02*
X102077000Y-83187250I0J218750D01*
G01*
G37*
G36*
G01*
X100502000Y-83187250D02*
X100502000Y-82674750D01*
G75*
G02*
X100720750Y-82456000I218750J0D01*
G01*
X101158250Y-82456000D01*
G75*
G02*
X101377000Y-82674750I0J-218750D01*
G01*
X101377000Y-83187250D01*
G75*
G02*
X101158250Y-83406000I-218750J0D01*
G01*
X100720750Y-83406000D01*
G75*
G02*
X100502000Y-83187250I0J218750D01*
G01*
G37*
D21*
X87630000Y-114586000D03*
D15*
X87630000Y-116586000D03*
D21*
X77057000Y-94361000D03*
D15*
X75057000Y-94361000D03*
D21*
X59912000Y-94361000D03*
D15*
X57912000Y-94361000D03*
D22*
X108051000Y-87884000D03*
X110591000Y-85344000D03*
X108051000Y-82804000D03*
D23*
X51308000Y-90043000D03*
X47808000Y-90043000D03*
D13*
X35245000Y-110193000D03*
X36195000Y-110193000D03*
X37145000Y-110193000D03*
X37145000Y-107993000D03*
X35245000Y-107993000D03*
G36*
G01*
X45940000Y-116133000D02*
X45940000Y-115933000D01*
G75*
G02*
X46040000Y-115833000I100000J0D01*
G01*
X47315000Y-115833000D01*
G75*
G02*
X47415000Y-115933000I0J-100000D01*
G01*
X47415000Y-116133000D01*
G75*
G02*
X47315000Y-116233000I-100000J0D01*
G01*
X46040000Y-116233000D01*
G75*
G02*
X45940000Y-116133000I0J100000D01*
G01*
G37*
G36*
G01*
X45940000Y-116783000D02*
X45940000Y-116583000D01*
G75*
G02*
X46040000Y-116483000I100000J0D01*
G01*
X47315000Y-116483000D01*
G75*
G02*
X47415000Y-116583000I0J-100000D01*
G01*
X47415000Y-116783000D01*
G75*
G02*
X47315000Y-116883000I-100000J0D01*
G01*
X46040000Y-116883000D01*
G75*
G02*
X45940000Y-116783000I0J100000D01*
G01*
G37*
G36*
G01*
X45940000Y-117433000D02*
X45940000Y-117233000D01*
G75*
G02*
X46040000Y-117133000I100000J0D01*
G01*
X47315000Y-117133000D01*
G75*
G02*
X47415000Y-117233000I0J-100000D01*
G01*
X47415000Y-117433000D01*
G75*
G02*
X47315000Y-117533000I-100000J0D01*
G01*
X46040000Y-117533000D01*
G75*
G02*
X45940000Y-117433000I0J100000D01*
G01*
G37*
G36*
G01*
X45940000Y-118083000D02*
X45940000Y-117883000D01*
G75*
G02*
X46040000Y-117783000I100000J0D01*
G01*
X47315000Y-117783000D01*
G75*
G02*
X47415000Y-117883000I0J-100000D01*
G01*
X47415000Y-118083000D01*
G75*
G02*
X47315000Y-118183000I-100000J0D01*
G01*
X46040000Y-118183000D01*
G75*
G02*
X45940000Y-118083000I0J100000D01*
G01*
G37*
G36*
G01*
X45940000Y-118733000D02*
X45940000Y-118533000D01*
G75*
G02*
X46040000Y-118433000I100000J0D01*
G01*
X47315000Y-118433000D01*
G75*
G02*
X47415000Y-118533000I0J-100000D01*
G01*
X47415000Y-118733000D01*
G75*
G02*
X47315000Y-118833000I-100000J0D01*
G01*
X46040000Y-118833000D01*
G75*
G02*
X45940000Y-118733000I0J100000D01*
G01*
G37*
G36*
G01*
X45940000Y-119383000D02*
X45940000Y-119183000D01*
G75*
G02*
X46040000Y-119083000I100000J0D01*
G01*
X47315000Y-119083000D01*
G75*
G02*
X47415000Y-119183000I0J-100000D01*
G01*
X47415000Y-119383000D01*
G75*
G02*
X47315000Y-119483000I-100000J0D01*
G01*
X46040000Y-119483000D01*
G75*
G02*
X45940000Y-119383000I0J100000D01*
G01*
G37*
G36*
G01*
X45940000Y-120033000D02*
X45940000Y-119833000D01*
G75*
G02*
X46040000Y-119733000I100000J0D01*
G01*
X47315000Y-119733000D01*
G75*
G02*
X47415000Y-119833000I0J-100000D01*
G01*
X47415000Y-120033000D01*
G75*
G02*
X47315000Y-120133000I-100000J0D01*
G01*
X46040000Y-120133000D01*
G75*
G02*
X45940000Y-120033000I0J100000D01*
G01*
G37*
G36*
G01*
X40215000Y-120033000D02*
X40215000Y-119833000D01*
G75*
G02*
X40315000Y-119733000I100000J0D01*
G01*
X41590000Y-119733000D01*
G75*
G02*
X41690000Y-119833000I0J-100000D01*
G01*
X41690000Y-120033000D01*
G75*
G02*
X41590000Y-120133000I-100000J0D01*
G01*
X40315000Y-120133000D01*
G75*
G02*
X40215000Y-120033000I0J100000D01*
G01*
G37*
G36*
G01*
X40215000Y-119383000D02*
X40215000Y-119183000D01*
G75*
G02*
X40315000Y-119083000I100000J0D01*
G01*
X41590000Y-119083000D01*
G75*
G02*
X41690000Y-119183000I0J-100000D01*
G01*
X41690000Y-119383000D01*
G75*
G02*
X41590000Y-119483000I-100000J0D01*
G01*
X40315000Y-119483000D01*
G75*
G02*
X40215000Y-119383000I0J100000D01*
G01*
G37*
G36*
G01*
X40215000Y-118733000D02*
X40215000Y-118533000D01*
G75*
G02*
X40315000Y-118433000I100000J0D01*
G01*
X41590000Y-118433000D01*
G75*
G02*
X41690000Y-118533000I0J-100000D01*
G01*
X41690000Y-118733000D01*
G75*
G02*
X41590000Y-118833000I-100000J0D01*
G01*
X40315000Y-118833000D01*
G75*
G02*
X40215000Y-118733000I0J100000D01*
G01*
G37*
G36*
G01*
X40215000Y-118083000D02*
X40215000Y-117883000D01*
G75*
G02*
X40315000Y-117783000I100000J0D01*
G01*
X41590000Y-117783000D01*
G75*
G02*
X41690000Y-117883000I0J-100000D01*
G01*
X41690000Y-118083000D01*
G75*
G02*
X41590000Y-118183000I-100000J0D01*
G01*
X40315000Y-118183000D01*
G75*
G02*
X40215000Y-118083000I0J100000D01*
G01*
G37*
G36*
G01*
X40215000Y-117433000D02*
X40215000Y-117233000D01*
G75*
G02*
X40315000Y-117133000I100000J0D01*
G01*
X41590000Y-117133000D01*
G75*
G02*
X41690000Y-117233000I0J-100000D01*
G01*
X41690000Y-117433000D01*
G75*
G02*
X41590000Y-117533000I-100000J0D01*
G01*
X40315000Y-117533000D01*
G75*
G02*
X40215000Y-117433000I0J100000D01*
G01*
G37*
G36*
G01*
X40215000Y-116783000D02*
X40215000Y-116583000D01*
G75*
G02*
X40315000Y-116483000I100000J0D01*
G01*
X41590000Y-116483000D01*
G75*
G02*
X41690000Y-116583000I0J-100000D01*
G01*
X41690000Y-116783000D01*
G75*
G02*
X41590000Y-116883000I-100000J0D01*
G01*
X40315000Y-116883000D01*
G75*
G02*
X40215000Y-116783000I0J100000D01*
G01*
G37*
G36*
G01*
X40215000Y-116133000D02*
X40215000Y-115933000D01*
G75*
G02*
X40315000Y-115833000I100000J0D01*
G01*
X41590000Y-115833000D01*
G75*
G02*
X41690000Y-115933000I0J-100000D01*
G01*
X41690000Y-116133000D01*
G75*
G02*
X41590000Y-116233000I-100000J0D01*
G01*
X40315000Y-116233000D01*
G75*
G02*
X40215000Y-116133000I0J100000D01*
G01*
G37*
G36*
G01*
X30690000Y-116133000D02*
X30690000Y-115933000D01*
G75*
G02*
X30790000Y-115833000I100000J0D01*
G01*
X32065000Y-115833000D01*
G75*
G02*
X32165000Y-115933000I0J-100000D01*
G01*
X32165000Y-116133000D01*
G75*
G02*
X32065000Y-116233000I-100000J0D01*
G01*
X30790000Y-116233000D01*
G75*
G02*
X30690000Y-116133000I0J100000D01*
G01*
G37*
G36*
G01*
X30690000Y-116783000D02*
X30690000Y-116583000D01*
G75*
G02*
X30790000Y-116483000I100000J0D01*
G01*
X32065000Y-116483000D01*
G75*
G02*
X32165000Y-116583000I0J-100000D01*
G01*
X32165000Y-116783000D01*
G75*
G02*
X32065000Y-116883000I-100000J0D01*
G01*
X30790000Y-116883000D01*
G75*
G02*
X30690000Y-116783000I0J100000D01*
G01*
G37*
G36*
G01*
X30690000Y-117433000D02*
X30690000Y-117233000D01*
G75*
G02*
X30790000Y-117133000I100000J0D01*
G01*
X32065000Y-117133000D01*
G75*
G02*
X32165000Y-117233000I0J-100000D01*
G01*
X32165000Y-117433000D01*
G75*
G02*
X32065000Y-117533000I-100000J0D01*
G01*
X30790000Y-117533000D01*
G75*
G02*
X30690000Y-117433000I0J100000D01*
G01*
G37*
G36*
G01*
X30690000Y-118083000D02*
X30690000Y-117883000D01*
G75*
G02*
X30790000Y-117783000I100000J0D01*
G01*
X32065000Y-117783000D01*
G75*
G02*
X32165000Y-117883000I0J-100000D01*
G01*
X32165000Y-118083000D01*
G75*
G02*
X32065000Y-118183000I-100000J0D01*
G01*
X30790000Y-118183000D01*
G75*
G02*
X30690000Y-118083000I0J100000D01*
G01*
G37*
G36*
G01*
X30690000Y-118733000D02*
X30690000Y-118533000D01*
G75*
G02*
X30790000Y-118433000I100000J0D01*
G01*
X32065000Y-118433000D01*
G75*
G02*
X32165000Y-118533000I0J-100000D01*
G01*
X32165000Y-118733000D01*
G75*
G02*
X32065000Y-118833000I-100000J0D01*
G01*
X30790000Y-118833000D01*
G75*
G02*
X30690000Y-118733000I0J100000D01*
G01*
G37*
G36*
G01*
X30690000Y-119383000D02*
X30690000Y-119183000D01*
G75*
G02*
X30790000Y-119083000I100000J0D01*
G01*
X32065000Y-119083000D01*
G75*
G02*
X32165000Y-119183000I0J-100000D01*
G01*
X32165000Y-119383000D01*
G75*
G02*
X32065000Y-119483000I-100000J0D01*
G01*
X30790000Y-119483000D01*
G75*
G02*
X30690000Y-119383000I0J100000D01*
G01*
G37*
G36*
G01*
X30690000Y-120033000D02*
X30690000Y-119833000D01*
G75*
G02*
X30790000Y-119733000I100000J0D01*
G01*
X32065000Y-119733000D01*
G75*
G02*
X32165000Y-119833000I0J-100000D01*
G01*
X32165000Y-120033000D01*
G75*
G02*
X32065000Y-120133000I-100000J0D01*
G01*
X30790000Y-120133000D01*
G75*
G02*
X30690000Y-120033000I0J100000D01*
G01*
G37*
G36*
G01*
X36415000Y-120033000D02*
X36415000Y-119833000D01*
G75*
G02*
X36515000Y-119733000I100000J0D01*
G01*
X37790000Y-119733000D01*
G75*
G02*
X37890000Y-119833000I0J-100000D01*
G01*
X37890000Y-120033000D01*
G75*
G02*
X37790000Y-120133000I-100000J0D01*
G01*
X36515000Y-120133000D01*
G75*
G02*
X36415000Y-120033000I0J100000D01*
G01*
G37*
G36*
G01*
X36415000Y-119383000D02*
X36415000Y-119183000D01*
G75*
G02*
X36515000Y-119083000I100000J0D01*
G01*
X37790000Y-119083000D01*
G75*
G02*
X37890000Y-119183000I0J-100000D01*
G01*
X37890000Y-119383000D01*
G75*
G02*
X37790000Y-119483000I-100000J0D01*
G01*
X36515000Y-119483000D01*
G75*
G02*
X36415000Y-119383000I0J100000D01*
G01*
G37*
G36*
G01*
X36415000Y-118733000D02*
X36415000Y-118533000D01*
G75*
G02*
X36515000Y-118433000I100000J0D01*
G01*
X37790000Y-118433000D01*
G75*
G02*
X37890000Y-118533000I0J-100000D01*
G01*
X37890000Y-118733000D01*
G75*
G02*
X37790000Y-118833000I-100000J0D01*
G01*
X36515000Y-118833000D01*
G75*
G02*
X36415000Y-118733000I0J100000D01*
G01*
G37*
G36*
G01*
X36415000Y-118083000D02*
X36415000Y-117883000D01*
G75*
G02*
X36515000Y-117783000I100000J0D01*
G01*
X37790000Y-117783000D01*
G75*
G02*
X37890000Y-117883000I0J-100000D01*
G01*
X37890000Y-118083000D01*
G75*
G02*
X37790000Y-118183000I-100000J0D01*
G01*
X36515000Y-118183000D01*
G75*
G02*
X36415000Y-118083000I0J100000D01*
G01*
G37*
G36*
G01*
X36415000Y-117433000D02*
X36415000Y-117233000D01*
G75*
G02*
X36515000Y-117133000I100000J0D01*
G01*
X37790000Y-117133000D01*
G75*
G02*
X37890000Y-117233000I0J-100000D01*
G01*
X37890000Y-117433000D01*
G75*
G02*
X37790000Y-117533000I-100000J0D01*
G01*
X36515000Y-117533000D01*
G75*
G02*
X36415000Y-117433000I0J100000D01*
G01*
G37*
G36*
G01*
X36415000Y-116783000D02*
X36415000Y-116583000D01*
G75*
G02*
X36515000Y-116483000I100000J0D01*
G01*
X37790000Y-116483000D01*
G75*
G02*
X37890000Y-116583000I0J-100000D01*
G01*
X37890000Y-116783000D01*
G75*
G02*
X37790000Y-116883000I-100000J0D01*
G01*
X36515000Y-116883000D01*
G75*
G02*
X36415000Y-116783000I0J100000D01*
G01*
G37*
G36*
G01*
X36415000Y-116133000D02*
X36415000Y-115933000D01*
G75*
G02*
X36515000Y-115833000I100000J0D01*
G01*
X37790000Y-115833000D01*
G75*
G02*
X37890000Y-115933000I0J-100000D01*
G01*
X37890000Y-116133000D01*
G75*
G02*
X37790000Y-116233000I-100000J0D01*
G01*
X36515000Y-116233000D01*
G75*
G02*
X36415000Y-116133000I0J100000D01*
G01*
G37*
D21*
X57190000Y-104775000D03*
D15*
X59690000Y-104775000D03*
D21*
X85130000Y-85090000D03*
D15*
X87630000Y-85090000D03*
D21*
X60960000Y-86320000D03*
D15*
X60960000Y-83820000D03*
D24*
X133799000Y-109595000D03*
X133799000Y-110395000D03*
X133799000Y-111195000D03*
X133799000Y-111995000D03*
X133799000Y-112795000D03*
X133799000Y-113595000D03*
X133799000Y-114395000D03*
X133799000Y-115195000D03*
D25*
X135249000Y-116645000D03*
X136049000Y-116645000D03*
X136849000Y-116645000D03*
X137649000Y-116645000D03*
X138449000Y-116645000D03*
X139249000Y-116645000D03*
X140049000Y-116645000D03*
X140849000Y-116645000D03*
D24*
X142299000Y-115195000D03*
X142299000Y-114395000D03*
X142299000Y-113595000D03*
X142299000Y-112795000D03*
X142299000Y-111995000D03*
X142299000Y-111195000D03*
X142299000Y-110395000D03*
X142299000Y-109595000D03*
D25*
X140849000Y-108145000D03*
X140049000Y-108145000D03*
X139249000Y-108145000D03*
X138449000Y-108145000D03*
X137649000Y-108145000D03*
X136849000Y-108145000D03*
X136049000Y-108145000D03*
X135249000Y-108145000D03*
G36*
G01*
X102910000Y-125372000D02*
X102910000Y-125072000D01*
G75*
G02*
X103060000Y-124922000I150000J0D01*
G01*
X104810000Y-124922000D01*
G75*
G02*
X104960000Y-125072000I0J-150000D01*
G01*
X104960000Y-125372000D01*
G75*
G02*
X104810000Y-125522000I-150000J0D01*
G01*
X103060000Y-125522000D01*
G75*
G02*
X102910000Y-125372000I0J150000D01*
G01*
G37*
G36*
G01*
X102910000Y-126642000D02*
X102910000Y-126342000D01*
G75*
G02*
X103060000Y-126192000I150000J0D01*
G01*
X104810000Y-126192000D01*
G75*
G02*
X104960000Y-126342000I0J-150000D01*
G01*
X104960000Y-126642000D01*
G75*
G02*
X104810000Y-126792000I-150000J0D01*
G01*
X103060000Y-126792000D01*
G75*
G02*
X102910000Y-126642000I0J150000D01*
G01*
G37*
G36*
G01*
X102910000Y-127912000D02*
X102910000Y-127612000D01*
G75*
G02*
X103060000Y-127462000I150000J0D01*
G01*
X104810000Y-127462000D01*
G75*
G02*
X104960000Y-127612000I0J-150000D01*
G01*
X104960000Y-127912000D01*
G75*
G02*
X104810000Y-128062000I-150000J0D01*
G01*
X103060000Y-128062000D01*
G75*
G02*
X102910000Y-127912000I0J150000D01*
G01*
G37*
G36*
G01*
X102910000Y-129182000D02*
X102910000Y-128882000D01*
G75*
G02*
X103060000Y-128732000I150000J0D01*
G01*
X104810000Y-128732000D01*
G75*
G02*
X104960000Y-128882000I0J-150000D01*
G01*
X104960000Y-129182000D01*
G75*
G02*
X104810000Y-129332000I-150000J0D01*
G01*
X103060000Y-129332000D01*
G75*
G02*
X102910000Y-129182000I0J150000D01*
G01*
G37*
G36*
G01*
X102910000Y-130452000D02*
X102910000Y-130152000D01*
G75*
G02*
X103060000Y-130002000I150000J0D01*
G01*
X104810000Y-130002000D01*
G75*
G02*
X104960000Y-130152000I0J-150000D01*
G01*
X104960000Y-130452000D01*
G75*
G02*
X104810000Y-130602000I-150000J0D01*
G01*
X103060000Y-130602000D01*
G75*
G02*
X102910000Y-130452000I0J150000D01*
G01*
G37*
G36*
G01*
X102910000Y-131722000D02*
X102910000Y-131422000D01*
G75*
G02*
X103060000Y-131272000I150000J0D01*
G01*
X104810000Y-131272000D01*
G75*
G02*
X104960000Y-131422000I0J-150000D01*
G01*
X104960000Y-131722000D01*
G75*
G02*
X104810000Y-131872000I-150000J0D01*
G01*
X103060000Y-131872000D01*
G75*
G02*
X102910000Y-131722000I0J150000D01*
G01*
G37*
G36*
G01*
X102910000Y-132992000D02*
X102910000Y-132692000D01*
G75*
G02*
X103060000Y-132542000I150000J0D01*
G01*
X104810000Y-132542000D01*
G75*
G02*
X104960000Y-132692000I0J-150000D01*
G01*
X104960000Y-132992000D01*
G75*
G02*
X104810000Y-133142000I-150000J0D01*
G01*
X103060000Y-133142000D01*
G75*
G02*
X102910000Y-132992000I0J150000D01*
G01*
G37*
G36*
G01*
X102910000Y-134262000D02*
X102910000Y-133962000D01*
G75*
G02*
X103060000Y-133812000I150000J0D01*
G01*
X104810000Y-133812000D01*
G75*
G02*
X104960000Y-133962000I0J-150000D01*
G01*
X104960000Y-134262000D01*
G75*
G02*
X104810000Y-134412000I-150000J0D01*
G01*
X103060000Y-134412000D01*
G75*
G02*
X102910000Y-134262000I0J150000D01*
G01*
G37*
G36*
G01*
X112210000Y-134262000D02*
X112210000Y-133962000D01*
G75*
G02*
X112360000Y-133812000I150000J0D01*
G01*
X114110000Y-133812000D01*
G75*
G02*
X114260000Y-133962000I0J-150000D01*
G01*
X114260000Y-134262000D01*
G75*
G02*
X114110000Y-134412000I-150000J0D01*
G01*
X112360000Y-134412000D01*
G75*
G02*
X112210000Y-134262000I0J150000D01*
G01*
G37*
G36*
G01*
X112210000Y-132992000D02*
X112210000Y-132692000D01*
G75*
G02*
X112360000Y-132542000I150000J0D01*
G01*
X114110000Y-132542000D01*
G75*
G02*
X114260000Y-132692000I0J-150000D01*
G01*
X114260000Y-132992000D01*
G75*
G02*
X114110000Y-133142000I-150000J0D01*
G01*
X112360000Y-133142000D01*
G75*
G02*
X112210000Y-132992000I0J150000D01*
G01*
G37*
G36*
G01*
X112210000Y-131722000D02*
X112210000Y-131422000D01*
G75*
G02*
X112360000Y-131272000I150000J0D01*
G01*
X114110000Y-131272000D01*
G75*
G02*
X114260000Y-131422000I0J-150000D01*
G01*
X114260000Y-131722000D01*
G75*
G02*
X114110000Y-131872000I-150000J0D01*
G01*
X112360000Y-131872000D01*
G75*
G02*
X112210000Y-131722000I0J150000D01*
G01*
G37*
G36*
G01*
X112210000Y-130452000D02*
X112210000Y-130152000D01*
G75*
G02*
X112360000Y-130002000I150000J0D01*
G01*
X114110000Y-130002000D01*
G75*
G02*
X114260000Y-130152000I0J-150000D01*
G01*
X114260000Y-130452000D01*
G75*
G02*
X114110000Y-130602000I-150000J0D01*
G01*
X112360000Y-130602000D01*
G75*
G02*
X112210000Y-130452000I0J150000D01*
G01*
G37*
G36*
G01*
X112210000Y-129182000D02*
X112210000Y-128882000D01*
G75*
G02*
X112360000Y-128732000I150000J0D01*
G01*
X114110000Y-128732000D01*
G75*
G02*
X114260000Y-128882000I0J-150000D01*
G01*
X114260000Y-129182000D01*
G75*
G02*
X114110000Y-129332000I-150000J0D01*
G01*
X112360000Y-129332000D01*
G75*
G02*
X112210000Y-129182000I0J150000D01*
G01*
G37*
G36*
G01*
X112210000Y-127912000D02*
X112210000Y-127612000D01*
G75*
G02*
X112360000Y-127462000I150000J0D01*
G01*
X114110000Y-127462000D01*
G75*
G02*
X114260000Y-127612000I0J-150000D01*
G01*
X114260000Y-127912000D01*
G75*
G02*
X114110000Y-128062000I-150000J0D01*
G01*
X112360000Y-128062000D01*
G75*
G02*
X112210000Y-127912000I0J150000D01*
G01*
G37*
G36*
G01*
X112210000Y-126642000D02*
X112210000Y-126342000D01*
G75*
G02*
X112360000Y-126192000I150000J0D01*
G01*
X114110000Y-126192000D01*
G75*
G02*
X114260000Y-126342000I0J-150000D01*
G01*
X114260000Y-126642000D01*
G75*
G02*
X114110000Y-126792000I-150000J0D01*
G01*
X112360000Y-126792000D01*
G75*
G02*
X112210000Y-126642000I0J150000D01*
G01*
G37*
G36*
G01*
X112210000Y-125372000D02*
X112210000Y-125072000D01*
G75*
G02*
X112360000Y-124922000I150000J0D01*
G01*
X114110000Y-124922000D01*
G75*
G02*
X114260000Y-125072000I0J-150000D01*
G01*
X114260000Y-125372000D01*
G75*
G02*
X114110000Y-125522000I-150000J0D01*
G01*
X112360000Y-125522000D01*
G75*
G02*
X112210000Y-125372000I0J150000D01*
G01*
G37*
G36*
G01*
X76240000Y-125372000D02*
X76240000Y-125072000D01*
G75*
G02*
X76390000Y-124922000I150000J0D01*
G01*
X78140000Y-124922000D01*
G75*
G02*
X78290000Y-125072000I0J-150000D01*
G01*
X78290000Y-125372000D01*
G75*
G02*
X78140000Y-125522000I-150000J0D01*
G01*
X76390000Y-125522000D01*
G75*
G02*
X76240000Y-125372000I0J150000D01*
G01*
G37*
G36*
G01*
X76240000Y-126642000D02*
X76240000Y-126342000D01*
G75*
G02*
X76390000Y-126192000I150000J0D01*
G01*
X78140000Y-126192000D01*
G75*
G02*
X78290000Y-126342000I0J-150000D01*
G01*
X78290000Y-126642000D01*
G75*
G02*
X78140000Y-126792000I-150000J0D01*
G01*
X76390000Y-126792000D01*
G75*
G02*
X76240000Y-126642000I0J150000D01*
G01*
G37*
G36*
G01*
X76240000Y-127912000D02*
X76240000Y-127612000D01*
G75*
G02*
X76390000Y-127462000I150000J0D01*
G01*
X78140000Y-127462000D01*
G75*
G02*
X78290000Y-127612000I0J-150000D01*
G01*
X78290000Y-127912000D01*
G75*
G02*
X78140000Y-128062000I-150000J0D01*
G01*
X76390000Y-128062000D01*
G75*
G02*
X76240000Y-127912000I0J150000D01*
G01*
G37*
G36*
G01*
X76240000Y-129182000D02*
X76240000Y-128882000D01*
G75*
G02*
X76390000Y-128732000I150000J0D01*
G01*
X78140000Y-128732000D01*
G75*
G02*
X78290000Y-128882000I0J-150000D01*
G01*
X78290000Y-129182000D01*
G75*
G02*
X78140000Y-129332000I-150000J0D01*
G01*
X76390000Y-129332000D01*
G75*
G02*
X76240000Y-129182000I0J150000D01*
G01*
G37*
G36*
G01*
X76240000Y-130452000D02*
X76240000Y-130152000D01*
G75*
G02*
X76390000Y-130002000I150000J0D01*
G01*
X78140000Y-130002000D01*
G75*
G02*
X78290000Y-130152000I0J-150000D01*
G01*
X78290000Y-130452000D01*
G75*
G02*
X78140000Y-130602000I-150000J0D01*
G01*
X76390000Y-130602000D01*
G75*
G02*
X76240000Y-130452000I0J150000D01*
G01*
G37*
G36*
G01*
X76240000Y-131722000D02*
X76240000Y-131422000D01*
G75*
G02*
X76390000Y-131272000I150000J0D01*
G01*
X78140000Y-131272000D01*
G75*
G02*
X78290000Y-131422000I0J-150000D01*
G01*
X78290000Y-131722000D01*
G75*
G02*
X78140000Y-131872000I-150000J0D01*
G01*
X76390000Y-131872000D01*
G75*
G02*
X76240000Y-131722000I0J150000D01*
G01*
G37*
G36*
G01*
X76240000Y-132992000D02*
X76240000Y-132692000D01*
G75*
G02*
X76390000Y-132542000I150000J0D01*
G01*
X78140000Y-132542000D01*
G75*
G02*
X78290000Y-132692000I0J-150000D01*
G01*
X78290000Y-132992000D01*
G75*
G02*
X78140000Y-133142000I-150000J0D01*
G01*
X76390000Y-133142000D01*
G75*
G02*
X76240000Y-132992000I0J150000D01*
G01*
G37*
G36*
G01*
X76240000Y-134262000D02*
X76240000Y-133962000D01*
G75*
G02*
X76390000Y-133812000I150000J0D01*
G01*
X78140000Y-133812000D01*
G75*
G02*
X78290000Y-133962000I0J-150000D01*
G01*
X78290000Y-134262000D01*
G75*
G02*
X78140000Y-134412000I-150000J0D01*
G01*
X76390000Y-134412000D01*
G75*
G02*
X76240000Y-134262000I0J150000D01*
G01*
G37*
G36*
G01*
X85540000Y-134262000D02*
X85540000Y-133962000D01*
G75*
G02*
X85690000Y-133812000I150000J0D01*
G01*
X87440000Y-133812000D01*
G75*
G02*
X87590000Y-133962000I0J-150000D01*
G01*
X87590000Y-134262000D01*
G75*
G02*
X87440000Y-134412000I-150000J0D01*
G01*
X85690000Y-134412000D01*
G75*
G02*
X85540000Y-134262000I0J150000D01*
G01*
G37*
G36*
G01*
X85540000Y-132992000D02*
X85540000Y-132692000D01*
G75*
G02*
X85690000Y-132542000I150000J0D01*
G01*
X87440000Y-132542000D01*
G75*
G02*
X87590000Y-132692000I0J-150000D01*
G01*
X87590000Y-132992000D01*
G75*
G02*
X87440000Y-133142000I-150000J0D01*
G01*
X85690000Y-133142000D01*
G75*
G02*
X85540000Y-132992000I0J150000D01*
G01*
G37*
G36*
G01*
X85540000Y-131722000D02*
X85540000Y-131422000D01*
G75*
G02*
X85690000Y-131272000I150000J0D01*
G01*
X87440000Y-131272000D01*
G75*
G02*
X87590000Y-131422000I0J-150000D01*
G01*
X87590000Y-131722000D01*
G75*
G02*
X87440000Y-131872000I-150000J0D01*
G01*
X85690000Y-131872000D01*
G75*
G02*
X85540000Y-131722000I0J150000D01*
G01*
G37*
G36*
G01*
X85540000Y-130452000D02*
X85540000Y-130152000D01*
G75*
G02*
X85690000Y-130002000I150000J0D01*
G01*
X87440000Y-130002000D01*
G75*
G02*
X87590000Y-130152000I0J-150000D01*
G01*
X87590000Y-130452000D01*
G75*
G02*
X87440000Y-130602000I-150000J0D01*
G01*
X85690000Y-130602000D01*
G75*
G02*
X85540000Y-130452000I0J150000D01*
G01*
G37*
G36*
G01*
X85540000Y-129182000D02*
X85540000Y-128882000D01*
G75*
G02*
X85690000Y-128732000I150000J0D01*
G01*
X87440000Y-128732000D01*
G75*
G02*
X87590000Y-128882000I0J-150000D01*
G01*
X87590000Y-129182000D01*
G75*
G02*
X87440000Y-129332000I-150000J0D01*
G01*
X85690000Y-129332000D01*
G75*
G02*
X85540000Y-129182000I0J150000D01*
G01*
G37*
G36*
G01*
X85540000Y-127912000D02*
X85540000Y-127612000D01*
G75*
G02*
X85690000Y-127462000I150000J0D01*
G01*
X87440000Y-127462000D01*
G75*
G02*
X87590000Y-127612000I0J-150000D01*
G01*
X87590000Y-127912000D01*
G75*
G02*
X87440000Y-128062000I-150000J0D01*
G01*
X85690000Y-128062000D01*
G75*
G02*
X85540000Y-127912000I0J150000D01*
G01*
G37*
G36*
G01*
X85540000Y-126642000D02*
X85540000Y-126342000D01*
G75*
G02*
X85690000Y-126192000I150000J0D01*
G01*
X87440000Y-126192000D01*
G75*
G02*
X87590000Y-126342000I0J-150000D01*
G01*
X87590000Y-126642000D01*
G75*
G02*
X87440000Y-126792000I-150000J0D01*
G01*
X85690000Y-126792000D01*
G75*
G02*
X85540000Y-126642000I0J150000D01*
G01*
G37*
G36*
G01*
X85540000Y-125372000D02*
X85540000Y-125072000D01*
G75*
G02*
X85690000Y-124922000I150000J0D01*
G01*
X87440000Y-124922000D01*
G75*
G02*
X87590000Y-125072000I0J-150000D01*
G01*
X87590000Y-125372000D01*
G75*
G02*
X87440000Y-125522000I-150000J0D01*
G01*
X85690000Y-125522000D01*
G75*
G02*
X85540000Y-125372000I0J150000D01*
G01*
G37*
D13*
X40960000Y-107993000D03*
X42860000Y-107993000D03*
X42860000Y-110193000D03*
X41910000Y-110193000D03*
X40960000Y-110193000D03*
D26*
X66319400Y-125109800D03*
X66319400Y-133309800D03*
D27*
X66319400Y-127209800D03*
X66319400Y-129209800D03*
X66319400Y-131209800D03*
D15*
X51943000Y-131953000D03*
D14*
X49403000Y-131953000D03*
X46863000Y-131953000D03*
X44323000Y-131953000D03*
X41783000Y-131953000D03*
X39243000Y-131953000D03*
X36703000Y-131953000D03*
X34163000Y-131953000D03*
X31623000Y-131953000D03*
M02*
