G04 #@! TF.GenerationSoftware,KiCad,Pcbnew,(5.1.4)-1*
G04 #@! TF.CreationDate,2020-05-16T15:38:22+07:00*
G04 #@! TF.ProjectId,automata_smd,6175746f-6d61-4746-915f-736d642e6b69,rev?*
G04 #@! TF.SameCoordinates,Original*
G04 #@! TF.FileFunction,Soldermask,Bot*
G04 #@! TF.FilePolarity,Negative*
%FSLAX46Y46*%
G04 Gerber Fmt 4.6, Leading zero omitted, Abs format (unit mm)*
G04 Created by KiCad (PCBNEW (5.1.4)-1) date 2020-05-16 15:38:22*
%MOMM*%
%LPD*%
G04 APERTURE LIST*
%ADD10R,1.700000X1.700000*%
%ADD11O,1.700000X1.700000*%
%ADD12R,1.600000X1.600000*%
%ADD13C,1.600000*%
%ADD14C,1.120000*%
%ADD15R,1.450000X0.450000*%
%ADD16O,1.600000X1.600000*%
%ADD17C,2.000000*%
%ADD18C,1.300000*%
%ADD19C,2.250000*%
%ADD20R,3.500000X3.500000*%
%ADD21R,0.750000X0.800000*%
%ADD22R,2.000000X2.000000*%
%ADD23R,0.800000X0.750000*%
G04 APERTURE END LIST*
D10*
X133096000Y-132969000D03*
D11*
X133096000Y-130429000D03*
D10*
X142494000Y-130429000D03*
D11*
X142494000Y-132969000D03*
X139954000Y-130429000D03*
X139954000Y-132969000D03*
X137414000Y-130429000D03*
X137414000Y-132969000D03*
D12*
X75057000Y-94411800D03*
D13*
X77057000Y-94411800D03*
D14*
X108051000Y-87884000D03*
X110591000Y-85344000D03*
X108051000Y-82804000D03*
D15*
X59973000Y-137283000D03*
X59973000Y-137933000D03*
X59973000Y-138583000D03*
X59973000Y-139233000D03*
X59973000Y-139883000D03*
X59973000Y-140533000D03*
X59973000Y-141183000D03*
X59973000Y-141833000D03*
X59973000Y-142483000D03*
X59973000Y-143133000D03*
X54073000Y-143133000D03*
X54073000Y-142483000D03*
X54073000Y-141833000D03*
X54073000Y-141183000D03*
X54073000Y-140533000D03*
X54073000Y-139883000D03*
X54073000Y-139233000D03*
X54073000Y-138583000D03*
X54073000Y-137933000D03*
X54073000Y-137283000D03*
X58322000Y-115058000D03*
X58322000Y-115708000D03*
X58322000Y-116358000D03*
X58322000Y-117008000D03*
X58322000Y-117658000D03*
X58322000Y-118308000D03*
X58322000Y-118958000D03*
X58322000Y-119608000D03*
X58322000Y-120258000D03*
X58322000Y-120908000D03*
X52422000Y-120908000D03*
X52422000Y-120258000D03*
X52422000Y-119608000D03*
X52422000Y-118958000D03*
X52422000Y-118308000D03*
X52422000Y-117658000D03*
X52422000Y-117008000D03*
X52422000Y-116358000D03*
X52422000Y-115708000D03*
X52422000Y-115058000D03*
D12*
X31623000Y-121793000D03*
D16*
X46863000Y-114173000D03*
X34163000Y-121793000D03*
X44323000Y-114173000D03*
X36703000Y-121793000D03*
X41783000Y-114173000D03*
X39243000Y-121793000D03*
X39243000Y-114173000D03*
X41783000Y-121793000D03*
X36703000Y-114173000D03*
X44323000Y-121793000D03*
X34163000Y-114173000D03*
X46863000Y-121793000D03*
X31623000Y-114173000D03*
D17*
X72208000Y-112014000D03*
X76708000Y-112014000D03*
X72208000Y-118514000D03*
X76708000Y-118514000D03*
D12*
X31623000Y-143383000D03*
D16*
X49403000Y-135763000D03*
X34163000Y-143383000D03*
X46863000Y-135763000D03*
X36703000Y-143383000D03*
X44323000Y-135763000D03*
X39243000Y-143383000D03*
X41783000Y-135763000D03*
X41783000Y-143383000D03*
X39243000Y-135763000D03*
X44323000Y-143383000D03*
X36703000Y-135763000D03*
X46863000Y-143383000D03*
X34163000Y-135763000D03*
X49403000Y-143383000D03*
X31623000Y-135763000D03*
D18*
X66319400Y-131209800D03*
X66319400Y-129209800D03*
X66319400Y-127209800D03*
D19*
X66319400Y-133309800D03*
X66319400Y-125109800D03*
D12*
X51943000Y-131953000D03*
D16*
X49403000Y-131953000D03*
X46863000Y-131953000D03*
X44323000Y-131953000D03*
X41783000Y-131953000D03*
X39243000Y-131953000D03*
X36703000Y-131953000D03*
X34163000Y-131953000D03*
X31623000Y-131953000D03*
D10*
X124714000Y-125704600D03*
D11*
X127254000Y-125704600D03*
X129794000Y-125704600D03*
X132334000Y-125704600D03*
X134874000Y-125704600D03*
X137414000Y-125704600D03*
X139954000Y-125704600D03*
X142494000Y-125704600D03*
D20*
X38402000Y-88951800D03*
X35402000Y-84251800D03*
X41402000Y-84251800D03*
D21*
X67818000Y-104406000D03*
X67818000Y-105906000D03*
D12*
X60833000Y-105156000D03*
D13*
X58333000Y-105156000D03*
D21*
X95631000Y-84594000D03*
X95631000Y-86094000D03*
D12*
X88646000Y-85344000D03*
D13*
X86146000Y-85344000D03*
D12*
X87630000Y-116586000D03*
D13*
X87630000Y-114586000D03*
D12*
X57912000Y-94411800D03*
D13*
X59912000Y-94411800D03*
D22*
X61722000Y-81711800D03*
D17*
X61722000Y-86711800D03*
D23*
X55233000Y-135128000D03*
X53733000Y-135128000D03*
X53582000Y-113538000D03*
X52082000Y-113538000D03*
D21*
X31623000Y-118606000D03*
X31623000Y-117106000D03*
M02*
