M48
; DRILL file {KiCad (5.1.6)-1} date 09/12/20 17:38:02
; FORMAT={-:-/ absolute / inch / decimal}
; #@! TF.CreationDate,2020-09-12T17:38:02+07:00
; #@! TF.GenerationSoftware,Kicad,Pcbnew,(5.1.6)-1
; #@! TF.FileFunction,Plated,1,2,PTH
FMAT,2
INCH
T1C0.0120
T2C0.0157
T3C0.0272
T4C0.0315
T5C0.0394
T6C0.0433
T7C0.0591
%
G90
G05
T1
X1.12Y-5.045
X1.295Y-4.72
X1.3Y-4.9
X1.32Y-5.42
X1.45Y-4.95
X1.487Y-5.479
X1.535Y-4.36
X1.595Y-5.52
X1.67Y-4.72
X1.675Y-4.95
X1.698Y-5.557
X1.735Y-4.34
X1.84Y-4.815
X1.864Y-5.53
X1.92Y-4.375
X1.92Y-4.665
X1.95Y-4.35
X1.95Y-4.63
X1.98Y-4.325
X1.98Y-4.6
X2.01Y-4.3
X2.01Y-4.545
X2.06Y-5.43
X2.06Y-5.61
X2.065Y-4.82
X2.07Y-5.505
X2.1Y-4.225
X2.13Y-4.62
X2.15Y-4.645
X2.15Y-4.87
X2.17Y-4.67
X2.17Y-4.725
X2.17Y-4.76
X2.175Y-5.2
X2.183Y-5.431
X2.185Y-4.575
X2.19Y-4.695
X2.195Y-4.93
X2.205Y-4.55
X2.255Y-4.995
X2.274Y-5.558
X2.275Y-4.85
X2.295Y-5.445
X2.306Y-5.584
X2.31Y-5.035
X2.312Y-5.482
X2.355Y-4.86
X2.3772Y-4.6572
X2.3775Y-4.6175
X2.38Y-4.705
X2.415Y-4.545
X2.43Y-5.43
X2.43Y-5.465
X2.435Y-5.5
X2.435Y-5.55
X2.51Y-5.355
X2.512Y-5.659
X2.512Y-5.691
X2.512Y-5.725
X2.675Y-5.4
X2.7025Y-5.5825
X2.715Y-4.485
X2.825Y-5.505
X2.85Y-5.53
X2.865Y-5.08
X2.875Y-5.555
X2.905Y-5.25
X2.96Y-4.265
X2.97Y-5.03
X2.97Y-5.03
X2.98Y-4.21
X2.99Y-4.07
X3.0955Y-4.745
X3.11Y-5.08
X3.11Y-5.18
X3.13Y-4.93
X3.155Y-4.32
X3.19Y-4.095
X3.195Y-5.26
X3.265Y-3.745
X3.335Y-5.21
X3.365Y-4.375
X3.365Y-4.375
X3.39Y-3.95
X3.405Y-3.9
X3.445Y-4.15
X3.46Y-4.795
X3.47Y-4.28
X3.475Y-5.23
X3.475Y-5.275
X3.475Y-5.365
X3.495Y-4.895
X3.535Y-4.95
X3.55Y-4.02
X3.565Y-5.01
X3.57Y-4.96
X3.575Y-5.28
X3.605Y-4.235
X3.6075Y-4.1925
X3.615Y-3.945
X3.625Y-4.14
X3.645Y-3.7
X3.65Y-3.5
X3.695Y-4.5
X3.7Y-4.97
X3.705Y-5.06
X3.7112Y-5.0062
X3.715Y-5.1782
X3.735Y-4.5
X3.75Y-3.25
X3.775Y-3.8
X3.775Y-3.855
X3.8Y-4.305
X3.8Y-4.93
X3.8Y-5.415
X3.8012Y-5.3062
X3.84Y-4.17
X3.87Y-4.065
X3.87Y-5.065
X3.875Y-5.375
X3.89Y-4.335
X3.895Y-3.855
X3.9Y-3.525
X3.925Y-5.28
X3.935Y-4.24
X3.945Y-4.925
X3.945Y-5.13
X3.95Y-5.44
X3.995Y-5.035
X4.0Y-5.125
X4.01Y-3.845
X4.01Y-3.895
X4.025Y-3.725
X4.03Y-4.065
X4.03Y-4.155
X4.075Y-4.875
X4.1Y-3.275
X4.1Y-3.525
X4.1Y-5.465
X4.155Y-4.135
X4.155Y-5.065
X4.16Y-5.23
X4.185Y-5.03
X4.195Y-3.925
X4.24Y-4.785
X4.27Y-3.77
X4.275Y-3.65
X4.325Y-4.45
X4.325Y-5.3
X4.33Y-5.13
X4.675Y-4.575
X4.675Y-4.825
X4.8Y-4.255
X5.055Y-4.225
X5.055Y-4.285
X5.125Y-4.45
X5.18Y-4.315
X5.2Y-4.345
X5.265Y-4.25
X5.335Y-4.355
X5.39Y-4.37
X5.435Y-4.385
X5.475Y-4.415
X5.48Y-4.195
X5.505Y-4.165
X5.53Y-4.325
X5.53Y-4.36
X5.5325Y-4.6625
X5.71Y-4.64
X5.725Y-4.325
T2
X1.58Y-4.51
X1.79Y-4.495
T3
X4.254Y-3.26
X4.254Y-3.46
X4.354Y-3.36
T4
X2.4Y-3.3
X2.4Y-3.3984
X2.28Y-3.715
X2.3587Y-3.715
X2.955Y-3.715
X3.0337Y-3.715
X1.245Y-5.195
X1.345Y-5.195
X1.445Y-5.195
X1.545Y-5.195
X1.645Y-5.195
X1.745Y-5.195
X1.845Y-5.195
X1.945Y-5.195
X2.045Y-5.195
X2.611Y-5.0083
X2.611Y-5.087
X2.611Y-5.1657
X1.245Y-5.345
X1.245Y-5.645
X1.345Y-5.345
X1.345Y-5.645
X1.445Y-5.345
X1.445Y-5.645
X1.545Y-5.345
X1.545Y-5.645
X1.645Y-5.345
X1.645Y-5.645
X1.745Y-5.345
X1.745Y-5.645
X1.845Y-5.345
X1.845Y-5.645
X1.945Y-5.345
X1.945Y-5.645
X3.3516Y-3.35
X3.45Y-3.35
X2.2516Y-4.125
X2.35Y-4.125
X3.45Y-4.5113
X3.45Y-4.59
T5
X4.91Y-4.949
X5.01Y-4.949
X5.11Y-4.949
X5.21Y-4.949
X5.31Y-4.949
X5.41Y-4.949
X5.51Y-4.949
X5.61Y-4.949
X5.24Y-5.135
X5.24Y-5.235
X5.41Y-5.135
X5.41Y-5.235
X5.51Y-5.135
X5.51Y-5.235
X5.61Y-5.135
X5.61Y-5.235
T6
X2.8428Y-4.41
X2.8428Y-4.6659
X3.02Y-4.41
X3.02Y-4.6659
T7
X2.611Y-4.9256
X2.611Y-5.2484
T5
G00X1.3938Y-3.2776
M15
G01X1.3938Y-3.3564
M16
G05
G00X1.4725Y-3.502
M15
G01X1.5513Y-3.502
M16
G05
G00X1.63Y-3.2776
M15
G01X1.63Y-3.3564
M16
G05
T0
M30
