G04 #@! TF.GenerationSoftware,KiCad,Pcbnew,(5.1.4)-1*
G04 #@! TF.CreationDate,2020-05-19T15:35:39+07:00*
G04 #@! TF.ProjectId,automata_smd,6175746f-6d61-4746-915f-736d642e6b69,2*
G04 #@! TF.SameCoordinates,Original*
G04 #@! TF.FileFunction,Legend,Bot*
G04 #@! TF.FilePolarity,Positive*
%FSLAX46Y46*%
G04 Gerber Fmt 4.6, Leading zero omitted, Abs format (unit mm)*
G04 Created by KiCad (PCBNEW (5.1.4)-1) date 2020-05-19 15:35:39*
%MOMM*%
%LPD*%
G04 APERTURE LIST*
%ADD10C,0.150000*%
%ADD11C,0.254000*%
G04 APERTURE END LIST*
D10*
X58726605Y-137339605D02*
G75*
G03X58726605Y-137339605I-179605J0D01*
G01*
X57075605Y-115062000D02*
G75*
G03X57075605Y-115062000I-179605J0D01*
G01*
D11*
X59248000Y-143658000D02*
X54798000Y-143658000D01*
X60773000Y-136758000D02*
X54798000Y-136758000D01*
X57597000Y-121433000D02*
X53147000Y-121433000D01*
X59122000Y-114533000D02*
X53147000Y-114533000D01*
X67218000Y-104806000D02*
X67218000Y-105506000D01*
X68418000Y-105506000D02*
X68418000Y-104806000D01*
X95031000Y-84994000D02*
X95031000Y-85694000D01*
X96231000Y-85694000D02*
X96231000Y-84994000D01*
X54833000Y-134528000D02*
X54133000Y-134528000D01*
X54133000Y-135728000D02*
X54833000Y-135728000D01*
X53182000Y-112938000D02*
X52482000Y-112938000D01*
X52482000Y-114138000D02*
X53182000Y-114138000D01*
X32223000Y-118206000D02*
X32223000Y-117506000D01*
X31023000Y-117506000D02*
X31023000Y-118206000D01*
D10*
X57784904Y-135360380D02*
X57784904Y-136169904D01*
X57737285Y-136265142D01*
X57689666Y-136312761D01*
X57594428Y-136360380D01*
X57403952Y-136360380D01*
X57308714Y-136312761D01*
X57261095Y-136265142D01*
X57213476Y-136169904D01*
X57213476Y-135360380D01*
X56832523Y-135360380D02*
X56165857Y-135360380D01*
X56594428Y-136360380D01*
X56133904Y-113135380D02*
X56133904Y-113944904D01*
X56086285Y-114040142D01*
X56038666Y-114087761D01*
X55943428Y-114135380D01*
X55752952Y-114135380D01*
X55657714Y-114087761D01*
X55610095Y-114040142D01*
X55562476Y-113944904D01*
X55562476Y-113135380D01*
X54657714Y-113135380D02*
X54848190Y-113135380D01*
X54943428Y-113183000D01*
X54991047Y-113230619D01*
X55086285Y-113373476D01*
X55133904Y-113563952D01*
X55133904Y-113944904D01*
X55086285Y-114040142D01*
X55038666Y-114087761D01*
X54943428Y-114135380D01*
X54752952Y-114135380D01*
X54657714Y-114087761D01*
X54610095Y-114040142D01*
X54562476Y-113944904D01*
X54562476Y-113706809D01*
X54610095Y-113611571D01*
X54657714Y-113563952D01*
X54752952Y-113516333D01*
X54943428Y-113516333D01*
X55038666Y-113563952D01*
X55086285Y-113611571D01*
X55133904Y-113706809D01*
X69675142Y-104513142D02*
X69722761Y-104465523D01*
X69770380Y-104322666D01*
X69770380Y-104227428D01*
X69722761Y-104084571D01*
X69627523Y-103989333D01*
X69532285Y-103941714D01*
X69341809Y-103894095D01*
X69198952Y-103894095D01*
X69008476Y-103941714D01*
X68913238Y-103989333D01*
X68818000Y-104084571D01*
X68770380Y-104227428D01*
X68770380Y-104322666D01*
X68818000Y-104465523D01*
X68865619Y-104513142D01*
X68770380Y-104846476D02*
X68770380Y-105465523D01*
X69151333Y-105132190D01*
X69151333Y-105275047D01*
X69198952Y-105370285D01*
X69246571Y-105417904D01*
X69341809Y-105465523D01*
X69579904Y-105465523D01*
X69675142Y-105417904D01*
X69722761Y-105370285D01*
X69770380Y-105275047D01*
X69770380Y-104989333D01*
X69722761Y-104894095D01*
X69675142Y-104846476D01*
X68770380Y-105798857D02*
X68770380Y-106465523D01*
X69770380Y-106036952D01*
X97488142Y-84701142D02*
X97535761Y-84653523D01*
X97583380Y-84510666D01*
X97583380Y-84415428D01*
X97535761Y-84272571D01*
X97440523Y-84177333D01*
X97345285Y-84129714D01*
X97154809Y-84082095D01*
X97011952Y-84082095D01*
X96821476Y-84129714D01*
X96726238Y-84177333D01*
X96631000Y-84272571D01*
X96583380Y-84415428D01*
X96583380Y-84510666D01*
X96631000Y-84653523D01*
X96678619Y-84701142D01*
X96583380Y-85034476D02*
X96583380Y-85653523D01*
X96964333Y-85320190D01*
X96964333Y-85463047D01*
X97011952Y-85558285D01*
X97059571Y-85605904D01*
X97154809Y-85653523D01*
X97392904Y-85653523D01*
X97488142Y-85605904D01*
X97535761Y-85558285D01*
X97583380Y-85463047D01*
X97583380Y-85177333D01*
X97535761Y-85082095D01*
X97488142Y-85034476D01*
X96583380Y-86558285D02*
X96583380Y-86082095D01*
X97059571Y-86034476D01*
X97011952Y-86082095D01*
X96964333Y-86177333D01*
X96964333Y-86415428D01*
X97011952Y-86510666D01*
X97059571Y-86558285D01*
X97154809Y-86605904D01*
X97392904Y-86605904D01*
X97488142Y-86558285D01*
X97535761Y-86510666D01*
X97583380Y-86415428D01*
X97583380Y-86177333D01*
X97535761Y-86082095D01*
X97488142Y-86034476D01*
X54649666Y-134215142D02*
X54697285Y-134262761D01*
X54840142Y-134310380D01*
X54935380Y-134310380D01*
X55078238Y-134262761D01*
X55173476Y-134167523D01*
X55221095Y-134072285D01*
X55268714Y-133881809D01*
X55268714Y-133738952D01*
X55221095Y-133548476D01*
X55173476Y-133453238D01*
X55078238Y-133358000D01*
X54935380Y-133310380D01*
X54840142Y-133310380D01*
X54697285Y-133358000D01*
X54649666Y-133405619D01*
X54316333Y-133310380D02*
X53649666Y-133310380D01*
X54078238Y-134310380D01*
X52871666Y-112625142D02*
X52919285Y-112672761D01*
X53062142Y-112720380D01*
X53157380Y-112720380D01*
X53300238Y-112672761D01*
X53395476Y-112577523D01*
X53443095Y-112482285D01*
X53490714Y-112291809D01*
X53490714Y-112148952D01*
X53443095Y-111958476D01*
X53395476Y-111863238D01*
X53300238Y-111768000D01*
X53157380Y-111720380D01*
X53062142Y-111720380D01*
X52919285Y-111768000D01*
X52871666Y-111815619D01*
X52014523Y-111720380D02*
X52205000Y-111720380D01*
X52300238Y-111768000D01*
X52347857Y-111815619D01*
X52443095Y-111958476D01*
X52490714Y-112148952D01*
X52490714Y-112529904D01*
X52443095Y-112625142D01*
X52395476Y-112672761D01*
X52300238Y-112720380D01*
X52109761Y-112720380D01*
X52014523Y-112672761D01*
X51966904Y-112625142D01*
X51919285Y-112529904D01*
X51919285Y-112291809D01*
X51966904Y-112196571D01*
X52014523Y-112148952D01*
X52109761Y-112101333D01*
X52300238Y-112101333D01*
X52395476Y-112148952D01*
X52443095Y-112196571D01*
X52490714Y-112291809D01*
X30480142Y-117689333D02*
X30527761Y-117641714D01*
X30575380Y-117498857D01*
X30575380Y-117403619D01*
X30527761Y-117260761D01*
X30432523Y-117165523D01*
X30337285Y-117117904D01*
X30146809Y-117070285D01*
X30003952Y-117070285D01*
X29813476Y-117117904D01*
X29718238Y-117165523D01*
X29623000Y-117260761D01*
X29575380Y-117403619D01*
X29575380Y-117498857D01*
X29623000Y-117641714D01*
X29670619Y-117689333D01*
X30575380Y-118641714D02*
X30575380Y-118070285D01*
X30575380Y-118356000D02*
X29575380Y-118356000D01*
X29718238Y-118260761D01*
X29813476Y-118165523D01*
X29861095Y-118070285D01*
M02*
