G04 #@! TF.GenerationSoftware,KiCad,Pcbnew,(5.1.4)-1*
G04 #@! TF.CreationDate,2020-05-19T15:35:39+07:00*
G04 #@! TF.ProjectId,automata_smd,6175746f-6d61-4746-915f-736d642e6b69,2*
G04 #@! TF.SameCoordinates,Original*
G04 #@! TF.FileFunction,Soldermask,Top*
G04 #@! TF.FilePolarity,Negative*
%FSLAX46Y46*%
G04 Gerber Fmt 4.6, Leading zero omitted, Abs format (unit mm)*
G04 Created by KiCad (PCBNEW (5.1.4)-1) date 2020-05-19 15:35:39*
%MOMM*%
%LPD*%
G04 APERTURE LIST*
%ADD10R,1.450000X0.450000*%
%ADD11O,0.609600X1.473200*%
%ADD12R,1.500000X2.700000*%
%ADD13R,2.400000X2.000000*%
%ADD14R,0.550000X1.600000*%
%ADD15R,1.600000X0.550000*%
%ADD16R,0.900000X0.500000*%
%ADD17R,1.700000X1.700000*%
%ADD18O,1.700000X1.700000*%
%ADD19R,1.500000X0.600000*%
%ADD20R,0.750000X0.800000*%
%ADD21R,1.600000X1.600000*%
%ADD22C,1.600000*%
%ADD23R,0.650000X1.060000*%
%ADD24C,1.120000*%
%ADD25R,2.000000X3.800000*%
%ADD26R,2.000000X1.500000*%
%ADD27R,1.500000X0.450000*%
%ADD28R,1.550000X0.600000*%
%ADD29O,1.600000X1.600000*%
%ADD30C,2.000000*%
%ADD31C,1.300000*%
%ADD32C,2.250000*%
%ADD33R,0.500000X0.900000*%
%ADD34R,0.800000X0.900000*%
%ADD35R,3.500000X3.500000*%
%ADD36R,0.800000X0.800000*%
%ADD37R,2.000000X2.000000*%
%ADD38R,0.800000X0.750000*%
G04 APERTURE END LIST*
D10*
X52422000Y-116033000D03*
X52422000Y-116683000D03*
X52422000Y-117333000D03*
X52422000Y-117983000D03*
X52422000Y-118633000D03*
X52422000Y-119283000D03*
X52422000Y-119933000D03*
X58322000Y-119933000D03*
X58322000Y-119283000D03*
X58322000Y-118633000D03*
X58322000Y-117983000D03*
X58322000Y-117333000D03*
X58322000Y-116683000D03*
X58322000Y-116033000D03*
D11*
X47625000Y-86233000D03*
X48895000Y-86233000D03*
X50165000Y-86233000D03*
X51435000Y-86233000D03*
X51435000Y-80645000D03*
X50165000Y-80645000D03*
X48895000Y-80645000D03*
X47625000Y-80645000D03*
D12*
X47257000Y-90678000D03*
X52057000Y-90678000D03*
D13*
X127254000Y-115752000D03*
X127254000Y-119452000D03*
D14*
X135249000Y-108145000D03*
X136049000Y-108145000D03*
X136849000Y-108145000D03*
X137649000Y-108145000D03*
X138449000Y-108145000D03*
X139249000Y-108145000D03*
X140049000Y-108145000D03*
X140849000Y-108145000D03*
D15*
X142299000Y-109595000D03*
X142299000Y-110395000D03*
X142299000Y-111195000D03*
X142299000Y-111995000D03*
X142299000Y-112795000D03*
X142299000Y-113595000D03*
X142299000Y-114395000D03*
X142299000Y-115195000D03*
D14*
X140849000Y-116645000D03*
X140049000Y-116645000D03*
X139249000Y-116645000D03*
X138449000Y-116645000D03*
X137649000Y-116645000D03*
X136849000Y-116645000D03*
X136049000Y-116645000D03*
X135249000Y-116645000D03*
D15*
X133799000Y-115195000D03*
X133799000Y-114395000D03*
X133799000Y-113595000D03*
X133799000Y-112795000D03*
X133799000Y-111995000D03*
X133799000Y-111195000D03*
X133799000Y-110395000D03*
X133799000Y-109595000D03*
D16*
X141986000Y-118884000D03*
X141986000Y-120384000D03*
X145034000Y-118884000D03*
X145034000Y-120384000D03*
D17*
X133096000Y-132969000D03*
D18*
X133096000Y-130429000D03*
D17*
X142494000Y-130429000D03*
D18*
X142494000Y-132969000D03*
X139954000Y-130429000D03*
X139954000Y-132969000D03*
X137414000Y-130429000D03*
X137414000Y-132969000D03*
D19*
X86565000Y-125222000D03*
X86565000Y-126492000D03*
X86565000Y-127762000D03*
X86565000Y-129032000D03*
X86565000Y-130302000D03*
X86565000Y-131572000D03*
X86565000Y-132842000D03*
X86565000Y-134112000D03*
X77265000Y-134112000D03*
X77265000Y-132842000D03*
X77265000Y-131572000D03*
X77265000Y-130302000D03*
X77265000Y-129032000D03*
X77265000Y-127762000D03*
X77265000Y-126492000D03*
X77265000Y-125222000D03*
X113235000Y-125222000D03*
X113235000Y-126492000D03*
X113235000Y-127762000D03*
X113235000Y-129032000D03*
X113235000Y-130302000D03*
X113235000Y-131572000D03*
X113235000Y-132842000D03*
X113235000Y-134112000D03*
X103935000Y-134112000D03*
X103935000Y-132842000D03*
X103935000Y-131572000D03*
X103935000Y-130302000D03*
X103935000Y-129032000D03*
X103935000Y-127762000D03*
X103935000Y-126492000D03*
X103935000Y-125222000D03*
D20*
X131699000Y-113119600D03*
X131699000Y-111619600D03*
D21*
X75057000Y-94411800D03*
D22*
X77057000Y-94411800D03*
D23*
X32578000Y-107993000D03*
X34478000Y-107993000D03*
X34478000Y-110193000D03*
X33528000Y-110193000D03*
X32578000Y-110193000D03*
X98999000Y-104183000D03*
X100899000Y-104183000D03*
X100899000Y-106383000D03*
X99949000Y-106383000D03*
X98999000Y-106383000D03*
X85029000Y-104183000D03*
X86929000Y-104183000D03*
X86929000Y-106383000D03*
X85979000Y-106383000D03*
X85029000Y-106383000D03*
X38293000Y-107993000D03*
X40193000Y-107993000D03*
X40193000Y-110193000D03*
X39243000Y-110193000D03*
X38293000Y-110193000D03*
X44008000Y-107993000D03*
X45908000Y-107993000D03*
X45908000Y-110193000D03*
X44958000Y-110193000D03*
X44008000Y-110193000D03*
D24*
X108051000Y-87884000D03*
X110591000Y-85344000D03*
X108051000Y-82804000D03*
D25*
X70587000Y-94411800D03*
D26*
X64287000Y-94411800D03*
X64287000Y-96711800D03*
X64287000Y-92111800D03*
D10*
X92300000Y-131527000D03*
X92300000Y-132177000D03*
X92300000Y-132827000D03*
X92300000Y-133477000D03*
X92300000Y-134127000D03*
X92300000Y-134777000D03*
X92300000Y-135427000D03*
X98200000Y-135427000D03*
X98200000Y-134777000D03*
X98200000Y-134127000D03*
X98200000Y-133477000D03*
X98200000Y-132827000D03*
X98200000Y-132177000D03*
X98200000Y-131527000D03*
X92300000Y-123907000D03*
X92300000Y-124557000D03*
X92300000Y-125207000D03*
X92300000Y-125857000D03*
X92300000Y-126507000D03*
X92300000Y-127157000D03*
X92300000Y-127807000D03*
X98200000Y-127807000D03*
X98200000Y-127157000D03*
X98200000Y-126507000D03*
X98200000Y-125857000D03*
X98200000Y-125207000D03*
X98200000Y-124557000D03*
X98200000Y-123907000D03*
X103984000Y-95078000D03*
X103984000Y-95728000D03*
X103984000Y-96378000D03*
X103984000Y-97028000D03*
X103984000Y-97678000D03*
X103984000Y-98328000D03*
X103984000Y-98978000D03*
X109884000Y-98978000D03*
X109884000Y-98328000D03*
X109884000Y-97678000D03*
X109884000Y-97028000D03*
X109884000Y-96378000D03*
X109884000Y-95728000D03*
X109884000Y-95078000D03*
X90834000Y-98978000D03*
X90834000Y-98328000D03*
X90834000Y-97678000D03*
X90834000Y-97028000D03*
X90834000Y-96378000D03*
X90834000Y-95728000D03*
X90834000Y-95078000D03*
X84934000Y-95078000D03*
X84934000Y-95728000D03*
X84934000Y-96378000D03*
X84934000Y-97028000D03*
X84934000Y-97678000D03*
X84934000Y-98328000D03*
X84934000Y-98978000D03*
D27*
X94459000Y-94753000D03*
X94459000Y-95403000D03*
X94459000Y-96053000D03*
X94459000Y-96703000D03*
X94459000Y-97353000D03*
X94459000Y-98003000D03*
X94459000Y-98653000D03*
X94459000Y-99303000D03*
X100359000Y-99303000D03*
X100359000Y-98653000D03*
X100359000Y-98003000D03*
X100359000Y-97353000D03*
X100359000Y-96703000D03*
X100359000Y-96053000D03*
X100359000Y-95403000D03*
X100359000Y-94753000D03*
X103984000Y-103643000D03*
X103984000Y-104293000D03*
X103984000Y-104943000D03*
X103984000Y-105593000D03*
X103984000Y-106243000D03*
X103984000Y-106893000D03*
X103984000Y-107543000D03*
X103984000Y-108193000D03*
X109884000Y-108193000D03*
X109884000Y-107543000D03*
X109884000Y-106893000D03*
X109884000Y-106243000D03*
X109884000Y-105593000D03*
X109884000Y-104943000D03*
X109884000Y-104293000D03*
X109884000Y-103643000D03*
X90014000Y-103643000D03*
X90014000Y-104293000D03*
X90014000Y-104943000D03*
X90014000Y-105593000D03*
X90014000Y-106243000D03*
X90014000Y-106893000D03*
X90014000Y-107543000D03*
X90014000Y-108193000D03*
X95914000Y-108193000D03*
X95914000Y-107543000D03*
X95914000Y-106893000D03*
X95914000Y-106243000D03*
X95914000Y-105593000D03*
X95914000Y-104943000D03*
X95914000Y-104293000D03*
X95914000Y-103643000D03*
D28*
X64940200Y-103047800D03*
X64940200Y-104317800D03*
X64940200Y-105587800D03*
X64940200Y-106857800D03*
X70340200Y-106857800D03*
X70340200Y-105587800D03*
X70340200Y-104317800D03*
X70340200Y-103047800D03*
X92931000Y-83439000D03*
X92931000Y-84709000D03*
X92931000Y-85979000D03*
X92931000Y-87249000D03*
X98331000Y-87249000D03*
X98331000Y-85979000D03*
X98331000Y-84709000D03*
X98331000Y-83439000D03*
D27*
X68990000Y-120893000D03*
X68990000Y-120243000D03*
X68990000Y-119593000D03*
X68990000Y-118943000D03*
X68990000Y-118293000D03*
X68990000Y-117643000D03*
X68990000Y-116993000D03*
X68990000Y-116343000D03*
X63090000Y-116343000D03*
X63090000Y-116993000D03*
X63090000Y-117643000D03*
X63090000Y-118293000D03*
X63090000Y-118943000D03*
X63090000Y-119593000D03*
X63090000Y-120243000D03*
X63090000Y-120893000D03*
X64233000Y-137933000D03*
X64233000Y-138583000D03*
X64233000Y-139233000D03*
X64233000Y-139883000D03*
X64233000Y-140533000D03*
X64233000Y-141183000D03*
X64233000Y-141833000D03*
X64233000Y-142483000D03*
X70133000Y-142483000D03*
X70133000Y-141833000D03*
X70133000Y-141183000D03*
X70133000Y-140533000D03*
X70133000Y-139883000D03*
X70133000Y-139233000D03*
X70133000Y-138583000D03*
X70133000Y-137933000D03*
D21*
X31623000Y-121793000D03*
D29*
X46863000Y-114173000D03*
X34163000Y-121793000D03*
X44323000Y-114173000D03*
X36703000Y-121793000D03*
X41783000Y-114173000D03*
X39243000Y-121793000D03*
X39243000Y-114173000D03*
X41783000Y-121793000D03*
X36703000Y-114173000D03*
X44323000Y-121793000D03*
X34163000Y-114173000D03*
X46863000Y-121793000D03*
X31623000Y-114173000D03*
D30*
X72208000Y-112014000D03*
X76708000Y-112014000D03*
X72208000Y-118514000D03*
X76708000Y-118514000D03*
D21*
X31623000Y-143383000D03*
D29*
X49403000Y-135763000D03*
X34163000Y-143383000D03*
X46863000Y-135763000D03*
X36703000Y-143383000D03*
X44323000Y-135763000D03*
X39243000Y-143383000D03*
X41783000Y-135763000D03*
X41783000Y-143383000D03*
X39243000Y-135763000D03*
X44323000Y-143383000D03*
X36703000Y-135763000D03*
X46863000Y-143383000D03*
X34163000Y-135763000D03*
X49403000Y-143383000D03*
X31623000Y-135763000D03*
D31*
X66319400Y-131209800D03*
X66319400Y-129209800D03*
X66319400Y-127209800D03*
D32*
X66319400Y-133309800D03*
X66319400Y-125109800D03*
D21*
X51943000Y-131953000D03*
D29*
X49403000Y-131953000D03*
X46863000Y-131953000D03*
X44323000Y-131953000D03*
X41783000Y-131953000D03*
X39243000Y-131953000D03*
X36703000Y-131953000D03*
X34163000Y-131953000D03*
X31623000Y-131953000D03*
D16*
X104140000Y-144157000D03*
X104140000Y-145657000D03*
X100330000Y-144157000D03*
X100330000Y-145657000D03*
X96520000Y-144157000D03*
X96520000Y-145657000D03*
D33*
X136029000Y-104749600D03*
X137529000Y-104749600D03*
D16*
X75057000Y-85406800D03*
X75057000Y-86906800D03*
D33*
X62980000Y-126873000D03*
X61480000Y-126873000D03*
X62738000Y-131318000D03*
X61238000Y-131318000D03*
X50280000Y-94742000D03*
X48780000Y-94742000D03*
D16*
X77343000Y-105676000D03*
X77343000Y-107176000D03*
X77343000Y-102501000D03*
X77343000Y-104001000D03*
X101981000Y-85864000D03*
X101981000Y-87364000D03*
X71247000Y-85406800D03*
X71247000Y-86906800D03*
X88265000Y-144157000D03*
X88265000Y-145657000D03*
X103759000Y-117233000D03*
X103759000Y-118733000D03*
X99949000Y-117233000D03*
X99949000Y-118733000D03*
X96139000Y-117233000D03*
X96139000Y-118733000D03*
X92329000Y-117233000D03*
X92329000Y-118733000D03*
D33*
X82157000Y-112522000D03*
X80657000Y-112522000D03*
X80657000Y-118491000D03*
X82157000Y-118491000D03*
D34*
X80330000Y-116570000D03*
X82230000Y-116570000D03*
X81280000Y-114570000D03*
D17*
X124714000Y-125704600D03*
D18*
X127254000Y-125704600D03*
X129794000Y-125704600D03*
X132334000Y-125704600D03*
X134874000Y-125704600D03*
X137414000Y-125704600D03*
X139954000Y-125704600D03*
X142494000Y-125704600D03*
D35*
X38402000Y-88951800D03*
X35402000Y-84251800D03*
X41402000Y-84251800D03*
D36*
X104140000Y-140297000D03*
X104140000Y-141897000D03*
X100330000Y-140297000D03*
X100330000Y-141897000D03*
X96520000Y-140297000D03*
X96520000Y-141897000D03*
X75057000Y-81546800D03*
X75057000Y-83146800D03*
X71247000Y-81546800D03*
X71247000Y-83146800D03*
X88265000Y-140297000D03*
X88265000Y-141897000D03*
X103759000Y-113373000D03*
X103759000Y-114973000D03*
X99949000Y-113373000D03*
X99949000Y-114973000D03*
X96139000Y-113373000D03*
X96139000Y-114973000D03*
X92329000Y-113373000D03*
X92329000Y-114973000D03*
D21*
X60833000Y-105156000D03*
D22*
X58333000Y-105156000D03*
D21*
X88646000Y-85344000D03*
D22*
X86146000Y-85344000D03*
D20*
X122809000Y-118731600D03*
X122809000Y-120231600D03*
X122809000Y-114921600D03*
X122809000Y-116421600D03*
D21*
X87630000Y-116586000D03*
D22*
X87630000Y-114586000D03*
D21*
X57912000Y-94411800D03*
D22*
X59912000Y-94411800D03*
D37*
X61722000Y-81711800D03*
D30*
X61722000Y-86711800D03*
D20*
X144399000Y-112254600D03*
X144399000Y-113754600D03*
D38*
X101715000Y-131572000D03*
X100215000Y-131572000D03*
X101715000Y-123952000D03*
X100215000Y-123952000D03*
X111645000Y-122682000D03*
X113145000Y-122682000D03*
X84975000Y-122682000D03*
X86475000Y-122682000D03*
X112129000Y-93218000D03*
X110629000Y-93218000D03*
D20*
X84074000Y-102223000D03*
X84074000Y-100723000D03*
D38*
X102489000Y-93218000D03*
X100989000Y-93218000D03*
X112129000Y-102108000D03*
X110629000Y-102108000D03*
X101334000Y-102108000D03*
X99834000Y-102108000D03*
X87364000Y-102108000D03*
X85864000Y-102108000D03*
X98159000Y-102108000D03*
X96659000Y-102108000D03*
X74283000Y-102997000D03*
X72783000Y-102997000D03*
X102096000Y-83439000D03*
X100596000Y-83439000D03*
X61480000Y-123063000D03*
X62980000Y-123063000D03*
X68973000Y-135763000D03*
X70473000Y-135763000D03*
X61710000Y-114935000D03*
X60210000Y-114935000D03*
D20*
X44069000Y-104660000D03*
X44069000Y-106160000D03*
X38354000Y-104660000D03*
X38354000Y-106160000D03*
X32639000Y-104660000D03*
X32639000Y-106160000D03*
M02*
