G04 #@! TF.GenerationSoftware,KiCad,Pcbnew,(5.1.6)-1*
G04 #@! TF.CreationDate,2020-09-12T17:38:00+07:00*
G04 #@! TF.ProjectId,automata_smd,6175746f-6d61-4746-915f-736d642e6b69,3*
G04 #@! TF.SameCoordinates,Original*
G04 #@! TF.FileFunction,Soldermask,Bot*
G04 #@! TF.FilePolarity,Negative*
%FSLAX46Y46*%
G04 Gerber Fmt 4.6, Leading zero omitted, Abs format (unit mm)*
G04 Created by KiCad (PCBNEW (5.1.6)-1) date 2020-09-12 17:38:00*
%MOMM*%
%LPD*%
G01*
G04 APERTURE LIST*
%ADD10O,1.600000X1.600000*%
%ADD11R,1.600000X1.600000*%
%ADD12C,2.000000*%
%ADD13O,1.700000X1.700000*%
%ADD14R,1.700000X1.700000*%
%ADD15R,3.500000X3.500000*%
%ADD16C,1.600000*%
%ADD17C,1.120000*%
%ADD18C,2.250000*%
%ADD19C,1.300000*%
G04 APERTURE END LIST*
G36*
G01*
X54898000Y-137183000D02*
X54898000Y-137383000D01*
G75*
G02*
X54798000Y-137483000I-100000J0D01*
G01*
X53523000Y-137483000D01*
G75*
G02*
X53423000Y-137383000I0J100000D01*
G01*
X53423000Y-137183000D01*
G75*
G02*
X53523000Y-137083000I100000J0D01*
G01*
X54798000Y-137083000D01*
G75*
G02*
X54898000Y-137183000I0J-100000D01*
G01*
G37*
G36*
G01*
X54898000Y-137833000D02*
X54898000Y-138033000D01*
G75*
G02*
X54798000Y-138133000I-100000J0D01*
G01*
X53523000Y-138133000D01*
G75*
G02*
X53423000Y-138033000I0J100000D01*
G01*
X53423000Y-137833000D01*
G75*
G02*
X53523000Y-137733000I100000J0D01*
G01*
X54798000Y-137733000D01*
G75*
G02*
X54898000Y-137833000I0J-100000D01*
G01*
G37*
G36*
G01*
X54898000Y-138483000D02*
X54898000Y-138683000D01*
G75*
G02*
X54798000Y-138783000I-100000J0D01*
G01*
X53523000Y-138783000D01*
G75*
G02*
X53423000Y-138683000I0J100000D01*
G01*
X53423000Y-138483000D01*
G75*
G02*
X53523000Y-138383000I100000J0D01*
G01*
X54798000Y-138383000D01*
G75*
G02*
X54898000Y-138483000I0J-100000D01*
G01*
G37*
G36*
G01*
X54898000Y-139133000D02*
X54898000Y-139333000D01*
G75*
G02*
X54798000Y-139433000I-100000J0D01*
G01*
X53523000Y-139433000D01*
G75*
G02*
X53423000Y-139333000I0J100000D01*
G01*
X53423000Y-139133000D01*
G75*
G02*
X53523000Y-139033000I100000J0D01*
G01*
X54798000Y-139033000D01*
G75*
G02*
X54898000Y-139133000I0J-100000D01*
G01*
G37*
G36*
G01*
X54898000Y-139783000D02*
X54898000Y-139983000D01*
G75*
G02*
X54798000Y-140083000I-100000J0D01*
G01*
X53523000Y-140083000D01*
G75*
G02*
X53423000Y-139983000I0J100000D01*
G01*
X53423000Y-139783000D01*
G75*
G02*
X53523000Y-139683000I100000J0D01*
G01*
X54798000Y-139683000D01*
G75*
G02*
X54898000Y-139783000I0J-100000D01*
G01*
G37*
G36*
G01*
X54898000Y-140433000D02*
X54898000Y-140633000D01*
G75*
G02*
X54798000Y-140733000I-100000J0D01*
G01*
X53523000Y-140733000D01*
G75*
G02*
X53423000Y-140633000I0J100000D01*
G01*
X53423000Y-140433000D01*
G75*
G02*
X53523000Y-140333000I100000J0D01*
G01*
X54798000Y-140333000D01*
G75*
G02*
X54898000Y-140433000I0J-100000D01*
G01*
G37*
G36*
G01*
X54898000Y-141083000D02*
X54898000Y-141283000D01*
G75*
G02*
X54798000Y-141383000I-100000J0D01*
G01*
X53523000Y-141383000D01*
G75*
G02*
X53423000Y-141283000I0J100000D01*
G01*
X53423000Y-141083000D01*
G75*
G02*
X53523000Y-140983000I100000J0D01*
G01*
X54798000Y-140983000D01*
G75*
G02*
X54898000Y-141083000I0J-100000D01*
G01*
G37*
G36*
G01*
X54898000Y-141733000D02*
X54898000Y-141933000D01*
G75*
G02*
X54798000Y-142033000I-100000J0D01*
G01*
X53523000Y-142033000D01*
G75*
G02*
X53423000Y-141933000I0J100000D01*
G01*
X53423000Y-141733000D01*
G75*
G02*
X53523000Y-141633000I100000J0D01*
G01*
X54798000Y-141633000D01*
G75*
G02*
X54898000Y-141733000I0J-100000D01*
G01*
G37*
G36*
G01*
X54898000Y-142383000D02*
X54898000Y-142583000D01*
G75*
G02*
X54798000Y-142683000I-100000J0D01*
G01*
X53523000Y-142683000D01*
G75*
G02*
X53423000Y-142583000I0J100000D01*
G01*
X53423000Y-142383000D01*
G75*
G02*
X53523000Y-142283000I100000J0D01*
G01*
X54798000Y-142283000D01*
G75*
G02*
X54898000Y-142383000I0J-100000D01*
G01*
G37*
G36*
G01*
X54898000Y-143033000D02*
X54898000Y-143233000D01*
G75*
G02*
X54798000Y-143333000I-100000J0D01*
G01*
X53523000Y-143333000D01*
G75*
G02*
X53423000Y-143233000I0J100000D01*
G01*
X53423000Y-143033000D01*
G75*
G02*
X53523000Y-142933000I100000J0D01*
G01*
X54798000Y-142933000D01*
G75*
G02*
X54898000Y-143033000I0J-100000D01*
G01*
G37*
G36*
G01*
X60623000Y-143033000D02*
X60623000Y-143233000D01*
G75*
G02*
X60523000Y-143333000I-100000J0D01*
G01*
X59248000Y-143333000D01*
G75*
G02*
X59148000Y-143233000I0J100000D01*
G01*
X59148000Y-143033000D01*
G75*
G02*
X59248000Y-142933000I100000J0D01*
G01*
X60523000Y-142933000D01*
G75*
G02*
X60623000Y-143033000I0J-100000D01*
G01*
G37*
G36*
G01*
X60623000Y-142383000D02*
X60623000Y-142583000D01*
G75*
G02*
X60523000Y-142683000I-100000J0D01*
G01*
X59248000Y-142683000D01*
G75*
G02*
X59148000Y-142583000I0J100000D01*
G01*
X59148000Y-142383000D01*
G75*
G02*
X59248000Y-142283000I100000J0D01*
G01*
X60523000Y-142283000D01*
G75*
G02*
X60623000Y-142383000I0J-100000D01*
G01*
G37*
G36*
G01*
X60623000Y-141733000D02*
X60623000Y-141933000D01*
G75*
G02*
X60523000Y-142033000I-100000J0D01*
G01*
X59248000Y-142033000D01*
G75*
G02*
X59148000Y-141933000I0J100000D01*
G01*
X59148000Y-141733000D01*
G75*
G02*
X59248000Y-141633000I100000J0D01*
G01*
X60523000Y-141633000D01*
G75*
G02*
X60623000Y-141733000I0J-100000D01*
G01*
G37*
G36*
G01*
X60623000Y-141083000D02*
X60623000Y-141283000D01*
G75*
G02*
X60523000Y-141383000I-100000J0D01*
G01*
X59248000Y-141383000D01*
G75*
G02*
X59148000Y-141283000I0J100000D01*
G01*
X59148000Y-141083000D01*
G75*
G02*
X59248000Y-140983000I100000J0D01*
G01*
X60523000Y-140983000D01*
G75*
G02*
X60623000Y-141083000I0J-100000D01*
G01*
G37*
G36*
G01*
X60623000Y-140433000D02*
X60623000Y-140633000D01*
G75*
G02*
X60523000Y-140733000I-100000J0D01*
G01*
X59248000Y-140733000D01*
G75*
G02*
X59148000Y-140633000I0J100000D01*
G01*
X59148000Y-140433000D01*
G75*
G02*
X59248000Y-140333000I100000J0D01*
G01*
X60523000Y-140333000D01*
G75*
G02*
X60623000Y-140433000I0J-100000D01*
G01*
G37*
G36*
G01*
X60623000Y-139783000D02*
X60623000Y-139983000D01*
G75*
G02*
X60523000Y-140083000I-100000J0D01*
G01*
X59248000Y-140083000D01*
G75*
G02*
X59148000Y-139983000I0J100000D01*
G01*
X59148000Y-139783000D01*
G75*
G02*
X59248000Y-139683000I100000J0D01*
G01*
X60523000Y-139683000D01*
G75*
G02*
X60623000Y-139783000I0J-100000D01*
G01*
G37*
G36*
G01*
X60623000Y-139133000D02*
X60623000Y-139333000D01*
G75*
G02*
X60523000Y-139433000I-100000J0D01*
G01*
X59248000Y-139433000D01*
G75*
G02*
X59148000Y-139333000I0J100000D01*
G01*
X59148000Y-139133000D01*
G75*
G02*
X59248000Y-139033000I100000J0D01*
G01*
X60523000Y-139033000D01*
G75*
G02*
X60623000Y-139133000I0J-100000D01*
G01*
G37*
G36*
G01*
X60623000Y-138483000D02*
X60623000Y-138683000D01*
G75*
G02*
X60523000Y-138783000I-100000J0D01*
G01*
X59248000Y-138783000D01*
G75*
G02*
X59148000Y-138683000I0J100000D01*
G01*
X59148000Y-138483000D01*
G75*
G02*
X59248000Y-138383000I100000J0D01*
G01*
X60523000Y-138383000D01*
G75*
G02*
X60623000Y-138483000I0J-100000D01*
G01*
G37*
G36*
G01*
X60623000Y-137833000D02*
X60623000Y-138033000D01*
G75*
G02*
X60523000Y-138133000I-100000J0D01*
G01*
X59248000Y-138133000D01*
G75*
G02*
X59148000Y-138033000I0J100000D01*
G01*
X59148000Y-137833000D01*
G75*
G02*
X59248000Y-137733000I100000J0D01*
G01*
X60523000Y-137733000D01*
G75*
G02*
X60623000Y-137833000I0J-100000D01*
G01*
G37*
G36*
G01*
X60623000Y-137183000D02*
X60623000Y-137383000D01*
G75*
G02*
X60523000Y-137483000I-100000J0D01*
G01*
X59248000Y-137483000D01*
G75*
G02*
X59148000Y-137383000I0J100000D01*
G01*
X59148000Y-137183000D01*
G75*
G02*
X59248000Y-137083000I100000J0D01*
G01*
X60523000Y-137083000D01*
G75*
G02*
X60623000Y-137183000I0J-100000D01*
G01*
G37*
G36*
G01*
X53247000Y-114958000D02*
X53247000Y-115158000D01*
G75*
G02*
X53147000Y-115258000I-100000J0D01*
G01*
X51872000Y-115258000D01*
G75*
G02*
X51772000Y-115158000I0J100000D01*
G01*
X51772000Y-114958000D01*
G75*
G02*
X51872000Y-114858000I100000J0D01*
G01*
X53147000Y-114858000D01*
G75*
G02*
X53247000Y-114958000I0J-100000D01*
G01*
G37*
G36*
G01*
X53247000Y-115608000D02*
X53247000Y-115808000D01*
G75*
G02*
X53147000Y-115908000I-100000J0D01*
G01*
X51872000Y-115908000D01*
G75*
G02*
X51772000Y-115808000I0J100000D01*
G01*
X51772000Y-115608000D01*
G75*
G02*
X51872000Y-115508000I100000J0D01*
G01*
X53147000Y-115508000D01*
G75*
G02*
X53247000Y-115608000I0J-100000D01*
G01*
G37*
G36*
G01*
X53247000Y-116258000D02*
X53247000Y-116458000D01*
G75*
G02*
X53147000Y-116558000I-100000J0D01*
G01*
X51872000Y-116558000D01*
G75*
G02*
X51772000Y-116458000I0J100000D01*
G01*
X51772000Y-116258000D01*
G75*
G02*
X51872000Y-116158000I100000J0D01*
G01*
X53147000Y-116158000D01*
G75*
G02*
X53247000Y-116258000I0J-100000D01*
G01*
G37*
G36*
G01*
X53247000Y-116908000D02*
X53247000Y-117108000D01*
G75*
G02*
X53147000Y-117208000I-100000J0D01*
G01*
X51872000Y-117208000D01*
G75*
G02*
X51772000Y-117108000I0J100000D01*
G01*
X51772000Y-116908000D01*
G75*
G02*
X51872000Y-116808000I100000J0D01*
G01*
X53147000Y-116808000D01*
G75*
G02*
X53247000Y-116908000I0J-100000D01*
G01*
G37*
G36*
G01*
X53247000Y-117558000D02*
X53247000Y-117758000D01*
G75*
G02*
X53147000Y-117858000I-100000J0D01*
G01*
X51872000Y-117858000D01*
G75*
G02*
X51772000Y-117758000I0J100000D01*
G01*
X51772000Y-117558000D01*
G75*
G02*
X51872000Y-117458000I100000J0D01*
G01*
X53147000Y-117458000D01*
G75*
G02*
X53247000Y-117558000I0J-100000D01*
G01*
G37*
G36*
G01*
X53247000Y-118208000D02*
X53247000Y-118408000D01*
G75*
G02*
X53147000Y-118508000I-100000J0D01*
G01*
X51872000Y-118508000D01*
G75*
G02*
X51772000Y-118408000I0J100000D01*
G01*
X51772000Y-118208000D01*
G75*
G02*
X51872000Y-118108000I100000J0D01*
G01*
X53147000Y-118108000D01*
G75*
G02*
X53247000Y-118208000I0J-100000D01*
G01*
G37*
G36*
G01*
X53247000Y-118858000D02*
X53247000Y-119058000D01*
G75*
G02*
X53147000Y-119158000I-100000J0D01*
G01*
X51872000Y-119158000D01*
G75*
G02*
X51772000Y-119058000I0J100000D01*
G01*
X51772000Y-118858000D01*
G75*
G02*
X51872000Y-118758000I100000J0D01*
G01*
X53147000Y-118758000D01*
G75*
G02*
X53247000Y-118858000I0J-100000D01*
G01*
G37*
G36*
G01*
X53247000Y-119508000D02*
X53247000Y-119708000D01*
G75*
G02*
X53147000Y-119808000I-100000J0D01*
G01*
X51872000Y-119808000D01*
G75*
G02*
X51772000Y-119708000I0J100000D01*
G01*
X51772000Y-119508000D01*
G75*
G02*
X51872000Y-119408000I100000J0D01*
G01*
X53147000Y-119408000D01*
G75*
G02*
X53247000Y-119508000I0J-100000D01*
G01*
G37*
G36*
G01*
X53247000Y-120158000D02*
X53247000Y-120358000D01*
G75*
G02*
X53147000Y-120458000I-100000J0D01*
G01*
X51872000Y-120458000D01*
G75*
G02*
X51772000Y-120358000I0J100000D01*
G01*
X51772000Y-120158000D01*
G75*
G02*
X51872000Y-120058000I100000J0D01*
G01*
X53147000Y-120058000D01*
G75*
G02*
X53247000Y-120158000I0J-100000D01*
G01*
G37*
G36*
G01*
X53247000Y-120808000D02*
X53247000Y-121008000D01*
G75*
G02*
X53147000Y-121108000I-100000J0D01*
G01*
X51872000Y-121108000D01*
G75*
G02*
X51772000Y-121008000I0J100000D01*
G01*
X51772000Y-120808000D01*
G75*
G02*
X51872000Y-120708000I100000J0D01*
G01*
X53147000Y-120708000D01*
G75*
G02*
X53247000Y-120808000I0J-100000D01*
G01*
G37*
G36*
G01*
X58972000Y-120808000D02*
X58972000Y-121008000D01*
G75*
G02*
X58872000Y-121108000I-100000J0D01*
G01*
X57597000Y-121108000D01*
G75*
G02*
X57497000Y-121008000I0J100000D01*
G01*
X57497000Y-120808000D01*
G75*
G02*
X57597000Y-120708000I100000J0D01*
G01*
X58872000Y-120708000D01*
G75*
G02*
X58972000Y-120808000I0J-100000D01*
G01*
G37*
G36*
G01*
X58972000Y-120158000D02*
X58972000Y-120358000D01*
G75*
G02*
X58872000Y-120458000I-100000J0D01*
G01*
X57597000Y-120458000D01*
G75*
G02*
X57497000Y-120358000I0J100000D01*
G01*
X57497000Y-120158000D01*
G75*
G02*
X57597000Y-120058000I100000J0D01*
G01*
X58872000Y-120058000D01*
G75*
G02*
X58972000Y-120158000I0J-100000D01*
G01*
G37*
G36*
G01*
X58972000Y-119508000D02*
X58972000Y-119708000D01*
G75*
G02*
X58872000Y-119808000I-100000J0D01*
G01*
X57597000Y-119808000D01*
G75*
G02*
X57497000Y-119708000I0J100000D01*
G01*
X57497000Y-119508000D01*
G75*
G02*
X57597000Y-119408000I100000J0D01*
G01*
X58872000Y-119408000D01*
G75*
G02*
X58972000Y-119508000I0J-100000D01*
G01*
G37*
G36*
G01*
X58972000Y-118858000D02*
X58972000Y-119058000D01*
G75*
G02*
X58872000Y-119158000I-100000J0D01*
G01*
X57597000Y-119158000D01*
G75*
G02*
X57497000Y-119058000I0J100000D01*
G01*
X57497000Y-118858000D01*
G75*
G02*
X57597000Y-118758000I100000J0D01*
G01*
X58872000Y-118758000D01*
G75*
G02*
X58972000Y-118858000I0J-100000D01*
G01*
G37*
G36*
G01*
X58972000Y-118208000D02*
X58972000Y-118408000D01*
G75*
G02*
X58872000Y-118508000I-100000J0D01*
G01*
X57597000Y-118508000D01*
G75*
G02*
X57497000Y-118408000I0J100000D01*
G01*
X57497000Y-118208000D01*
G75*
G02*
X57597000Y-118108000I100000J0D01*
G01*
X58872000Y-118108000D01*
G75*
G02*
X58972000Y-118208000I0J-100000D01*
G01*
G37*
G36*
G01*
X58972000Y-117558000D02*
X58972000Y-117758000D01*
G75*
G02*
X58872000Y-117858000I-100000J0D01*
G01*
X57597000Y-117858000D01*
G75*
G02*
X57497000Y-117758000I0J100000D01*
G01*
X57497000Y-117558000D01*
G75*
G02*
X57597000Y-117458000I100000J0D01*
G01*
X58872000Y-117458000D01*
G75*
G02*
X58972000Y-117558000I0J-100000D01*
G01*
G37*
G36*
G01*
X58972000Y-116908000D02*
X58972000Y-117108000D01*
G75*
G02*
X58872000Y-117208000I-100000J0D01*
G01*
X57597000Y-117208000D01*
G75*
G02*
X57497000Y-117108000I0J100000D01*
G01*
X57497000Y-116908000D01*
G75*
G02*
X57597000Y-116808000I100000J0D01*
G01*
X58872000Y-116808000D01*
G75*
G02*
X58972000Y-116908000I0J-100000D01*
G01*
G37*
G36*
G01*
X58972000Y-116258000D02*
X58972000Y-116458000D01*
G75*
G02*
X58872000Y-116558000I-100000J0D01*
G01*
X57597000Y-116558000D01*
G75*
G02*
X57497000Y-116458000I0J100000D01*
G01*
X57497000Y-116258000D01*
G75*
G02*
X57597000Y-116158000I100000J0D01*
G01*
X58872000Y-116158000D01*
G75*
G02*
X58972000Y-116258000I0J-100000D01*
G01*
G37*
G36*
G01*
X58972000Y-115608000D02*
X58972000Y-115808000D01*
G75*
G02*
X58872000Y-115908000I-100000J0D01*
G01*
X57597000Y-115908000D01*
G75*
G02*
X57497000Y-115808000I0J100000D01*
G01*
X57497000Y-115608000D01*
G75*
G02*
X57597000Y-115508000I100000J0D01*
G01*
X58872000Y-115508000D01*
G75*
G02*
X58972000Y-115608000I0J-100000D01*
G01*
G37*
G36*
G01*
X58972000Y-114958000D02*
X58972000Y-115158000D01*
G75*
G02*
X58872000Y-115258000I-100000J0D01*
G01*
X57597000Y-115258000D01*
G75*
G02*
X57497000Y-115158000I0J100000D01*
G01*
X57497000Y-114958000D01*
G75*
G02*
X57597000Y-114858000I100000J0D01*
G01*
X58872000Y-114858000D01*
G75*
G02*
X58972000Y-114958000I0J-100000D01*
G01*
G37*
D10*
X31623000Y-135763000D03*
X49403000Y-143383000D03*
X34163000Y-135763000D03*
X46863000Y-143383000D03*
X36703000Y-135763000D03*
X44323000Y-143383000D03*
X39243000Y-135763000D03*
X41783000Y-143383000D03*
X41783000Y-135763000D03*
X39243000Y-143383000D03*
X44323000Y-135763000D03*
X36703000Y-143383000D03*
X46863000Y-135763000D03*
X34163000Y-143383000D03*
X49403000Y-135763000D03*
D11*
X31623000Y-143383000D03*
D12*
X76708000Y-118514000D03*
X72208000Y-118514000D03*
X76708000Y-112014000D03*
X72208000Y-112014000D03*
D13*
X133096000Y-130429000D03*
D14*
X133096000Y-132969000D03*
D13*
X137414000Y-132969000D03*
X137414000Y-130429000D03*
X139954000Y-132969000D03*
X139954000Y-130429000D03*
X142494000Y-132969000D03*
D14*
X142494000Y-130429000D03*
D13*
X142494000Y-125704600D03*
X139954000Y-125704600D03*
X137414000Y-125704600D03*
X134874000Y-125704600D03*
X132334000Y-125704600D03*
X129794000Y-125704600D03*
X127254000Y-125704600D03*
D14*
X124714000Y-125704600D03*
D15*
X41402000Y-84251800D03*
G36*
G01*
X33902000Y-85251800D02*
X33902000Y-83251800D01*
G75*
G02*
X34652000Y-82501800I750000J0D01*
G01*
X36152000Y-82501800D01*
G75*
G02*
X36902000Y-83251800I0J-750000D01*
G01*
X36902000Y-85251800D01*
G75*
G02*
X36152000Y-86001800I-750000J0D01*
G01*
X34652000Y-86001800D01*
G75*
G02*
X33902000Y-85251800I0J750000D01*
G01*
G37*
G36*
G01*
X36652000Y-89826800D02*
X36652000Y-88076800D01*
G75*
G02*
X37527000Y-87201800I875000J0D01*
G01*
X39277000Y-87201800D01*
G75*
G02*
X40152000Y-88076800I0J-875000D01*
G01*
X40152000Y-89826800D01*
G75*
G02*
X39277000Y-90701800I-875000J0D01*
G01*
X37527000Y-90701800D01*
G75*
G02*
X36652000Y-89826800I0J875000D01*
G01*
G37*
G36*
G01*
X54833000Y-135384250D02*
X54833000Y-134871750D01*
G75*
G02*
X55051750Y-134653000I218750J0D01*
G01*
X55489250Y-134653000D01*
G75*
G02*
X55708000Y-134871750I0J-218750D01*
G01*
X55708000Y-135384250D01*
G75*
G02*
X55489250Y-135603000I-218750J0D01*
G01*
X55051750Y-135603000D01*
G75*
G02*
X54833000Y-135384250I0J218750D01*
G01*
G37*
G36*
G01*
X53258000Y-135384250D02*
X53258000Y-134871750D01*
G75*
G02*
X53476750Y-134653000I218750J0D01*
G01*
X53914250Y-134653000D01*
G75*
G02*
X54133000Y-134871750I0J-218750D01*
G01*
X54133000Y-135384250D01*
G75*
G02*
X53914250Y-135603000I-218750J0D01*
G01*
X53476750Y-135603000D01*
G75*
G02*
X53258000Y-135384250I0J218750D01*
G01*
G37*
G36*
G01*
X53182000Y-113159250D02*
X53182000Y-112646750D01*
G75*
G02*
X53400750Y-112428000I218750J0D01*
G01*
X53838250Y-112428000D01*
G75*
G02*
X54057000Y-112646750I0J-218750D01*
G01*
X54057000Y-113159250D01*
G75*
G02*
X53838250Y-113378000I-218750J0D01*
G01*
X53400750Y-113378000D01*
G75*
G02*
X53182000Y-113159250I0J218750D01*
G01*
G37*
G36*
G01*
X51607000Y-113159250D02*
X51607000Y-112646750D01*
G75*
G02*
X51825750Y-112428000I218750J0D01*
G01*
X52263250Y-112428000D01*
G75*
G02*
X52482000Y-112646750I0J-218750D01*
G01*
X52482000Y-113159250D01*
G75*
G02*
X52263250Y-113378000I-218750J0D01*
G01*
X51825750Y-113378000D01*
G75*
G02*
X51607000Y-113159250I0J218750D01*
G01*
G37*
D16*
X87630000Y-114586000D03*
D11*
X87630000Y-116586000D03*
D16*
X77057000Y-94361000D03*
D11*
X75057000Y-94361000D03*
D16*
X59912000Y-94361000D03*
D11*
X57912000Y-94361000D03*
D17*
X108051000Y-87884000D03*
X110591000Y-85344000D03*
X108051000Y-82804000D03*
D16*
X57190000Y-104775000D03*
D11*
X59690000Y-104775000D03*
D16*
X85130000Y-85090000D03*
D11*
X87630000Y-85090000D03*
D16*
X60960000Y-86320000D03*
D11*
X60960000Y-83820000D03*
D18*
X66319400Y-125109800D03*
X66319400Y-133309800D03*
D19*
X66319400Y-127209800D03*
X66319400Y-129209800D03*
X66319400Y-131209800D03*
D11*
X51943000Y-131953000D03*
D10*
X49403000Y-131953000D03*
X46863000Y-131953000D03*
X44323000Y-131953000D03*
X41783000Y-131953000D03*
X39243000Y-131953000D03*
X36703000Y-131953000D03*
X34163000Y-131953000D03*
X31623000Y-131953000D03*
M02*
